<mxfile host="app.diagrams.net" modified="2021-01-30T10:35:16.625Z" agent="5.0 (Macintosh; Intel Mac OS X 10_15_6) AppleWebKit/537.36 (KHTML, like Gecko) Chrome/88.0.4324.96 Safari/537.36" etag="RCTf7KriIK_FZWghp2kY" version="14.1.9" type="github">
  <diagram id="rOIRL8y4Twc3eIppV2HU" name="Page-1">
    <mxGraphModel dx="-43" dy="5486" grid="1" gridSize="10" guides="1" tooltips="1" connect="1" arrows="1" fold="1" page="1" pageScale="1" pageWidth="850" pageHeight="1100" math="0" shadow="0">
      <root>
        <mxCell id="0" />
        <mxCell id="1" parent="0" />
        <mxCell id="QaU9Emd1L0k_uGMCEZLj-247" value="" style="rounded=0;whiteSpace=wrap;html=1;strokeWidth=4;fontSize=40;align=center;" parent="1" vertex="1">
          <mxGeometry x="16030" y="-1040" width="3849" height="2360" as="geometry" />
        </mxCell>
        <mxCell id="QaU9Emd1L0k_uGMCEZLj-61" value="" style="rounded=0;whiteSpace=wrap;html=1;strokeWidth=4;fontSize=40;align=center;" parent="1" vertex="1">
          <mxGeometry x="6950" y="-950" width="3850" height="2360" as="geometry" />
        </mxCell>
        <mxCell id="QaU9Emd1L0k_uGMCEZLj-202" value="" style="group" parent="1" vertex="1" connectable="0">
          <mxGeometry x="8830" y="-604" width="1730" height="1824" as="geometry" />
        </mxCell>
        <mxCell id="QaU9Emd1L0k_uGMCEZLj-19" value="" style="rounded=0;arcSize=10;strokeColor=#F59D56;fillColor=none;gradientColor=none;strokeWidth=4;align=center;verticalAlign=top;" parent="QaU9Emd1L0k_uGMCEZLj-202" vertex="1">
          <mxGeometry x="33.110047846889955" y="34" width="1696.8899521531102" height="1790" as="geometry" />
        </mxCell>
        <mxCell id="QaU9Emd1L0k_uGMCEZLj-21" value="" style="outlineConnect=0;dashed=0;verticalLabelPosition=bottom;verticalAlign=top;align=center;html=1;shape=mxgraph.aws3.virtual_private_cloud;fillColor=#F58534;gradientColor=none;rounded=0;strokeWidth=4;" parent="QaU9Emd1L0k_uGMCEZLj-202" vertex="1">
          <mxGeometry width="65.80622009569379" height="54" as="geometry" />
        </mxCell>
        <mxCell id="QaU9Emd1L0k_uGMCEZLj-23" value="Public subnet" style="points=[[0,0],[0.25,0],[0.5,0],[0.75,0],[1,0],[1,0.25],[1,0.5],[1,0.75],[1,1],[0.75,1],[0.5,1],[0.25,1],[0,1],[0,0.75],[0,0.5],[0,0.25]];outlineConnect=0;html=1;whiteSpace=wrap;fontSize=12;fontStyle=0;shape=mxgraph.aws4.group;grIcon=mxgraph.aws4.group_security_group;grStroke=0;strokeColor=#36393d;fillColor=#eeeeee;verticalAlign=top;align=left;spacingLeft=30;dashed=0;rounded=0;" parent="1" vertex="1">
          <mxGeometry x="8990" y="-470" width="1500" height="1600" as="geometry" />
        </mxCell>
        <mxCell id="QaU9Emd1L0k_uGMCEZLj-4" value="" style="rounded=0;arcSize=10;strokeColor=#F59D56;fillColor=none;gradientColor=none;strokeWidth=4;align=center;verticalAlign=top;" parent="1" vertex="1">
          <mxGeometry x="17230" y="-120" width="1000" height="700" as="geometry" />
        </mxCell>
        <mxCell id="QaU9Emd1L0k_uGMCEZLj-3" value="" style="outlineConnect=0;dashed=0;verticalLabelPosition=bottom;verticalAlign=top;align=center;html=1;shape=mxgraph.aws3.virtual_private_cloud;fillColor=#F58534;gradientColor=none;rounded=0;strokeWidth=4;" parent="1" vertex="1">
          <mxGeometry x="17200" y="-150" width="79.5" height="54" as="geometry" />
        </mxCell>
        <mxCell id="QaU9Emd1L0k_uGMCEZLj-5" value="Private subnet" style="points=[[0,0],[0.25,0],[0.5,0],[0.75,0],[1,0],[1,0.25],[1,0.5],[1,0.75],[1,1],[0.75,1],[0.5,1],[0.25,1],[0,1],[0,0.75],[0,0.5],[0,0.25]];outlineConnect=0;gradientColor=none;html=1;whiteSpace=wrap;fontSize=12;fontStyle=0;shape=mxgraph.aws4.group;grIcon=mxgraph.aws4.group_security_group;grStroke=0;strokeColor=#147EBA;fillColor=#E6F2F8;verticalAlign=top;align=left;spacingLeft=30;fontColor=#147EBA;dashed=0;rounded=0;" parent="1" vertex="1">
          <mxGeometry x="17760" y="-80" width="420" height="575" as="geometry" />
        </mxCell>
        <mxCell id="QaU9Emd1L0k_uGMCEZLj-6" value="Public subnet" style="points=[[0,0],[0.25,0],[0.5,0],[0.75,0],[1,0],[1,0.25],[1,0.5],[1,0.75],[1,1],[0.75,1],[0.5,1],[0.25,1],[0,1],[0,0.75],[0,0.5],[0,0.25]];outlineConnect=0;gradientColor=none;html=1;whiteSpace=wrap;fontSize=12;fontStyle=0;shape=mxgraph.aws4.group;grIcon=mxgraph.aws4.group_security_group;grStroke=0;strokeColor=#248814;fillColor=#E9F3E6;verticalAlign=top;align=left;spacingLeft=30;fontColor=#248814;dashed=0;rounded=0;" parent="1" vertex="1">
          <mxGeometry x="17270" y="-80" width="430" height="575" as="geometry" />
        </mxCell>
        <mxCell id="QaU9Emd1L0k_uGMCEZLj-7" value="Production System Design" style="text;html=1;strokeColor=none;fillColor=none;align=center;verticalAlign=middle;whiteSpace=wrap;rounded=0;fontSize=40;" parent="1" vertex="1">
          <mxGeometry x="17340" y="-210" width="790" height="40" as="geometry" />
        </mxCell>
        <mxCell id="QaU9Emd1L0k_uGMCEZLj-12" value="" style="points=[[0,0,0],[0.25,0,0],[0.5,0,0],[0.75,0,0],[1,0,0],[0,1,0],[0.25,1,0],[0.5,1,0],[0.75,1,0],[1,1,0],[0,0.25,0],[0,0.5,0],[0,0.75,0],[1,0.25,0],[1,0.5,0],[1,0.75,0]];outlineConnect=0;fontColor=#232F3E;gradientColor=#945DF2;gradientDirection=north;fillColor=#5A30B5;strokeColor=#ffffff;dashed=0;verticalLabelPosition=bottom;verticalAlign=top;align=center;html=1;fontSize=12;fontStyle=0;aspect=fixed;shape=mxgraph.aws4.resourceIcon;resIcon=mxgraph.aws4.cloudfront;rounded=0;" parent="1" vertex="1">
          <mxGeometry x="16315.14" y="470" width="310" height="310" as="geometry" />
        </mxCell>
        <mxCell id="QaU9Emd1L0k_uGMCEZLj-15" value="" style="points=[[0,0,0],[0.25,0,0],[0.5,0,0],[0.75,0,0],[1,0,0],[0,1,0],[0.25,1,0],[0.5,1,0],[0.75,1,0],[1,1,0],[0,0.25,0],[0,0.5,0],[0,0.75,0],[1,0.25,0],[1,0.5,0],[1,0.75,0]];points=[[0,0,0],[0.25,0,0],[0.5,0,0],[0.75,0,0],[1,0,0],[0,1,0],[0.25,1,0],[0.5,1,0],[0.75,1,0],[1,1,0],[0,0.25,0],[0,0.5,0],[0,0.75,0],[1,0.25,0],[1,0.5,0],[1,0.75,0]];outlineConnect=0;fontColor=#232F3E;gradientColor=#F34482;gradientDirection=north;fillColor=#BC1356;strokeColor=#ffffff;dashed=0;verticalLabelPosition=bottom;verticalAlign=top;align=center;html=1;fontSize=12;fontStyle=0;aspect=fixed;shape=mxgraph.aws4.resourceIcon;resIcon=mxgraph.aws4.cloudwatch_2;rounded=0;" parent="1" vertex="1">
          <mxGeometry x="16740" y="841" width="289" height="289" as="geometry" />
        </mxCell>
        <mxCell id="QaU9Emd1L0k_uGMCEZLj-24" value="&lt;h1&gt;&lt;font style=&quot;font-size: 120px&quot;&gt;Development System Design - v1&lt;/font&gt;&lt;/h1&gt;" style="text;html=1;strokeColor=none;fillColor=none;align=center;verticalAlign=middle;whiteSpace=wrap;rounded=0;fontSize=40;" parent="1" vertex="1">
          <mxGeometry x="7050" y="-750" width="1560" height="310" as="geometry" />
        </mxCell>
        <mxCell id="QaU9Emd1L0k_uGMCEZLj-97" style="edgeStyle=orthogonalEdgeStyle;rounded=0;orthogonalLoop=1;jettySize=auto;html=1;entryX=0.5;entryY=1;entryDx=0;entryDy=0;entryPerimeter=0;fontSize=40;startArrow=classic;startFill=1;" parent="1" source="QaU9Emd1L0k_uGMCEZLj-27" target="QaU9Emd1L0k_uGMCEZLj-25" edge="1">
          <mxGeometry relative="1" as="geometry">
            <Array as="points">
              <mxPoint x="8320" y="138" />
            </Array>
          </mxGeometry>
        </mxCell>
        <mxCell id="QaU9Emd1L0k_uGMCEZLj-27" value="" style="points=[[0,0,0],[0.25,0,0],[0.5,0,0],[0.75,0,0],[1,0,0],[0,1,0],[0.25,1,0],[0.5,1,0],[0.75,1,0],[1,1,0],[0,0.25,0],[0,0.5,0],[0,0.75,0],[1,0.25,0],[1,0.5,0],[1,0.75,0]];outlineConnect=0;fontColor=#232F3E;gradientColor=#945DF2;gradientDirection=north;fillColor=#5A30B5;strokeColor=#ffffff;dashed=0;verticalLabelPosition=bottom;verticalAlign=top;align=center;html=1;fontSize=12;fontStyle=0;aspect=fixed;shape=mxgraph.aws4.resourceIcon;resIcon=mxgraph.aws4.route_53;rounded=0;" parent="1" vertex="1">
          <mxGeometry x="8290" y="310" width="78" height="78" as="geometry" />
        </mxCell>
        <mxCell id="QaU9Emd1L0k_uGMCEZLj-33" value="" style="points=[[0,0,0],[0.25,0,0],[0.5,0,0],[0.75,0,0],[1,0,0],[0,1,0],[0.25,1,0],[0.5,1,0],[0.75,1,0],[1,1,0],[0,0.25,0],[0,0.5,0],[0,0.75,0],[1,0.25,0],[1,0.5,0],[1,0.75,0]];outlineConnect=0;fontColor=#232F3E;gradientColor=#4D72F3;gradientDirection=north;fillColor=#3334B9;strokeColor=#ffffff;dashed=0;verticalLabelPosition=bottom;verticalAlign=top;align=center;html=1;fontSize=12;fontStyle=0;aspect=fixed;shape=mxgraph.aws4.resourceIcon;resIcon=mxgraph.aws4.rds;rounded=0;" parent="1" vertex="1">
          <mxGeometry x="16320" y="108" width="305.14" height="305.14" as="geometry" />
        </mxCell>
        <mxCell id="QaU9Emd1L0k_uGMCEZLj-42" value="" style="shape=image;verticalLabelPosition=bottom;labelBackgroundColor=#ffffff;verticalAlign=top;aspect=fixed;imageAspect=0;image=https://www.terraform.io/docs/cloud/vcs/images/tfe_logo-c7548f8d.png;" parent="1" vertex="1">
          <mxGeometry x="7550" y="-166.14" width="76" height="76" as="geometry" />
        </mxCell>
        <mxCell id="QaU9Emd1L0k_uGMCEZLj-96" style="edgeStyle=orthogonalEdgeStyle;rounded=0;orthogonalLoop=1;jettySize=auto;html=1;fontSize=40;startArrow=classic;startFill=1;entryX=1;entryY=0.5;entryDx=0;entryDy=0;entryPerimeter=0;" parent="1" source="QaU9Emd1L0k_uGMCEZLj-204" target="QaU9Emd1L0k_uGMCEZLj-27" edge="1">
          <mxGeometry relative="1" as="geometry">
            <mxPoint x="8650" y="360.5" as="sourcePoint" />
          </mxGeometry>
        </mxCell>
        <mxCell id="QaU9Emd1L0k_uGMCEZLj-211" style="edgeStyle=none;rounded=0;orthogonalLoop=1;jettySize=auto;html=1;entryX=0;entryY=0.5;entryDx=0;entryDy=0;entryPerimeter=0;startArrow=none;startFill=0;endArrow=classic;endFill=1;fontFamily=Courier New;fontSize=16;fontColor=#FFFFFF;" parent="1" source="QaU9Emd1L0k_uGMCEZLj-94" target="QaU9Emd1L0k_uGMCEZLj-27" edge="1">
          <mxGeometry relative="1" as="geometry" />
        </mxCell>
        <mxCell id="QaU9Emd1L0k_uGMCEZLj-94" value="" style="aspect=fixed;pointerEvents=1;shadow=0;dashed=0;html=1;strokeColor=none;labelPosition=center;verticalLabelPosition=bottom;verticalAlign=top;align=center;fillColor=#00188D;shape=mxgraph.mscae.enterprise.workstation_client;rounded=0;fontSize=40;" parent="1" vertex="1">
          <mxGeometry x="7460" y="259" width="181" height="181" as="geometry" />
        </mxCell>
        <mxCell id="QaU9Emd1L0k_uGMCEZLj-98" value="" style="group" parent="1" vertex="1" connectable="0">
          <mxGeometry x="8280" y="-60" width="347.12" height="198" as="geometry" />
        </mxCell>
        <mxCell id="QaU9Emd1L0k_uGMCEZLj-95" value="" style="rounded=0;whiteSpace=wrap;html=1;strokeWidth=4;fontSize=40;align=center;fillColor=#d5e8d4;strokeColor=#82b366;" parent="QaU9Emd1L0k_uGMCEZLj-98" vertex="1">
          <mxGeometry x="40" width="260" height="160" as="geometry" />
        </mxCell>
        <mxCell id="QaU9Emd1L0k_uGMCEZLj-25" value="" style="points=[[0,0,0],[0.25,0,0],[0.5,0,0],[0.75,0,0],[1,0,0],[0,1,0],[0.25,1,0],[0.5,1,0],[0.75,1,0],[1,1,0],[0,0.25,0],[0,0.5,0],[0,0.75,0],[1,0.25,0],[1,0.5,0],[1,0.75,0]];outlineConnect=0;fontColor=#232F3E;gradientColor=#60A337;gradientDirection=north;fillColor=#277116;strokeColor=#ffffff;dashed=0;verticalLabelPosition=bottom;verticalAlign=top;align=center;html=1;fontSize=12;fontStyle=0;aspect=fixed;shape=mxgraph.aws4.resourceIcon;resIcon=mxgraph.aws4.s3;rounded=0;" parent="QaU9Emd1L0k_uGMCEZLj-98" vertex="1">
          <mxGeometry y="120" width="78" height="78" as="geometry" />
        </mxCell>
        <mxCell id="QaU9Emd1L0k_uGMCEZLj-49" value="" style="shape=image;html=1;verticalAlign=top;verticalLabelPosition=bottom;labelBackgroundColor=#ffffff;imageAspect=0;aspect=fixed;image=https://cdn4.iconfinder.com/data/icons/logos-3/600/React.js_logo-128.png;rounded=0;strokeWidth=4;fontSize=40;align=center;" parent="QaU9Emd1L0k_uGMCEZLj-98" vertex="1">
          <mxGeometry x="90" y="30" width="90" height="90" as="geometry" />
        </mxCell>
        <mxCell id="QaU9Emd1L0k_uGMCEZLj-52" value="" style="shape=image;verticalLabelPosition=bottom;labelBackgroundColor=#ffffff;verticalAlign=top;aspect=fixed;imageAspect=0;image=https://mdn.mozillademos.org/files/16742/pwa.png;" parent="QaU9Emd1L0k_uGMCEZLj-98" vertex="1">
          <mxGeometry x="190" y="39.08" width="66.12" height="24.92" as="geometry" />
        </mxCell>
        <mxCell id="QaU9Emd1L0k_uGMCEZLj-53" value="" style="shape=image;verticalLabelPosition=bottom;labelBackgroundColor=#ffffff;verticalAlign=top;aspect=fixed;imageAspect=0;image=https://everyday.codes/wp-content/uploads/2020/01/0-U2DmhXYumRyXH6X1.png;" parent="QaU9Emd1L0k_uGMCEZLj-98" vertex="1">
          <mxGeometry x="180" y="80" width="40" height="36.16" as="geometry" />
        </mxCell>
        <mxCell id="QaU9Emd1L0k_uGMCEZLj-122" value="" style="shape=image;verticalLabelPosition=bottom;labelBackgroundColor=#ffffff;verticalAlign=top;aspect=fixed;imageAspect=0;image=https://dimitr.im/static/b876b338c35d14291bff2641e50262b6/ff9b8/apollo.png;" parent="QaU9Emd1L0k_uGMCEZLj-98" vertex="1">
          <mxGeometry x="230" y="80" width="40" height="40" as="geometry" />
        </mxCell>
        <mxCell id="QaU9Emd1L0k_uGMCEZLj-114" value="" style="group" parent="1" vertex="1" connectable="0">
          <mxGeometry x="7170" y="-170" width="230" height="70" as="geometry" />
        </mxCell>
        <mxCell id="QaU9Emd1L0k_uGMCEZLj-112" value="Terraform acts as infrastructure as code and works directly with AWS" style="rounded=1;whiteSpace=wrap;html=1;strokeWidth=2;fillColor=#FFFFFF;fontSize=12;align=center;" parent="QaU9Emd1L0k_uGMCEZLj-114" vertex="1">
          <mxGeometry x="20.294117647058826" y="16.333333333333336" width="209.7058823529412" height="53.66666666666667" as="geometry" />
        </mxCell>
        <mxCell id="QaU9Emd1L0k_uGMCEZLj-113" value="1" style="ellipse;whiteSpace=wrap;html=1;aspect=fixed;rounded=0;strokeWidth=2;fontSize=16;align=center;fontColor=#FFFFFF;fillColor=#000000;fontFamily=Courier New;" parent="QaU9Emd1L0k_uGMCEZLj-114" vertex="1">
          <mxGeometry width="32.85714285714286" height="32.85714285714286" as="geometry" />
        </mxCell>
        <mxCell id="QaU9Emd1L0k_uGMCEZLj-116" style="edgeStyle=orthogonalEdgeStyle;rounded=0;orthogonalLoop=1;jettySize=auto;html=1;entryX=0.5;entryY=0;entryDx=0;entryDy=0;startArrow=classic;startFill=1;fontFamily=Courier New;fontSize=16;fontColor=#FFFFFF;curved=1;endArrow=none;endFill=0;" parent="1" source="QaU9Emd1L0k_uGMCEZLj-115" target="QaU9Emd1L0k_uGMCEZLj-42" edge="1">
          <mxGeometry relative="1" as="geometry">
            <Array as="points">
              <mxPoint x="7480" y="-210.14" />
              <mxPoint x="7588" y="-210.14" />
            </Array>
          </mxGeometry>
        </mxCell>
        <mxCell id="QaU9Emd1L0k_uGMCEZLj-117" style="edgeStyle=orthogonalEdgeStyle;curved=1;rounded=0;orthogonalLoop=1;jettySize=auto;html=1;entryX=0.5;entryY=1;entryDx=0;entryDy=0;startArrow=none;startFill=0;fontFamily=Courier New;fontSize=16;fontColor=#FFFFFF;" parent="1" source="QaU9Emd1L0k_uGMCEZLj-115" target="QaU9Emd1L0k_uGMCEZLj-42" edge="1">
          <mxGeometry relative="1" as="geometry">
            <Array as="points">
              <mxPoint x="7480" y="-50.14" />
              <mxPoint x="7588" y="-50.14" />
            </Array>
          </mxGeometry>
        </mxCell>
        <mxCell id="QaU9Emd1L0k_uGMCEZLj-115" value="" style="outlineConnect=0;dashed=0;verticalLabelPosition=bottom;verticalAlign=top;align=center;html=1;shape=mxgraph.aws3.cloud_2;fillColor=#F58534;gradientColor=none;rounded=0;strokeWidth=2;fontFamily=Courier New;fontSize=16;fontColor=#FFFFFF;" parent="1" vertex="1">
          <mxGeometry x="7440" y="-166.14" width="80" height="76" as="geometry" />
        </mxCell>
        <mxCell id="QaU9Emd1L0k_uGMCEZLj-119" value="" style="group" parent="1" vertex="1" connectable="0">
          <mxGeometry x="7980" y="-36.14" width="250" height="76" as="geometry" />
        </mxCell>
        <mxCell id="QaU9Emd1L0k_uGMCEZLj-120" value="Frontend is a PWA made primarily with React, Redux and Apollo" style="rounded=1;whiteSpace=wrap;html=1;strokeWidth=2;fillColor=#FFFFFF;fontSize=12;align=center;" parent="QaU9Emd1L0k_uGMCEZLj-119" vertex="1">
          <mxGeometry x="15" y="14" width="235" height="62" as="geometry" />
        </mxCell>
        <mxCell id="QaU9Emd1L0k_uGMCEZLj-121" value="4" style="ellipse;whiteSpace=wrap;html=1;aspect=fixed;rounded=0;strokeWidth=2;fontSize=16;align=center;fontColor=#FFFFFF;fillColor=#000000;fontFamily=Courier New;" parent="QaU9Emd1L0k_uGMCEZLj-119" vertex="1">
          <mxGeometry width="30" height="30" as="geometry" />
        </mxCell>
        <mxCell id="QaU9Emd1L0k_uGMCEZLj-124" value="" style="dashed=0;outlineConnect=0;html=1;align=center;labelPosition=center;verticalLabelPosition=bottom;verticalAlign=top;shape=mxgraph.weblogos.github;rounded=0;strokeWidth=2;fillColor=#000000;fontFamily=Courier New;fontSize=16;fontColor=#FFFFFF;" parent="1" vertex="1">
          <mxGeometry x="7480" y="4.860000000000014" width="110" height="110" as="geometry" />
        </mxCell>
        <mxCell id="QaU9Emd1L0k_uGMCEZLj-125" value="" style="group" parent="1" vertex="1" connectable="0">
          <mxGeometry x="7180" y="4.860000000000014" width="230" height="70" as="geometry" />
        </mxCell>
        <mxCell id="QaU9Emd1L0k_uGMCEZLj-126" value="Github acts as the remote repo for Version Control System" style="rounded=1;whiteSpace=wrap;html=1;strokeWidth=2;fillColor=#FFFFFF;fontSize=12;align=center;" parent="QaU9Emd1L0k_uGMCEZLj-125" vertex="1">
          <mxGeometry x="20.294117647058826" y="16.333333333333336" width="209.7058823529412" height="53.66666666666667" as="geometry" />
        </mxCell>
        <mxCell id="QaU9Emd1L0k_uGMCEZLj-127" value="2" style="ellipse;whiteSpace=wrap;html=1;aspect=fixed;rounded=0;strokeWidth=2;fontSize=16;align=center;fontColor=#FFFFFF;fillColor=#000000;fontFamily=Courier New;" parent="QaU9Emd1L0k_uGMCEZLj-125" vertex="1">
          <mxGeometry width="32.85714285714286" height="32.85714285714286" as="geometry" />
        </mxCell>
        <mxCell id="QaU9Emd1L0k_uGMCEZLj-138" value="" style="group" parent="1" vertex="1" connectable="0">
          <mxGeometry x="8000" y="259" width="250" height="76" as="geometry" />
        </mxCell>
        <mxCell id="QaU9Emd1L0k_uGMCEZLj-100" value="&amp;nbsp; &amp;nbsp;Route 53 acts as a managed DNS service, redirecting to the frontend or the main backend" style="rounded=1;whiteSpace=wrap;html=1;strokeWidth=2;fillColor=#FFFFFF;fontSize=12;align=center;" parent="QaU9Emd1L0k_uGMCEZLj-138" vertex="1">
          <mxGeometry x="15" y="14" width="235" height="62" as="geometry" />
        </mxCell>
        <mxCell id="QaU9Emd1L0k_uGMCEZLj-101" value="3" style="ellipse;whiteSpace=wrap;html=1;aspect=fixed;rounded=0;strokeWidth=2;fontSize=16;align=center;fontColor=#FFFFFF;fillColor=#000000;fontFamily=Courier New;" parent="QaU9Emd1L0k_uGMCEZLj-138" vertex="1">
          <mxGeometry width="30" height="30" as="geometry" />
        </mxCell>
        <mxCell id="QaU9Emd1L0k_uGMCEZLj-201" value="" style="group" parent="1" vertex="1" connectable="0">
          <mxGeometry x="9360" y="-370" width="1600" height="1378" as="geometry" />
        </mxCell>
        <mxCell id="QaU9Emd1L0k_uGMCEZLj-161" value="" style="rounded=0;whiteSpace=wrap;html=1;strokeColor=#b85450;strokeWidth=4;fillColor=#f8cecc;fontFamily=Courier New;fontSize=16;align=center;" parent="QaU9Emd1L0k_uGMCEZLj-201" vertex="1">
          <mxGeometry x="30" y="38" width="1010" height="1340" as="geometry" />
        </mxCell>
        <mxCell id="QaU9Emd1L0k_uGMCEZLj-158" value="" style="group" parent="QaU9Emd1L0k_uGMCEZLj-201" vertex="1" connectable="0">
          <mxGeometry x="110" y="88" width="1490" height="839.2" as="geometry" />
        </mxCell>
        <mxCell id="QaU9Emd1L0k_uGMCEZLj-64" value="" style="rounded=0;whiteSpace=wrap;html=1;strokeWidth=4;fontSize=40;align=center;fillColor=#ffe6cc;strokeColor=#d79b00;" parent="QaU9Emd1L0k_uGMCEZLj-158" vertex="1">
          <mxGeometry x="32.59" y="30.59" width="817.41" height="808.61" as="geometry" />
        </mxCell>
        <mxCell id="QaU9Emd1L0k_uGMCEZLj-139" value="" style="rounded=0;whiteSpace=wrap;html=1;strokeWidth=2;fillColor=#e1d5e7;fontFamily=Courier New;fontSize=16;align=center;strokeColor=#9673a6;" parent="QaU9Emd1L0k_uGMCEZLj-158" vertex="1">
          <mxGeometry x="120" y="109.9" width="680" height="650" as="geometry" />
        </mxCell>
        <mxCell id="QaU9Emd1L0k_uGMCEZLj-63" value="" style="points=[[0,0,0],[0.25,0,0],[0.5,0,0],[0.75,0,0],[1,0,0],[0,1,0],[0.25,1,0],[0.5,1,0],[0.75,1,0],[1,1,0],[0,0.25,0],[0,0.5,0],[0,0.75,0],[1,0.25,0],[1,0.5,0],[1,0.75,0]];outlineConnect=0;fontColor=#232F3E;gradientColor=#F78E04;gradientDirection=north;fillColor=#D05C17;strokeColor=#ffffff;dashed=0;verticalLabelPosition=bottom;verticalAlign=top;align=center;html=1;fontSize=12;fontStyle=0;aspect=fixed;shape=mxgraph.aws4.resourceIcon;resIcon=mxgraph.aws4.ec2;rounded=0;" parent="QaU9Emd1L0k_uGMCEZLj-158" vertex="1">
          <mxGeometry width="73.29963235294117" height="73.29963235294117" as="geometry" />
        </mxCell>
        <mxCell id="QaU9Emd1L0k_uGMCEZLj-76" value="" style="group" parent="QaU9Emd1L0k_uGMCEZLj-158" vertex="1" connectable="0">
          <mxGeometry x="200" y="319.2" width="530" height="343.6" as="geometry" />
        </mxCell>
        <mxCell id="QaU9Emd1L0k_uGMCEZLj-67" value="" style="rounded=0;whiteSpace=wrap;html=1;strokeWidth=4;fontSize=40;align=center;fillColor=#dae8fc;strokeColor=#6c8ebf;" parent="QaU9Emd1L0k_uGMCEZLj-76" vertex="1">
          <mxGeometry x="7.841176470588193" y="17.76451764705883" width="92.15882352941178" height="83.03548235294117" as="geometry" />
        </mxCell>
        <mxCell id="QaU9Emd1L0k_uGMCEZLj-51" value="" style="shape=image;html=1;verticalAlign=top;verticalLabelPosition=bottom;labelBackgroundColor=#ffffff;imageAspect=0;aspect=fixed;image=https://cdn4.iconfinder.com/data/icons/logos-brands-5/24/nginx-128.png;rounded=0;strokeWidth=4;fontSize=40;align=center;" parent="QaU9Emd1L0k_uGMCEZLj-76" vertex="1">
          <mxGeometry x="28.035294117646977" y="33.192847058823524" width="51.76470588235295" height="51.76470588235295" as="geometry" />
        </mxCell>
        <mxCell id="QaU9Emd1L0k_uGMCEZLj-68" value="" style="shape=image;html=1;verticalAlign=top;verticalLabelPosition=bottom;labelBackgroundColor=#ffffff;imageAspect=0;aspect=fixed;image=https://cdn3.iconfinder.com/data/icons/social-media-2169/24/social_media_social_media_logo_docker-128.png;rounded=0;strokeWidth=4;fontSize=40;align=center;" parent="QaU9Emd1L0k_uGMCEZLj-76" vertex="1">
          <mxGeometry width="36.47058823529412" height="36.47058823529412" as="geometry" />
        </mxCell>
        <mxCell id="QaU9Emd1L0k_uGMCEZLj-157" value="" style="rounded=0;whiteSpace=wrap;html=1;strokeWidth=4;fontFamily=Courier New;fontSize=16;fontColor=#FFFFFF;align=center;strokeColor=#999999;fillColor=none;dashed=1;" parent="QaU9Emd1L0k_uGMCEZLj-76" vertex="1">
          <mxGeometry x="140" y="-27.2" width="390" height="370.8" as="geometry" />
        </mxCell>
        <mxCell id="QaU9Emd1L0k_uGMCEZLj-74" value="" style="group" parent="QaU9Emd1L0k_uGMCEZLj-76" vertex="1" connectable="0">
          <mxGeometry x="183.77" y="172.80000000000007" width="137.03" height="130.8" as="geometry" />
        </mxCell>
        <mxCell id="QaU9Emd1L0k_uGMCEZLj-69" value="" style="rounded=0;whiteSpace=wrap;html=1;strokeWidth=4;fontSize=40;align=center;fillColor=#dae8fc;strokeColor=#6c8ebf;" parent="QaU9Emd1L0k_uGMCEZLj-74" vertex="1">
          <mxGeometry x="12.457272727272727" y="21.152228571428562" width="124.57272727272728" height="109.64777142857145" as="geometry" />
        </mxCell>
        <mxCell id="QaU9Emd1L0k_uGMCEZLj-57" value="" style="shape=image;html=1;verticalAlign=top;verticalLabelPosition=bottom;labelBackgroundColor=#ffffff;imageAspect=0;aspect=fixed;image=https://cdn4.iconfinder.com/data/icons/logos-brands-5/24/elasticsearch-128.png;rounded=0;strokeWidth=4;fontSize=40;align=center;" parent="QaU9Emd1L0k_uGMCEZLj-74" vertex="1">
          <mxGeometry x="56.05772727272728" y="31.14285714285715" width="36.125714285714295" height="36.125714285714295" as="geometry" />
        </mxCell>
        <mxCell id="QaU9Emd1L0k_uGMCEZLj-58" value="" style="shape=image;html=1;verticalAlign=top;verticalLabelPosition=bottom;labelBackgroundColor=#ffffff;imageAspect=0;aspect=fixed;image=https://cdn4.iconfinder.com/data/icons/logos-brands-5/24/logstash-128.png;rounded=0;strokeWidth=4;fontSize=40;align=center;" parent="QaU9Emd1L0k_uGMCEZLj-74" vertex="1">
          <mxGeometry x="31.14318181818182" y="81.46971428571432" width="37.37142857142858" height="37.37142857142858" as="geometry" />
        </mxCell>
        <mxCell id="QaU9Emd1L0k_uGMCEZLj-59" value="" style="shape=image;html=1;verticalAlign=top;verticalLabelPosition=bottom;labelBackgroundColor=#ffffff;imageAspect=0;aspect=fixed;image=https://cdn4.iconfinder.com/data/icons/logos-brands-5/24/kibana-128.png;rounded=0;strokeWidth=4;fontSize=40;align=center;" parent="QaU9Emd1L0k_uGMCEZLj-74" vertex="1">
          <mxGeometry x="88.11029000000002" y="81.46971428571432" width="36.87314285714287" height="36.87314285714287" as="geometry" />
        </mxCell>
        <mxCell id="QaU9Emd1L0k_uGMCEZLj-70" value="" style="shape=image;html=1;verticalAlign=top;verticalLabelPosition=bottom;labelBackgroundColor=#ffffff;imageAspect=0;aspect=fixed;image=https://cdn3.iconfinder.com/data/icons/social-media-2169/24/social_media_social_media_logo_docker-128.png;rounded=0;strokeWidth=4;fontSize=40;align=center;" parent="QaU9Emd1L0k_uGMCEZLj-74" vertex="1">
          <mxGeometry width="38.617142857142866" height="38.617142857142866" as="geometry" />
        </mxCell>
        <mxCell id="QaU9Emd1L0k_uGMCEZLj-155" style="edgeStyle=none;rounded=0;orthogonalLoop=1;jettySize=auto;html=1;entryX=0;entryY=0.5;entryDx=0;entryDy=0;startArrow=none;startFill=0;endArrow=classic;endFill=1;fontFamily=Courier New;fontSize=16;fontColor=#FFFFFF;" parent="QaU9Emd1L0k_uGMCEZLj-76" source="QaU9Emd1L0k_uGMCEZLj-67" target="QaU9Emd1L0k_uGMCEZLj-69" edge="1">
          <mxGeometry relative="1" as="geometry" />
        </mxCell>
        <mxCell id="QaU9Emd1L0k_uGMCEZLj-91" value="" style="group" parent="QaU9Emd1L0k_uGMCEZLj-76" vertex="1" connectable="0">
          <mxGeometry x="203" y="-7.2" width="110.8" height="110.8" as="geometry" />
        </mxCell>
        <mxCell id="QaU9Emd1L0k_uGMCEZLj-84" value="" style="rounded=0;whiteSpace=wrap;html=1;strokeWidth=4;fontSize=40;align=center;fillColor=#dae8fc;strokeColor=#6c8ebf;" parent="QaU9Emd1L0k_uGMCEZLj-91" vertex="1">
          <mxGeometry x="8.688023529411717" y="19.526870588235315" width="102.11197647058822" height="91.2731294117647" as="geometry" />
        </mxCell>
        <mxCell id="QaU9Emd1L0k_uGMCEZLj-85" value="" style="shape=image;html=1;verticalAlign=top;verticalLabelPosition=bottom;labelBackgroundColor=#ffffff;imageAspect=0;aspect=fixed;image=https://cdn3.iconfinder.com/data/icons/social-media-2169/24/social_media_social_media_logo_docker-128.png;rounded=0;strokeWidth=4;fontSize=40;align=center;" parent="QaU9Emd1L0k_uGMCEZLj-91" vertex="1">
          <mxGeometry width="40.40941176470588" height="40.40941176470588" as="geometry" />
        </mxCell>
        <mxCell id="QaU9Emd1L0k_uGMCEZLj-88" value="" style="shape=image;verticalLabelPosition=bottom;labelBackgroundColor=#ffffff;verticalAlign=top;aspect=fixed;imageAspect=0;image=https://ww1.prweb.com/prfiles/2018/07/11/15619933/HasuraMiniLogo.png;" parent="QaU9Emd1L0k_uGMCEZLj-91" vertex="1">
          <mxGeometry x="23.880658823529625" y="29.303341176470575" width="71.72018823529412" height="71.72018823529412" as="geometry" />
        </mxCell>
        <mxCell id="QaU9Emd1L0k_uGMCEZLj-154" style="edgeStyle=none;rounded=0;orthogonalLoop=1;jettySize=auto;html=1;startArrow=none;startFill=0;endArrow=classic;endFill=1;fontFamily=Courier New;fontSize=16;fontColor=#FFFFFF;" parent="QaU9Emd1L0k_uGMCEZLj-76" source="QaU9Emd1L0k_uGMCEZLj-67" target="QaU9Emd1L0k_uGMCEZLj-84" edge="1">
          <mxGeometry relative="1" as="geometry" />
        </mxCell>
        <mxCell id="QaU9Emd1L0k_uGMCEZLj-90" value="" style="group" parent="QaU9Emd1L0k_uGMCEZLj-76" vertex="1" connectable="0">
          <mxGeometry x="390" y="187.80000000000007" width="100.8" height="100.8" as="geometry" />
        </mxCell>
        <mxCell id="QaU9Emd1L0k_uGMCEZLj-78" value="" style="rounded=0;whiteSpace=wrap;html=1;strokeWidth=4;fontSize=40;align=center;fillColor=#dae8fc;strokeColor=#6c8ebf;" parent="QaU9Emd1L0k_uGMCEZLj-90" vertex="1">
          <mxGeometry x="7.903905882352897" y="17.764517647058845" width="92.89609411764704" height="83.03548235294116" as="geometry" />
        </mxCell>
        <mxCell id="QaU9Emd1L0k_uGMCEZLj-79" value="" style="shape=image;html=1;verticalAlign=top;verticalLabelPosition=bottom;labelBackgroundColor=#ffffff;imageAspect=0;aspect=fixed;image=https://cdn3.iconfinder.com/data/icons/social-media-2169/24/social_media_social_media_logo_docker-128.png;rounded=0;strokeWidth=4;fontSize=40;align=center;" parent="QaU9Emd1L0k_uGMCEZLj-90" vertex="1">
          <mxGeometry width="36.76235294117647" height="36.76235294117647" as="geometry" />
        </mxCell>
        <mxCell id="QaU9Emd1L0k_uGMCEZLj-89" value="" style="shape=image;verticalLabelPosition=bottom;labelBackgroundColor=#ffffff;verticalAlign=top;aspect=fixed;imageAspect=0;image=https://upload.wikimedia.org/wikipedia/commons/2/29/Postgresql_elephant.svg;" parent="QaU9Emd1L0k_uGMCEZLj-90" vertex="1">
          <mxGeometry x="29.64705882352941" y="36.17534117647058" width="48.26541176470588" height="49.8011294117647" as="geometry" />
        </mxCell>
        <mxCell id="QaU9Emd1L0k_uGMCEZLj-209" style="edgeStyle=none;rounded=0;orthogonalLoop=1;jettySize=auto;html=1;entryX=0.5;entryY=0;entryDx=0;entryDy=0;startArrow=none;startFill=0;endArrow=classic;endFill=1;fontFamily=Courier New;fontSize=16;fontColor=#FFFFFF;" parent="QaU9Emd1L0k_uGMCEZLj-76" target="QaU9Emd1L0k_uGMCEZLj-78" edge="1">
          <mxGeometry relative="1" as="geometry">
            <mxPoint x="320" y="102.80000000000001" as="sourcePoint" />
          </mxGeometry>
        </mxCell>
        <mxCell id="QaU9Emd1L0k_uGMCEZLj-232" value="" style="group" parent="QaU9Emd1L0k_uGMCEZLj-76" vertex="1" connectable="0">
          <mxGeometry x="300.8" y="-9.46" width="190" height="45.93" as="geometry" />
        </mxCell>
        <mxCell id="QaU9Emd1L0k_uGMCEZLj-233" value="Hasura acts as an automatic GraphQL API&lt;span style=&quot;color: rgba(0 , 0 , 0 , 0) ; font-family: monospace ; font-size: 0px&quot;&gt;%3CmxGraphModel%3E%3Croot%3E%3CmxCell%20id%3D%220%22%2F%3E%3CmxCell%20id%3D%221%22%20parent%3D%220%22%2F%3E%3CmxCell%20id%3D%222%22%20value%3D%22%22%20style%3D%22group%22%20vertex%3D%221%22%20connectable%3D%220%22%20parent%3D%221%22%3E%3CmxGeometry%20x%3D%2210060%22%20y%3D%22-147.93%22%20width%3D%22190%22%20height%3D%2245.93%22%20as%3D%22geometry%22%2F%3E%3C%2FmxCell%3E%3CmxCell%20id%3D%223%22%20value%3D%22A%20simple%20NodeJS%20REST%20API%26amp%3Bnbsp%3B%22%20style%3D%22rounded%3D1%3BwhiteSpace%3Dwrap%3Bhtml%3D1%3BstrokeWidth%3D2%3BfillColor%3D%23FFFFFF%3BfontSize%3D12%3Balign%3Dcenter%3B%22%20vertex%3D%221%22%20parent%3D%222%22%3E%3CmxGeometry%20x%3D%2210.178571428571425%22%20y%3D%224.014622222222224%22%20width%3D%22179.82142857142858%22%20height%3D%2241.915377777777756%22%20as%3D%22geometry%22%2F%3E%3C%2FmxCell%3E%3CmxCell%20id%3D%224%22%20value%3D%226%22%20style%3D%22ellipse%3BwhiteSpace%3Dwrap%3Bhtml%3D1%3Baspect%3Dfixed%3Brounded%3D0%3BstrokeWidth%3D2%3BfontSize%3D16%3Balign%3Dcenter%3BfontColor%3D%23FFFFFF%3BfillColor%3D%23000000%3BfontFamily%3DCourier%20New%3B%22%20vertex%3D%221%22%20parent%3D%222%22%3E%3CmxGeometry%20x%3D%221%22%20y%3D%22-5.07%22%20width%3D%2220%22%20height%3D%2220%22%20as%3D%22geometry%22%2F%3E%3C%2FmxCell%3E%3C%2Froot%3E%3C%2FmxGraphModel%3E&lt;/span&gt;" style="rounded=1;whiteSpace=wrap;html=1;strokeWidth=2;fillColor=#FFFFFF;fontSize=12;align=center;" parent="QaU9Emd1L0k_uGMCEZLj-232" vertex="1">
          <mxGeometry x="10.178571428571425" y="4.014622222222224" width="179.82142857142858" height="41.915377777777756" as="geometry" />
        </mxCell>
        <mxCell id="QaU9Emd1L0k_uGMCEZLj-234" value="11" style="ellipse;whiteSpace=wrap;html=1;aspect=fixed;rounded=0;strokeWidth=2;fontSize=16;align=center;fontColor=#FFFFFF;fillColor=#000000;fontFamily=Courier New;" parent="QaU9Emd1L0k_uGMCEZLj-232" vertex="1">
          <mxGeometry x="1" y="-5.07" width="20" height="20" as="geometry" />
        </mxCell>
        <mxCell id="QaU9Emd1L0k_uGMCEZLj-141" value="" style="group" parent="QaU9Emd1L0k_uGMCEZLj-158" vertex="1" connectable="0">
          <mxGeometry x="80" y="49.200000000000045" width="1410" height="710" as="geometry" />
        </mxCell>
        <mxCell id="QaU9Emd1L0k_uGMCEZLj-137" value="" style="shape=image;verticalLabelPosition=bottom;labelBackgroundColor=#ffffff;verticalAlign=top;aspect=fixed;imageAspect=0;image=data:image/png,iVBORw0KGgoAAAANSUhEUgAAAPUAAAEsCAYAAAAb9/U2AAAABGdBTUEAALGPC/xhBQAAAAFzUkdCAK7OHOkAAAAgY0hSTQAAeiUAAICDAAD5/wAAgOkAAHUwAADqYAAAOpgAABdvkl/FRgAAAAZiS0dEAP8A/wD/oL2nkwAAAAlwSFlzAAAOnAAADpwBB5RT3QAAgABJREFUeNrsXXV4U+cXfuNSd6duFIpTpFhxZ7gzYPiQYRsbMtiwjQ3GYLi7OxSHIgWKFGhLS93d26Tx3x9p0qRN2ty0pd1+eZ/nPklu7v2uJO8933e+c95Dgg46/LdAIri9pKFPuKFvgA46NDRIat6rW6dqG4ma94qf/7Vk15Fah8aI6ohLquFV3TpFqCKuRGFBNa+NHjpS69CQINXwXvG1pnWakBxQTVZNFlX7NkpQG/oEdPjPgwhxK78qLqrWkWrYvvIxAfXWWQJAXL5IVLzK3qtrq9FAR2od6hKakra690QX8ooVK0y7dOniaGdnZ6uvr2/BZDLNGAyGJYVCYVOpVEMAZAqFoi8Wi8skEglfKBQWSyQSLpfLzSgtLU1JSEiI3rdv36dz586VQEpUESoIrriQUJXcjY7Yuu63DrWFJqRVZUXJarYhq1r3448/mvfp08fdxsbGxdDQ0JXNZjszGAwXOp1uTyKR2HVwHSIejxdVXFz8LDo6+u6YMWOeJScn8yEluIzklcmuqmve4NCRWgdtUR15yRquU1rv7+/PWLx4sZubm5uriYmJu76+vguDwXBlMBguZDLZ8EtenEgkys3Nzb1w+fLlg7NmzYqDlNBCKJNckdiKBG9Q6EitA1GoIjMZFeSs7j2JzWZTNm7caNu+fXtXKysrd319fVcWi+XKZDJdqFSqHRrff1JSUFBw5fz585tnzJgRCymxayJ3g6Kx3UAdGi9UWWWywkKp9Er++eefLYcOHdrG0tKyKZvN9mSxWO50Ot2ZRCKxGvpiiEIikfDT0tJ29uvXb2tYWBgHqsndaIitgw41QZHEVAB0AEwAbAAGAIwBmHXv3t0+NDR0Wn5+/lk+nx8n+Q+Cy+V+2LFjhx8Ai/Lr1i+/F3RUPNB0xlKHRg1FiywjNAvSP7MxALOVK1d6Z2Zm7hCJRHkNTbovAZFIlH///v2vAFgCMIGO2Dr8i6DKQsuss6menp5VbGzsCpFIVNLQRPvSEIvF3IcPH44FYAVlYtOgI7YOjRiqCG0IwGzw4MHOhYWFNxuaXA1N7Nu3b4+EemLrSK1Do4JaQvfp08e5tLT0eUOTqjFAKBQW7tixoyukXXFjAHoAGOX3TWetdWhUkHmyZWNoAwBmAGzy8vIuNTSZGhO4XO6nNm3auELqPDOC9AFIRwMRm1z7JnT4D0Jx+kpGbhoA2sePHyeYmJgMa+gTbExgMpleV65cWQopkWmQklnW/f7illoX+62DKlSeg6YCoC5evNimadOmqxv65DQBn89H0OPHCHkVgk8REUhKSkJhQQGEIhEMDAzg6+uLrt27oW+/fjAzM6v18ezs7GaeO3cucNSoUS9RNShFRuwvMn+t6+/rUBky60JBRfebDoCZkZGx2crKanxDn2B1kEgkOHv6DE6cPgcP33Zw9W4OcytbsPUNIBIKUVJUgOyMVKQmxOFz+DvERnxAx04dMHnKFPh36VKrY5eWlr7R19cfDqAMAA+AABUBKjKC1zt0pNahMhQjxGROMsaKFSuc169fH0Qikb5I747P5yM1NRVpqWnIy8tFXm4eqDQq/Pz84OburnKfoqIirFnzC2w9W6Fpq/YaHYdXxkVI0F3cvngCnu6u2LZ9O6ysrbU+76CgoNndunW7BimpeaiIPKucAFJv0JFaB0Wos9KshISEHxwdHefW5cFKSkoQHxeP2JgYxMfHISU5BSkp0iUzI0Ptfq6urvhq5AgMHz4cllZWAID09HT8/tcedB04CjQ6g/C58LgcnNn/F4qyUnD63FkYGRlpdU2lpaVh+vr6g1Bhrfn4wtZaR2odFFHZMUYHwDA0NNTPzs5+QqfTtTJhZWVliIqMRHh4OCIjPiE2NhbxcXHIyspS2o5uaAKmmTWYphZgmFiAYWgKuqGJdDEyhVjAR0H0ByTePgtBSSEoFAp6BASg/4ABOH/1FsbOXlbrG3Dl+F4UZybi2MkToFK165ScO3du1OjRo4Oh3A1XHGfXK3Sk1kERio4xGqTzrcybN2/26d+//wEiDaUkJ+P4sWN4/OgxYmNiQKIxwLKwAcvCFixzG+l7cxswza3BNLMCy8waZBpdo7aFnBJEn9+DxFsnIeLzAABNXDwwbckamJhb1vomHN2+AU3dHLBm7Vqt9s/Ozr5maWk5HwAXVa11vXfBdaTWQQbFrjetfGECYKWmpm60tbUdq2lDt27cxLJly+E5/UcYOnqCZWEDmr523dnqwM3JwOdT25H6+DokEjFodAZ6DR2DnkPHgKbhA0IVeFwONi6dgR9+WIYRI0cS3l8sFnNatGjRNiwsrBCqrXW9kppSn43r8K+C4jSWUvd7w4YNa8plgWpEQnwCpkycCF5ZGYqTomHdvif0bJrUywnT2Pqw9usJK7+e4GamoDg1HjER7/H6yX2YmFvC2k6741JpNJhb2WL75l/Qt19fmJqaEruRJBLN09Pz49GjR2NRYZ0VyawjtQ5fBIrjaVn3m75p0ybPbt26aewg+/WXdficzwfVzBZlKTFIeXgZEpEYpt6tQSLXT6wTw9gMdt0Gw7Rpa5QkxaAgNQHvgh8jPioc9s7uMDAyJtympa0Dwt+9woM7tzF69BiQCZ47k8nk/Pnnn/ehWgKpXqEjtQ4yVJ7KogFgbN68eZCNjU13TRooLi7GD8uWg96iB0wmrwXFyAL8uA/Iff8MGS/uwdDZCyxz7aeLagLbyh5Neo+Eno0jCuMikBH/Gc/v30RRfi4c3bxBZzAJtWduZYvr546DwaCjXXvNpshkoFKpzPXr159EhYhCZSGFeoOO1DrIoDiVJet601euXDnOyMjIR5MGrl+7hsBbt8DuOAQ0ew/QHDzB9hsIcUkBSiNDkPLgMngF2TBt2kZjpxjxqyDB0NEDjn3HgKZngILoj0iI/Ijg+zdAIpPQxMUTZIpmf3tTCytEvn+Nh3fvYMTIkdDX19f4NGg0msmLFy+OxMbGcqBa9qjeoCO1DkBVIQR50MnatWvnMRgMK00a2bL5NyQmJkK/+1hQTKUWmURngtm8CxhurcBPikD++2dIfXQVbEs76Nu71N8FUSgw8WyJJn1GQyIWITfqAyJDQxASdBcsPX3YNnEBiVSzn9jIxAwvH91BSUkJevbqRegUmEzm83PnziWhqp4ZUI/E1nm/dQCqplkyIPV864lEolAymVxjv1UkFKGlry+4HA6sfr4EipF5lW0kIiFKH55C8d2jkPDLYNWuB5rNWAmmmUbPjFqBm52GqJPbkfbkJiQSMaztHTFwzFT4tu9c474bl8xAXlYanr4IJuQ0e/HixcqOHTueBMBBxdSWohe8XqCz1DoAVZ1kVAD0sWPHWo8aNWqWJg2Eh4Xj+NGjINEYMBw8W/VByGTQXVqA3aYPRDkpKHz/BMl3z4NMpcHYvXm9OdIAgKZnAOsOvWDVrjs46cnIignHu+BH+BQaAhNzS5hb26rfWSLBxzfBsHdwgK+vr8bH5HA4MTt27HgOZYHCyp7wOocu9VIHQI3kb9u2bTWO5IiO/gwAoJjZ1rgtxdQapjN+g+nUXyFh6uPT0S14snQk8j69rfcLNXT2ht/P+9F+5W4YOnogMSYSuzaswNaVCxD1UfXx23bpCRKJhGtXrhA6FpvNtgSq6JzXO3Sk1kGGKkL7bm5uGveL4+PiAQBUMxuND8j07QbLH45Dv8c4FKfEIXjVFLzfsRL8ovx6v1iLVv7o8scF+M77BQxjcyREf8I/v36Pv9cuRVLcZ6VtWXr6sLZ3xJvXb1CQr/m5UalUOqoWMQDqmeA6UuugCiRIhfc1dvemp6cBACjGxMbHJAYLhkPmwnLpQdCdmyPl4WU8mj8ISXfOApJ6ntIlkeAQ8BW677gB16+mg0ylISbiPf788VtcP3VQaVNzaztIJBKEhIRo3DyVSpWVA1JVlbPeoCO1DjJUqYnFZrM1rlGVXZ6cIfN6EwXVxgXm83fCeNwKiCTAxz3r8GzFBBQlRNXbBUvEYpSkxiP73VOQyBS5N14ikeDu5VN4/fS+fFsmS1p/4HXIa83bl0hUWeh6h075RAdFaD3+y83JBQBQTGrnyWa3HwBmsy4our4LBS9u4Ony0XAaMAEeY78Flal9HTx+UT6KEz+jKPEzihKiUJz0GcVJsRALeBUbkSkQG1hCzDQANTsOybGf0da/p/TGkKT2LzUlReNjCoVCTq1uhpbQkVoHtRCLxRoTu6ioCABAMdV8TK0OZLYBjEcvB9tvEArPbUH8taPICL6DplN/gHWH6ueKRTwuipNiUJwcg+LEz9L3SdHgFeQobSehUCHWM4fYwhxifXOIDCwgZpsA5eRll5wCg1XxECkpLJC+lhRrfB1CoZBb65uhBXSk1kEtuFyuxpamuFj6Z6cY1l7vSwa6Y1NYLN6P0qcXUXRrP978vghmzf3gOuRrGLp4g1+YLyVvUrR84WSlVhmLS2hMiI1sIDawgEjfAmJ9c4jZxqiuM0Lic8BgVpT8ykqXWmgzM3NoipKSktw6uxkEoCO1DmqRnZ1dSHQfsgGxjKaaGyRDr+tIsFoFoPDSduS+u4/cjy+rbCZh6EPMNITYyhMSpiHELCOIWUaQMA0hoRILSSVzC0ESCaCnbwAAKC0uRE6m1BHYuk1rjdvJyMhIRgPUsNaRWge1SE1NJTS3RGbqgUSl1cu5kA1MYTL5Z1CtnVB86wBExnYQ2PlCzDKEmGkIkOsujopcmgcA0DcyAQCEv5U+REgkEnr36aNxOzExMYqk/mLE1pFaB0UoFVB/+fJllqY7CoVCkNh1L4RQGaRyq8t39oPIoPYqJ6pALpX2mmUpmy8f3QYAdOrcSa6JVhMkEol43759n6G6KH29JnXoprR0kKHyH05y8eLFAqFQWKTJzlzul/EJCbOTAQBihuYZU0Qhs9RGJmaI/fQRMREfAADjxk/QuI3i4uLPISEhJWiAutU6UuugDhIA4pKSkjhNNjY0NIS4tBAQ16+unjA7GSCRIKHXX916MkdKahKJhJO7tgAAmjg6ondfzbveGRkZ76A65bLeia0jtQ4yKP7p5H/CgoKCRE12trSygoTHRcnjM/V6ksKsZEhoLNRbHIdYBDK3EGQKBX+uXICczDSQyWSsXLUKFA3zsAHg8ePHD6GsePLFdL91pNYBUNH1RvkfMT4+/r0mDSxa/B0YDAaKrv6DvAMrIMrL0GQ3YidZVgpxcR4kDL16uxFkTj4gkUAsEqEgNxsAsHT5cgT06qlxGzweL2fRokWVLfUXs9Y6UusgQ2WHjhiA+MKFCxoFO/fr3x8XrlyGk7MTysKeImvzJJTcOwaJSFBnJyjMSQUAiGnaR5bVBJmTTIbhI0Zg5myNsk/liIuLC+RwOHx8YRkj+TV8iYPo8K9B5e63eOfOnSllZWUamV0vLy9cvX4D48aPh4RfhqIbe5G9eQp4nzWPl64Owqwk6UnWo6WmKMSLtGvfHus3bSR2AyUS0W+//XYWyjnUOkutwxeH4h9NTmjZkpqaGqxpQ2w9Nn7ZsB77Dx2EhYUFhNnJyN31HfKPrIGoMEfTZlRCmC2N6pLQ699SN3F0xK49u0GjEZt3T05Ovn/48OEUKNfQ0llqHRoMlcfWYgDiO3fu3CHaUPcePXDrzm30G9AfAMANfYCsjRNQ8ui01h5ycZGUcPVNaiqVil179sDYxITYzZNIhH///fcBKFe7/KKig4CO1DooQ5UHXLxkyZJQLpebTbQxYxMT7PjnH/y9cydMTE0g4XFQdGUnsrZMBT9OI/+bEsSlBdKTrKfuN4lXCpKgDOMnToCnlyfh/SMjIy9u2bIlBhVWunJhPJ2l1qFBUCWkkcvligoLC2O1bbD/wAG4fe8eBg8ZAgAQpschZ8d85B//hVCXXFQsnT8W15OllnW9W7RoSXjfsrKy3OnTp++F1EpXrkv9xapzADpS61AzJFu2bPGytrb2q00jpqam2Lr9L+zauwfm5uaARALumzvSLvmDk5CIhDW2IS6R5pdI6PVjqak5UkmmvPw8wvuePn16Q3BwcD4qFEOrI3a9QqcmqoMMigXyFLW/6WfOnNnCZDJrnygNwMHBATa2tnj86BGEQiEgEoD3+TXKQh+CauEAqrmd2n2L7xyGRMAD36UD6jL4hFySA3ryW9DSP8Hb2xsLF38HQ0ONSocBACIjIy/17t37BCqK4ckK4n3RutQy6BI6dACqCuLJFEVJt2/f7mlsbNyyNo2np6fj0cOHePTwIZ4/fQYqnYE2XXrBo1krPLt7HZ/D3kGYlYTcPUvAbOYPo2ELQFEhYCjhFtdNNJlYCEpBOqj5SaDkJYHMLUS79u0w4Ye/0H/AAEKRY3l5eWEBAQFbIbXQskWdlf4ixNaJ+esAKOt+08sXJgB2UVHRBQMDA83FrsvB5XJx5PBhXLtyBVGRUp0xj2at0LXfUDRr20mpOsbHkGe4dHQ3crOk0+EkKg163UbDoPdkkBjS8bOEX4b073tDbGABTqsRxC5OyAO5KBOUwnRQijJAKc4ChSTNje7Vuzf69O0LhybEK2RyudzMcePGzbhy5UoqpIL9XFRYa1lN6i9Oap2l1gGopPddvlDOnDnTThtCvw8NxcL5C5CSLM2ocvH0weAJM+DiqbokV/N2neHdsj0eXDuHu5dPgc8rQ8n9E+C8ugXDATPA9hsICU8qwqJJNBmZWwhKUQbIRRmgFGZIQz8BWFpaomufbujeowc6+Xcm1MWuDD6fX7h48eJFV65cSYeUyJWt9BeP+ZZBZ6l1qFxsXlZ2h5WTk7PfzMxM86BnADeuX8eyxUvA5/NBZzAxdOIM+PcZovH+hXk5uHJiH94+ewhJuSwRxdQadBdfcF/fgcCmKXjuXStOXiQAuTgLlKJMqTUuzgRJUAYAYDKZaO/nh87+ndHJ3x9eXl4a1c+qCQKBoHD16tWLNm3aFA6pda5soWWldRQrcnwx6Ej934I2v6di15uG8jpaX3/9te3BgweDSSSSxgPM+3fvYc6sWRCLxTC1sMI3S9fCzslVqwuJ/xyO8wd3IiU+Wmm9WM8UQkt3kLhFoBRnglyaD5kRpFAoaNa8OTp17ozO/p3Ruk0b0Ol1W12Ty+XmLFmyZOGuXbtioJ7QDdLtlkHX/f73gaTmfU3fVdeeYrVLKgDqokWLBhMhdFRkFBYtXAixWAxjMwvMX/MHTC20lws2NrVQ6bAil+aBHi+VF6JQKGjWsgU6dOwAvw4d0LZtO7D16i/arKCg4POMGTNWnD9/PgVSIqsic4M4xxShI3XjhyoheFUC8aRqtq+pfcVC8zQANFdXV437zEKhEIsXLQSXwwGdwcSsH9bXitAJnyOwf8vPEPLLMH3GDPTu0wd8Pg+fIiIQGxsLExOTL0JiRcTFxd3r3bv35ri4uELUTOgvqnRSGTpSNz5UR2JVYvvq1lVuo7rjKZKaPnLkSEt9fX2NHWT79uyRe7gHjZsG2ybOWl/8u+ePcPyf3+DTtCm2bv8LTRwd5d916lxz2dm6hlAo5N64cWP7sGHDrkOZzLJFHakbDDpSNw6oIqOqhVzDOqAiSrA6YksqHVuR1IxvvvnGHxpa+qKiIuzdvQcAYG5tiy59h2p9E948fYDjOzejW/fu2L5zB1is+pMs0gTp6elvVqxY8ceRI0cSUZXMsgCTRmWlAR2pGxrVWVyyitcq6xwcHKgbNmxw8vDwcDQ3N2+ip6dnR6VSzWg0mhmNRjMCQCeTyYrsEItEomKxWFzE5/MLysrKsgsLCzPS09MzHj58mPTnn3/meHp6dtL0Ak6eOCEX8u8/ajLIWtaY/hz2Did2/Y6u3brhHy1SHusSXC43+8qVK3vGjRt3F1WJrBhkoi5po0Ettc77/eVR2YIqWtrKBFZaHBwcaDt27PBp1qxZW1NT01YsFqspnU53J5FIdebiFYvFfAAkMpmsEasG9euPyMhIGJqYYt2u01pNGXFKirFxyTdwsLfF6XNnG8xC8/n84uDg4FNff/31xYSEhGJIiauKzKpSKxsFoQGdpf6SqM4iV14ostd9+/Y59+zZs6eFhUVXNpvdiUwm1582LgAymazxA6K0tBRRUdKxdAu/LlrPAd+/dhZCQRn+bqAuN5fLzX727NmFBQsWXPv06VMRlAlcmczVebkbnNCAjtRfAuriqlURmQKAcuzYMY+ePXsONzU17cdgMLwa+gLUISU5RR4goi5aTBOEv3mBWbPnKDnF6hsSiUSSmpoacufOnesLFy58VlJSokjcyq+VySybh1Yl1N/g0JG6/qAJmWVEps6ZM8dk2bJlo62trUeyWCzCoZkNgYKCiqo8ZpbaJXGJRSJkp6di9Ngx9X6+YrFYkJmZGf7+/fugP/74I+jevXs5qCCroNLCV1hfeewsW4BGRmhAR+r6QE1kpigs1MuXLzfv0qXLNyYmJkNIJFLDunsJQtGZZWKuXQmcnMw0+Pg0hYWFRZ2fn1AoLMvNzY1KSUmJevHixfs///wzNC4ujgNlZRJFQld+rzhuVhdU0qgIDehIXdeoPLWk0ioDoDx9+rR7ixYt5unr63dp6JPWFkbGxvL3NDpDqzbyc7PRikAlycqQSCTi3Nzc+JycnJTCwsKcvLy87Li4uNRnz54lnDt3LkMoFMq6yjJiKnahFUldWYJIsZutauzc6Mgsg47UdYPK1rkymamy10ePHnVt167dMjab3a6hT7q2MFEQ5lOs5UwEJUWFcGqi3VhaIBBwZs6c+ePhw4cToJ6Y6hZVBK68jTpHWKMlNKAjdV1AnTdb0TLTLly40LxPnz4/6+vrf/mwqHqCqakpjIyMUFhYCF4ZFyy2djJDLBZTq/3KysqKygld2cmlSG5FK61IVlXfiaE8RVVZW6xRk1kGnUaZ9lBFZqVwSwCMpUuX2ubm5m4dPnz47f8SoWXw8PQAAJQWEa5PDwAwt7JBZqbGFXOVYGBgYH3p0qWeqCCzLIyTiwrRAo7CwlX4noeq8duKKZOytMnK5G700JFaO6gisyx1kQaAwWazmeHh4ZM3bdr0xNTUdBz+o/fat1x5MysjRav9HVw88PptqNbHHzp06LcXL17sAeXxsSxgpEzNoirMU7H7/a8kswz/yT9aPUOR0Epd7PKF8eeff7pkZ2dfaNq06RYKhWLc0CcsFotRVFRUZakLtG/fHgCQEhej1f5kMhkuzf3w5rV2pXlIJBJp2LBhKx4/fjwUVcfMMguuLoBEgKoOsX8tmWXQjamJQZ2FluUh08LDwyd6eXn9TCaT66/gkwIEAgFiY2MRHxuH5ORkpKakICUlBbm5ucjOzkZ+Xh74fL7qiyGRYG5uDmsbazg6OsHZxRnOLi7w8PSEm5sbqNSa/x5+HTuASqUi9tMHAOO1uoY2/gE4cmI/WrRsqdExVVwHqWvXrt+/fPlS5OfndxQVBK3sBFPlwf5XOL8I3Y+GPoF/CRS924qebTmZR40aZbp3794txsbGg+rrJHg8HiLCwxEaGor370Lx6dMnJMTHQyQS1fmxKFQKXF1d4eHhCQ9PD3h5ecOnmQ+srK2rbDtl4kS8fPkKG/adB4OlXX5zcWE+kkIfY/nypbU678jIyC3e3t7/oEI3rHKc9n+WzDLoSF0zVBFaqct98uRJ3xEjRuyj0+l1GucoEooQGvoOz54+Q/DzZ3j39p1UK7sBYWZmhqY+PmjWvDl8fHzg08wHwc+D8eMPP2DS/B/Q1p+QpJkS3r96ilYulug/cECtzjEiImKNj4/PQahOwPhXzDXXBjpSV4/KHu4qY+g3b94Mbdmy5dZK6Y1aQygU4v69e7h5/QYePXyI0tJStdtSKFRY2TnA0tYB1vZNYGFtD30jY+jpG8LAyFhuNckkEhgsNrgcaVs8LgdCgQBcTim4nBJwSopRWlKE0qIiFBXmobSoCKUlRSguyEdBXjY4JcXVnjOTyURZWRlcPH2wcN22Wl3/+QPbsWjuNLRo2bJW7Xz69Gl106ZND6BqmmSDSg19CehIrR7qCC1ziNGTkpKWODg4LK6Lg+Xk5ODo4SM4e/o0cnLU15eybeKMZm07wrN5Gzi6eWodyUUEnNISJMd9RnRYKMLfvkRaUpzabVu090en3oPg2by1VllbvDIu9mz4Hnv37IKjU+06Pv+vxNaRWjVUBZPIx8+2trbs9+/f/25ubj66tgfKzc3Frp07cerESfB4PJXbmFvZoo1/ANp0DoCVnUND3xsU5GYj9OUTvHx4Wy3BTcwt4d9nCDoG9IeeATF97cSYSJzb8ztOnTkDaxtrQvtWxocPH5a1aNHiJJSnsBpcHLA+oSN1VagjNA0ArWXLlnqPHz/eb2hoqP3gEQCfz8f+vXuxe9cucEo5Vb6n0eho2bErOvUcCBevZg19T9QiOS4awfdv4lXQXQj4VR9KDCYLHXsOQJ+vxhMi9/2rZxDx6jFOnjkNU1PT2pyi+Pnz57M7d+58A8qVM/6zxNaRWhmqutxyQvfu3dv44sWLh2obGfb0yVOsWbUSiQmJVb4zNrNA9wHD4dejH9h6mukhSACU8UQo44khEEgggQRkMgkMGhl6LAoolPr/mUuLi/Ds7nUEBV5GcWF+le9Zevro89V4dB84QiPJI4lEgl0bVkDCK8bxU6dqRWyJRMK7e/fu13379n2MqsXrVHnE/9XQkboClb3cqgh9VF9fv4O2B+CUcvDrL+tw9vSZKt/ZNnFBz6Gj0bpjd5AJFGgr44lRXCqESKz6/0giAYZ6VLCYX6bAqUDAx/O7N3Dv6mkUqSgJa9vEBWNnfQdHt5q1H4oL8/Hb97NhbWmOU2fPwsjISOvzEovFJefOnRs3duzY11AeYzc6OaLaQlfKtgLqwj7pvr6++rdu3dpraGiodZpk2MePmDxxIp4/faa03treEaNnLMKIqfNg28QFJA2F+0RiCQqKhCjliiCp4W/I44tBIZNAo9Z/ACGFQoGTuze69B0KIxNzpCREg1fGlX9fXJiPFw8DUVSQBxev5qDR1KsnMZgsOLl54/alswh+9gwDBg0Eg6GdY5BEItG9vb37GRoa3rlz504h/gPkVQcdqaVQN4ams1gs5sePH3cYGxv31bbxE8eO4ds5c5GfV9EttXf2wOhZyzFw3DewdXAk5Cnm8cXILxRAKNL8f8kXiMFkUEAmf5nOGYVCQRNXT3TpMwR0JhPJ8dEQCioi25LjPuPNswewd3aDqYV6Z5iJuSX0DAzx4NZVvHj+vFbEJpPJrDZt2nRPTEy8+uHDBx7UR5f9q6EjtXovNx0AIyEhYZWlpeU4bRoWCAT46YcV+GfHTojFUvUbOpOFcd+uQdfBX4NtZIkyvhilXBEEQgloVHKNpOOUiVBYLNTq30ciAQz6lw33p1CocPVqjk69BkEkFCI5PhqS8ntRxilFSNBdlHE5cGvaQu2wo4mrJ8o4pXj59FGtiU2lUk169erV+vr169eysrLqPhSvEeD/fUytLrCEDoARHh7+ddOmTddr03BBQQHmzpqNVy9fyte19u+DvmPmAmTV8c1kEmBmTFfr2OLyxCgsFmh9sSwmBUb6DRvun5uZjqsn9+P9yydy0UIAsHFwwqT5K2Dn6KJyP4lEgv1b1iDsdTC8vb1x5MTxWjnPsrOzz1taWn6HRlTYrq6gI3XV0E86AMalS5c6DR069DSJRCLMgqTEREz/eiri4+MBAGQKBZO/+xU2zs1r3JfJIMPYoKrktkQCZOfxIK7F38xI/8s5zGpC/OdwXDqyG4kxkfJ1FCoVQyfMRLcBX6nch8/j4a813yElPhoenh619orHxMRsdHd33wn1JWj/lcRuHL9ww0CVuAEdAH358uX2c+bMOU2hUAhrbEdFRmHiuHFITU0FAJhYWGPe2r0wstAsaEQklkCfXfU5wuOLweVpX+aYSiHB0IDWaJ7iJmaW6BDQH4YmpoiLDINQIIBELMan9yFIS4qDd4u2oFUqQ0uhUtG8TUeEvghCanISHj96hJ69ekPfQDspdFNT004dOnR4e+LEiRQoq4NCxft/Df5fSV2tY+zatWv7WCwWYb3tiPBwTJ44Abm5uQCAJu5NMf37rSDTiIWFs1Q4tErLRBAKtfuPkUiAqSEdlC/kJNP8vEho4uKBVp26IyH6EwrzpOGxmanJeBf8GM6ePjAyNVfah8FiwaN5a7x5eh+ZGRm4d+8e+vbrpy2xyU5OTt3FYvGNJ0+eFOM/QGjg/5vUVQgNgB4ZGTnf2tqasGPs44ePmDhuHIoKpeIDni3aY+y3v0CixS1mMshVxtWlHCHEWhhqEgkwMaSBRmu8ehhsPX20794HBbk5SE2IBQBwS0vw6vEdMFl6cHL3VtrewMgEDs7uePvsIQoKCnA7MBABPXvCWEHdVFOQyWS2n59f26tXr17OysoS4j8gkvD/SGpFKy2P5wZAP3jwYPMePXpsJ1JsHQBiY2IwacIEOaGdPZtj9Nx1kGjZ2WXQKaBSlffllIkIk5pCIcHUkN6oCS0DmUxG83adQKZQEBPxHgDk3fHs9BQ0bdUeFErFsMTc2hYGRiYIf/sSxcXFuB0YiF69emtFbDqdbv3VV18Z/fHHH4/xL9D1rgn/b6RWpfhJA0BzcHDQ37179yE6nU4ogyA1NRXjx45DTra062hsboWp3/8JEHsuKIFOJ1cJFOHxxRARmJem08gwNaJ/kRDRuoSbty8MjEzwKTRE7h1PT07A57B3aNHeXykrrYmrB3hlXCR8jkBpSQke3LuHfv0HaNUVNzAwaNmlS5cPR48eTYRqJ9m/htz/z6RW0hV7/fr1XGtr66+INMYp5WDKhIlITEgAAFCoNMz9eTcoBMfQlcFUQWoKmaSRo4xMAvT1qDDSp0LLenUNjiauHjAxt0TYm2D5uoK8HHwKfYVWHbuCzqiQFPb0bYO0pDhkpiajqKgIQUFBGDhokFaF9po0adIpLS3t8rt37zj4Fwel/D+RWpW3mwqpjK/j6NGjd5BIJI2LIkskEiyY9y1evXolXzdx4XqYWDWp9YmymRRQK1lYCoUEOo0MkRgQV4oLpVBIYNDJ0GNTYKRPA/1f0N2uCfZObjAwMkHEu4r7W1xYgOiwULTu3APU8pI/JBIJzdt2ROSHNyjMz0VeXh7evH6NwUOHENY7I5PJev7+/k6//fbbTfyLo83+30hdmdB0AIwrV65s1NPTI5TfeOrkSRzYt1/+uX3PoWjZuX+dnKgBm6oysoxCIYHFpECfTYUeiwp9NhUGelTosShgMiigUcn/WuusCk1cPcBk6yHyfYXSaGF+LtIS4tDGP0AeWkuhUNG8rXSqi8spRXp6OuJi49BvQH/CQg0sFsttyJAh6Xv37o2AakH/Ro//F1KrTdY4cuRIm44dO64h0lhKcjJmz5wFoUAa3WVibo1Rc9ZoXZ9ZERQKSeU8dZULIuE/RWB1cHL3BoVCRXR4qHxddkYqBHw+PH0ranAxmCx4+bbGm6cPIBQIEBMTAz6fj87+/oSPaWlp6VdYWHjp5cuXJdBZ6kYLlYQGwDhy5MifDAaDkJzIjytWIDLiU3nLJExd/gdYetqnBSpCj0X9T3Sf6xKu3s1RxuUgIfqTfF3C5wg4uXvD3NpWvk7f0Bj2Lu54+/whJBIJ3rx+DUcnJ3h5EQs5IJPJjPbt29v99ttvgfgXSgr/P/x71Gp1X716tZOhoWEnIo2FvApB4M1b8s+d+oyAsYVd3ZwoCWAz/x9+EuL4avJstOvaW/5ZIpHg+M7NVQQZvHzbYNS0+fLPK5Z/j48fPhI+nqmp6YDbt2/3gNQAyAockqGcd98o0dj/QSQVC7mGhVTDfnLxgy5duswlekJb//hD/p7J0kOXgRPr7GL11YyldZBi/Owl8GntJ/9cXFiA03u3VtmuU6+B6DlEWsSez+fj2zlzUFBQQPh4Xbt2Xe3q6sqClNgyUiv+xxolGhOpVRFQVRXJyoXbKWq+U1cbmgqAduDAAV9jY2NCA66XL14oZV0N+XoxyJS6yXqiUknQY/2/jIa0A5lCwZSFP8HGwUm+Lux1MD6+fl5l20HjpsHe2R2ANJbguwUL5emvmoLJZLpcv359Kir+N1RU/KeARkrshiR1ZRIrdo8re6lpKt7TKi2Vt1O30ADQBg4cOJXoCe/8e4f8vZGJOVybta+bG0ECTAw0nk37vwaDycLM738FS0G/7fzBHeDzypS2I5PJaNOlF2S8exIUhP179xE+nru7+7xRo0aZo8JaN3qL3RCkVkfiKsSrtNAVFkalz+rWqdqfNmrUKAsLCwtC80+RkZF4/qxCimjYtCWoq9/TSJ/2r4v8akiYWlhh6MSZ8s8Fudm4f1VZ900sEsHMzhFN23aUr9v6xx+ICA8ndCwKhWK0ZcuWOVA/tm50+FL9vZrGw7KbpfiqyvLSANDmzZtnNn78eIsRI0ZYDB482Gzw4MFmtra2lDdv3ogU2qjcjozkjBMnTky0sbHpRuQCft+0GZ8iIgAABkbG6Dt6NsSS2v+uBnpUsBtJjvO/CQ7O7ogOD0V+jrS2dXJcNPx69AWDKY0kS4z7DJ5ACBtHN8R/+gAelwOxWIxXL19izLixoBAQdzQwMGiakpJytjzSTJWAQqPyhNf300axe6Kqq62W6Fu3brXt1q1bcysrK189PT0XJpPpTKVS7chkspm6hAuJRCIUi8XZPB4vkcvlRufl5X148eLF28mTJ8dAIeCkuLj4rL6+vjc0RFFRETq190NZmbSLN3j8N2juP6xGwb+awGZSYNjASiT/ZiTGRGLrygXyGPFu/b/C8K+lvs/QNy9AokrzsTOS4nDz+F7IuDd/4QIs/O47YsdKTNzv5OT0CypqXKuqz9UoUF+kVkfmyot8/LxixQrzKVOm9LaysvLX19fvSKVS62aeCACfz8/Izs5+fOfOnVufP38u2bhx43ki+584dgxrVq0GAFBpNPy69xwKObUjI5tFgaGejtC1xd7NqxD+9gUAgEZnYPXfR8Fi6+NTZLiSXFLQ1TOICXsr3Y5Gw/VbN+Hq5qbxccRiMWf06NH+Fy5cyIRyRU3FogCNAnVN6uqschWv9apVq6ymTp06zNraeiiLxWqFLzDGF4lEHAqFQqje6pCBg+RjsVYdu+HrRSuRkcMj0oQSDPV1Xe66QtSHN/hn/Q/yz72/GoemrTqguEzZccYtLcb5Xb9BUF6ru2u3bjh45DCxY0VFbfHy8vobABdViwI0GmtdVyRSNx+sGL1FB8AwNzdnhYSEDCguLj62bt26d87OzutYLFabOjyXakGU0OFhYUrOlXZdewEAaFTiz0MqlQQzY7qO0HUIT982sLCp6NQF37+JwqLCKtux9AzQzK/CjRL0+DHevH6t0TFkcHFxmWJvb89AVYdZo3Ka1QWRVEVsVXZQ0f39/Q0/f/48LTU19Xnbtm2P6uvr98G/IEz1wvmKnjqDKZXSAaThnJqCQiHBUJ8Kc2O6Vg8DHaqHYk3skqJCxEaqjiBr5tcVTLae/POfW/6osW1F0Gg0i2PHjvWBsjO2csBTg6M2pK6udrM8A8rNzU0vOjp6+qNHj166u7tvptPpTg190ZpCLBYrhYT6tO4gryjBZJBhWEPOMp1GhrEhDRYmOutcn2jdqbvS5/hPH1RuR6PT0cyvq/zzyxcv5DMamqJFixZjUTUQpVFNcWlLarXx1CifNgLAePHiRb/w8PAnbm5umygUSu1qkjYA3rx+g6ysLPnnlh27Kn3PZlJgYUKXj5FZDIrUo61HhYUpHaZGNDC/sHj+/yMsbR1gaVuRk5OeECsfO1eGV+sOSiILRw8fIXQsExOTzosWLbLFf8xSqxs/y7vaP//8s0NhYeFhPz+/Y/8my1wZjx4+kL+n0eho2rJdlW3IZJJ8asrIgColOIvS6JQ7/+tQjAkXiYRIjYtSuR2dwYRX64oah9euXkVxcTGRQ5GmT58+AKq74EAjIDZRUqsbP8tTGT98+DBm1apVDw0NDfs19MXVFiGvQuTvXbyaKelj6dC44NGsldLnlLjParf1btsJJJL0r19WVobr164ROpaTk9NgNOKQUSKkVkdoOgB6r169jHJzc7c1b978bzKZbNzQF1ZbiIQihH2scLh4+rZp6FPSoRq4NfVVqsWVkRirdls9AyM4uHnKP58/e47QsfT19ZsvXLhQXRe8waEpqdU5xGgA6Js3b3a5fv36NVNT0zFf8uRFIhES4hMQ8ioEL4KDER4WBr6asRRRJCTEK7Xl6l1zyRwdGg50BhNNXDzkn4vyc1HGKVW7vWeriu76+9BQJCUmEjrehAkTuqNqNmCjILYm8zKVCa0kgH/58uU2AwcOPEylUi2+xAnn5ubidmAg7gQG4s3rN+ByuUrf0+l0BPTsiaFfDUO37t1Bp9O1Ok7052j5exqNDgcX9y9xeTrUAm4+LZTUUXLSk2Hvqlr1xN7VC2x9Q3BKpFrtN2/exOw5czQ+louLSzcAJ6HaUpPQgIEoNZFalVNMTuirV692GDhw4HEymaxdMSMNISPyrRs38fLFC4glEhi7NYNR805QFBGSQIKCzx8QeOsWAm/dgpGREQYPHYrRY0ajqY8PoWMmJCbI31vZOyoJyevQOOFYicD5OVlqSU0ikeDk1RwRr6WZd3cDbxMitbGxcTsGg0Hj8Xh8VLXUDRpZVt0/tVqn2OXLl9vXJ6GzMjMReCsQtwMDEfLqFSQSwMSrFbynfg+r9j3BMlc9QyYRiZAZ8hDJ9y8i+91THD96FMePHoVPs2YYPWY0Bg8dCkNDwxqPn5yUJH+vmJSvQ+OFbRNnpc+FudnVbu/s7Ssn9YcPH5Cflw8TUxONjkWhUIw2b97svmjRog9QrbrTaC01UNHtlgeV7Nq1y3vQoEFH6prQubm5uHn9Bm5cv4Y3r98AJBLMfNrDZ8ZKWLUPAMPYvMY2SBQKrDv0gnWHXijLzUTy/QtIfnAZ4WFhWBMWhk0bNmLQ4MEYO2E8WrRoobad1JQU+XvFMEQdGi/MrGyUPnNUhIsqwsrBCfqGxigpKoBEIkHQ48cY+tUwjY/XtWvXdgDC8C8ZU1e20LJuN33MmDGm06ZNO0ShUDR7pNWAgoIC3L19G9evXUPw82CATIFZcz80n7sO1u0DQNPXXqWTaWYF99Fz4T5qDrLfP0fS3fPIDHmIc2fP4tzZs/D29sbY8eMwbPhw6OnpKe2bnpYuf69vUDdKoTrUL0gkEth6+uCUlgBAFTUUVbB39UTkO6lE1YvgYEKktrS09IHymLryfHWDWGtVpFYby81isRh79uzZXtuAEk4pB/fu3cX1q1fxJOgJxCQyzFt2hu/8DbBq1x1UVh336EkkWLTsDIuWncEvykfKwytIuncenz59wppVq7F50ybMmDkL8xcukO+iGEnG1jeon7uvQ52DpUBqoVBQ4/a2Lh5yUhNN8DAyMvKC6lDRRtv9rhIt9urVq0lGRka9tDmQSCTCvbt3ceP6ddy/ew8iEgUWrbug2fyNsGrbDRRG7epPaQq6oQlchn4Nl6FfI+7KIUQe2wpOKQd/bd2KyV9PgZGREbhcrlKUkazEiw6NHxKCyhVW9k7y93FxcSgsLISRkWY9Mzab7aavr08rKSlR7HqT0cC51ZVJrTZ98qeffmrStGnTH7U90M6//8b2bX+BaWYFn3Iik2lfPkJLLBQg7ektJNw8gcJYZb0qWYUNWdF4Hf77YOnpg21gBE6xdPz9OSoK7dprJihJJpMZ06ZNs9q+fXspGlFSh6rgk8pdbxoA2sKFC5eRyWQ9Io0rIjk5GQBQlpuJmPN7kPP+xRe90LK8LHw+vQP3Z/bE+79/RHFmKgz6TIFep6FVt6009y2so4AWHeofIpFI/l7TAnnGZhUhFlGRkYSO16FDhyZQrzXfIKjOUsvH0gcOHGhmYWFBqMyrDEVFRbh88RLuBN6G0NwJYj1TFCV9QMjGeTDxagWvCQth2rRtvV1gflQoEm6eQHrwXUhEQtBs3WDcfyZYbfqARKWh+O5R+bZ65bm2AoHyWKyuotR0qH+UFld4vClUzYZNBiZmQEIMACApKZnQ8ezt7e3QyDK1FEmtOMhXGk8PGjRoNtGT5XK52Pjrelw4fx5uPq3A4/MBFsB37QiBQwvQ40OQH/Uewau+hkUrf3hNWARDZ2I1j9RBLOAj7elNxN84gaL4TwCJDGazztDrOgoMN+XAf7LCWJ5ClcYOG1Sax64u3FCHxoPS4iJ50UIAoDM189MoCidkZKRrtI8MhoaG5lD2fDc4sVVZasXIMerChQttLCwsBhBpVFa7+eXLV5j140a4ejXHmrnjwRNKdb0kdDZ4nt0gaNIS9LiXyA59huzQZ7Dt1Bce4+ZDz8ZRq4spy8tCYuApJN09D35RPshMPeh3Gw29rqNAMa0+nZtMrhiJMJlMpe+4nJIv8VvoUEsUF+YpfWaxNRstMlkV22VmZBI6JpvNNkYjSrsEqlrqKkkbM2bMGEQikQjFSF66eBGPHj7E3JWb4eolTYQwNDZFXoZyhI+YZYQynz4gO7YGPfYF0p4FIv3FXTgEfAX3UXPANLPS6Hh5Ea+RcOsUMl7eg0QkAtXCHkbDp4DdfgBINXjVSeXTZ4rz1KampqBQKPLxWVFBHnRo/MhKS1X6zNKvOXIQgBIVOaXEemUsFssIqq10g0WWycgqO5HK8r1UR0fHgUQaFIvF2L51G3zadFDKcdU3MAJJIUpLaR99c5S1GARKQTroccFIunseqY+vwbHvWLiOmAG6gXHVfQQ8pD65iYQbx1GUEAWQSGB4tIVe11FgeneoVfFmMpkMC0sLZKRnAJAWOteh8SM9OV7pM9tAQ1IroJTDIbQ9iUSSZQxVJnSDQZWllpO6Z8+eBnp6ei2INBj0+DFSUlIwbNpCpfUGxsYgCaqX1RUZ24DbejgouYlgxL5A3LUjSLp3AS5DJsNl6FRQGCxwczKQGHgayffOg19cABKdCXbHIdDvOgpUayfCN4BEl1pyFltZZNTR0UlOalkVCB0aN9KSlEltaGJGuA0tbQFJzfsGgaKlrqI59t1337UlySQiNMT5s+fA1tOHq7ev0noDIxNALATEIoBcvQifyMwRHDNHUDOjQY97ic9n/kHCrVMw9vBF9runkIhEoBhbwnDQbLA7DgGZrX3EF6k8+4pWafrDxcUFL19Ip92y0lIgkUjk89g6NE4kxSpLGJlYaCaLV6bQ5WazCClIg0yW/5kbzZ9D3ZiaDIDcpEkTTyKNiUQiPHv6FE7uTZUcT4BUbQIASEIeJHTNbpzQyh1CS1fQ0j5BEvcCWa8fg+7cDHpdR4Pl2w0gE1VjqgoZqfUNlENTvZpWVOUR8HnIy86EmeW/Tjvx/wZ52ZnIy65wcjH19JW82tVB0RGqb0DMQIjFYhEaEaGB6rvfZGNj4yZEGgv7+BHFxcWwdXSu8p2hian0IALNSS3dgQyBnQ8oeUlg0cgwX7CrTm8AiS71dFfOl/aplH+dlhSnI3UjRlxUmNJnUw2tNABwiovk762tif3GfD6/0c13Vg5tU7LWLBZLM/dzOaKjpWohxmaWVb7TNzSWHkCofbma2ji/qmlUen76ypba09NTqbcRH0WsBKoOXxafQkOUPlvaaT4tWlKYL39vZ29P6LgCgaAMjaTcjgyyf62qEDcymUwmlMmQnye9OarmBw2MpJmatSJ1PYBUPkdJoylbahabDS/vii547KePhNrV4ctBJBIi/I1y2LFVEyeN9hWLRSjKq5hqdXLWbD8ZCgsLZTtLKr02GKqL/QaZTCaUcUEtj8hiVAreAKQ1nQEAgppzXL8UxJxicJ5dBgCwVDhI2rWv0PlOjouGgN+4Hkg6SBEdFgquQtQfhUqDtYOLRvsW5GRBLK5IqmratCmhY+fl5eWgEREaqEpqpYlzPp9PSOWczpA+A1RN4OsrOMoaGhKRECWPziBr/RiUPr8CALB3qNrt6te/IpBOJBIiolIXT4fGgddP7yt9tnF0BUXDZI7cjIqAFQqVAg9PQr5hfP78OQUVFS8rk7tBSF6t+5jH4xEitSwPtTAvp+qBKBToGRjVOFdd3+CGPkTWxgkourIDYo708jp26qSyCHnbdm3h6FQxNgsNDmrQc9ehKkqLi6r8Li5NfTXePzM5Qf6+WbPmGmd2yXDs2LF4NCJCA1VJrXRChYWFqUQakxXxTlUjpO7k7gVycZZ0rvoLgx8fhpy/5iD/yGqIctMAAJZWVti85XccPXEcBiqmMkgkEiZOmiT/HP72BQQCXcZWY8Krx3eUfhMKlQpHD82VYzNTEuTv/Tr4abwfAJSVlWWEhISUQNlSN3gXXJWllhM7MTExjkhjbm5uoFAo+Bz2DmJRVeJOmLsMdgwR2K9Og5JHLMVNW4hy05B/eBVy/p4LfoJ02sPIyAjLf/gBDx4/woiRI6sNKhk+cqQ82oxXxq3ikNGh4SASCfH41iWldc5evqAxmBrtzykpUlIcbdtOM3EEGQoKCqIgVTkRQ7W1bhAoklrxhCQAJHfu3PlEpDEajYbmvr7glBTj/aunVb7XMzDCvJW/wdKQDVboVTDD74DEJxZrqynEnCIUXtqOrI0TwX3/CJBIwGQyMXvuXDx8EoSZs2dVycZSBSMjI4wdO1b++dnd6/VyvjoQx/N7N6uE8Hq16aDx/qkK9bbodDo6dupI6PjJycmhqCC1IrEbnNSVnzAS2Ulu3749hcvlphFpsHefPgCA2xeOK3kVZTAyNceCNX/AwsYO1MxosF+cAC3lA0BQW0odJCIBSh6dRtavY1AadA4SkQAUCgXjJ0zAg6DHWLp8mUa634qY+s10+VgrOjwUGSnESrToUPcQCPi4c+mE0jorBydC89OKRfQ6dOwIFouYTt6zZ8/eQJnMsvdAIxlTVx4XiAGIU1NTnxFpcPjIEWAwGEhPTsCdiydVbmNkao5Fv/yFHkPHgUmjgvH5CdghZ0EpIpbLWhncd/fLnWA7IeZKQ/8GDBqIO/fvY936X2FpaalVu7a2thg6bJj0JkkkuHv5VO3vvA61wr3Lp1CUr5wS27JzT433l0gkSIuvKK3Uq09vQscXCAQFP//8cwQaqaWWX2elExQBEAUGBt4i0qCFhQV+/mUdACDw/FG8fnJf5Xb6BkboPWQUxnz7E7zbdAKVkwfWmwtgRD4kPO3Fj/+InG2zkH/0Z4hypcoV/l38ceX6NWzfsUPJg60tFi7+Tl6X6+3zR8hM/TI+AR2qIis9BfeunFFaZ+PoAjuFAnk1ISc9BTyudOhHJpPRtx+xystpaWlPCwsLBSjnCRoRqRXTpRQFyeXKJ7du3cpbsmRJLwaDYappoz4+PjAzM0PQ4yCEvnyCnIw0OLi4g6WnHIpJpzNgaGAIfXNrOHr4oDA3C5yUz6ClRQB0FsQGFYJw1KwY0ChkJaFAYU4KCs7+hqKr/0BUWOHwOHzsGBYsWqS1ZVYFAwMDFBYW4d3bt5BIJCjIy0HrTt2/zK+kgxIOb/sF2RkVo0ISiYSA4ZPA1lQUAUDUu5fIKE/V7NS5E8ZPnEjoHO7evbvn3Llz0QB4AATlixBVnWZfHIppY+rkgak9evQQubq6diPSsG+LFujQsQNeBr9AZNh7BN26hPiocPD5ZTAyMQOzPIKLzmCATmeALxTB3bctjM2tkJ0cB3HqJ1DyUyA2sISEzlYitZhThKLre1B4aiOE6VIHPZOtB592XcE2MMTggX0JB+ZrgmbNmuP8ubMo45YhKy0ZLp4+MLeybaCf7v8Tz+5eR1DgFaV1Tdt1hkeLdoTaeX7rotxSL1m2jFDQCZ/PzwsICNjI5XLLAPBRQejKFrtBUFl6RbGQPAMACwDbzMzMMDEx8ayenh6hrC0A4HI4OLD/APbv3YuSkooUNys7B3i1aAuf1lKFlOzsLKSnS7vOQoEA757cQfirJxBLJBA4+IJcnAMGnQJ2h0EouXNEPmY2tbRF03b+cPVpBQqVCgGvDOlhz7F7zz/1csNu3biJ+fPmAZDW2Prh9306sf8vhKz0FPz+/WzweRXDMwNjUwz75jvQCJQsTkuIQeDJfQAAE1MTPHvxglDJ47CwsGPNmzf/E0ApAA6AMlRYbEVr3SBQ7H5XSeiQLVwul+zj45PTvHnzPkQPQKPR0N7PD2PGjgOLxURiYiJKSkpQWlyExOhIhATdw/N7N2BqbgkDYxOIxGKQKRTYOXvAycsXBbmZ4CRGgFxWBHFpIXhRIYBICEdPH3TqNxztAgbAzNpOnlFFoVKRk5cPO3Mj2NrVvRV193BHYkIioiIjwSkphkgogKdvmwb46f6/IBaJsGfTSqWcaTKZgt6jp8rTejXF0xvn5JlZM2bORGd/f433lUgk4lWrVv369u3bXCh3u2WWusHH1JXTLhX1vpWsNQB2cnLyZnt7+4DaHFAsFuPD+/e4HRiI24G3kZRYMT1EozPg2ykAvh27Q1FwJT7iPSJDXwASCcys7dG0bWfoG1VXn0+CjLDn2L59a73cNE4pB8MGD0ZcXBzIZDIW/fIXHN3qRt5Y/TFL8CLoPuKjPiIx9jPiYqPL7xkdTX3boHvfwWjbsRtIdSAc0Rhx6cguPLp5UWld+56D0MyvC6F2MpLicPP4HgBSP8nDoMcwNtG81mNcXNwdV1fXnyG10qUAuJBaalk3vMG74JUtteL7KhY7IiLi44gRI/rSaDStK3WQSCRY29jAv0sXTJn6Nbr3CACTxURyUhJKS0qQnhCDlNhIWDk4g8mWOtZMLKzh3rwt3H3bws7FQwM9ZxLi42LRq1tnjQJMiIJGp6G9XwdcunABAoEAcVFh6BgwAGQKpfaNV0JxUQEuHtsLTkYMpoz7CvPnzEREeBiCg59DIOCDV8ZFSmIcwt48R9D9W3B09YD5f0zMIfRFEC4f26O0zsWnJdr3JKSJCQB4dPmUXPB/wXeL4N+F2ENh9erVG1+9epUNZQstmy1S1e3+4qooqv6FlQktJ3ZsbCzf2Ng4qmPHjv2Iapepg5W1Fbp1746vp02Dm7sb8nLzEBP1CdEfXoNtaAQzLR1RNDoTEk4+vLzqx4Kam5vD0ckRgTdvobS4CDwuB94tiTlrasLLoHvIi3+P9T//hAED+su9+evWrUN6uSiiDD+u+BGDB/XHD4vngU5nwMOHkF4kAIBXVgY+rwxUGrXR6LFlpSVjz+ZVEClUsDS1skXvUVNAJhN7iMaEvZUXmXd0csQfW7eCQvBB3K1btzZ9+vQRvnr1Kjo7O5sP1WRWpSr6xW5o5StSdRJKBL97926Or69vure3d/c6PREKBZ6enhg5ahT8OnTAu7dvEfriCUqLi+Dg5k34T8bS00dSRCgCetZqtFAtPDw8wOPx8Ob1ayTFRsHJ3Rvm1rUfx0skEpw/ugv9urTGN99MB4OhnNZ+7dp1xMTEKK1bvnwZhg4ZAr/27bBi2SKw9Q3g7t282uOUlXHx/OEdXDi+H8f2bsPF4/tx4/wJBF46g9iocBgYGcOyDq5HW3BKS7Djl2VKQSZMth76T5ipsf6YDAI+D/fOHoawPPnjr793wNnFmVAbAECn0w2dnJw6z5o1a8TEiRNZJSUlsaGhoYqxzqrqaX1R6WB1jylVouRycp89ezbR39+/xMXFRfNAWwKwt7fH6DFjkJyUhODHD8DjlsLBzZtgKySkRodh8JBB9XoDO3TsiA/v3yMxIQGfw97Br1tfeV65trh08iA6tfTEmDFjVH7fp08fFOQXoLi4GF6envjll18wZMhgAICzszPoNDq2bdkI/4B+MCiXkVKEUCDAzUun8Pz2RfTr3gnfzvkGxkaGCAp6Iv1eKERGajKePbyNpLhoePu2BlPDEjZ1BbFIhH2/rUJyXEXUF5lCQZ8xU2FqaUO4vZAHN5GeIM0eHDFyJKbP+KZW50cmk1lmZmbthwwZMmnu3Lm2Dg4OcYGBgcWoKuxfHcnrBSQ16yoHodDLF2b5wgLAunbt2tCBAwcuJVrBQ1NIJBIsXbwYVy5dwbBvviP8Y0Y9u4kjRw7W5/0DABQWFuKrIUORlJiIZm06YMbyX7Ruq6gwH/+sX4Ynjx9p3YZQKIRPs+bwbNEesxavUvouNioCN84cwrzZ0zFkcMUDb9yESbh7957Stq1bt8KggQPwz579+PaHX+DsTvTBqj1O7f4DLx4GKq3zHziS8Hw0IM2Zvnl8NyQSCczNzXH7/j2Na1ATgKiwsPD2kydPdg4ePPgtKrzhihFniuGkssSIOo8VV5d6WTlkVAipY4AP6XxcGQDu4MGDr+zYsWOZQCAo0vB4hEAikbDpt9/g7e2F6A+vCe9Po9a940oVjIyMsHvvXrDYbIS9eYGH189r3dazB4GYNXNGrc6HSqVi6tdfI/SVctj+g1uX8fbhVVw8e1yJ0ADg7u5WpZ22bdpgwfxv8fum9fh91WJEhb//Ivfz1rmjVQjdvEM3rQgtEgnx9MY5eTH6n39ZVx+EBgCKkZHRgEGDBt0oLS299PLlywFsNpsJ6QwSHeUloSE1krLALpnhrNPCejU5uySQPmVUkboMAHfBggXB48ePn5qVlVUvvziNRsO69b8iQ43wgtoTl0jAYmoeUFBbeHh64I+tfwIArp08gIRoQlmrcoS+eoaBA4h7dSujs39nZKanorioAADw7uVTpH4OxcEDe5Xqhsnw4w/fY9nSxfD28oKVlRWmT5uK1at+AgAMHjQQs2d9g63rvkd6alK93send64i8PwxpXXOTVugXQChGo1yvHkUKFfiGTpsGPr171+v5w8AbDa7Q/v27Y/k5eU9joiImNimTRsDVJBbkeD1Qm51pK6SrQUpuatYawDc8+fPJ9vZ2c0PDAz8UyAQEJJA0gStWreGixMx6daSwjzY2trV9alUiz59+2Lp8mUQiYQ4vO1XcEqJV8sU8UphYmJc63MxLZ97zUpPg0gkwsXj+7B9259ViizIwGQy8f3yZXgS9BDhH0OxedMGpenAJYu/g5mpMc4crJ9IPQB48TAQ5w/uUFpn4+SKboPHaNVeWkIMwl5K8/qtrK2xZt3aejt3VWAwGO7e3t5/vnz58lVCQsKiadOmWUC15ZZZ7zohd3WWujKx1VlsLgCuUCjk9O/f/7y/v//4V69eHRMKhXWqfhAQEAABT3Ml0pz0VPg001zWpq4we+5cDP1qGPJzsnBs+0ZC+xbk5cC0DggNAGVl0lBKLrcU4aEh6Nm9S60SXOh0OmbPmoVPH96qzJOvLR7fuoTTe/6Ud5MBwMK2CXqN/Fqr+X9eGRdB185CNlT9bcsWwnn0dQUKhWLl6Oj44759+95kZGT8smXLFmdIfVOKBK8zcmvS/a5srWXEViI1pDGwnFevXmX5+fntad269ajAwMC/c3Nzo1AHcHV1JeRJSI4OR5cuXevi0ISxcfNmtGrdGhGhr3D3kua511kZabCpo0SUhIQE+fuwdyHoSzBfWBUGDuyPsjKuUoZUbcHn8XBy1++4ePgfJUJbOTih37jphGK6FfH0xnlwyoNMvpk5A539O9fZOWsLMpmsZ2VlNXPx4sUvcnNz/zl37lxLSIldp+TWJIBEXTdc0WIrErsUAOfjx485/fv3P2tubj53xIgRky9durQ9MjLyQU5OTrxQKCQu/k0iwczcQqNN87MzYWduCBNTzcP/6hJ0Oh279u6Bra0tbp49jIh3rzTaj8/nQSgS1sk5vHn7BgBgZGSCpPgYNKuDXouDvT309PSQmZ5S67YAID05AX/8OA8vH91RWu/i0xL9xs/QWGusMj69CUZieRke3xa+WLJsWZ2cb12BRCJRTU1Nh48cOfJecXHx6aCgoF4gZrmrhaZRYTVZbJXEli0XL15MHD58+DVvb+8/LCwsFr9+/fqOhseV41NUDJycnDWYL5Xg2c1zmDh5kkbt1hfMzc2x58B+MJhMHP17I7LTaxZmNTAwkpcuqi1u374DCoUCazsH5GVn1VkqKpVKQU5WRq3beX7vBv748dtK0lAktOnWF92HjqtS20xT5GSk4tU9qY6cnZ0d9uzfD1ojzqLT19fv3qVLl1NcLvfu+/fvR5mbm7NRldwyYmtksYncOVnfSKzQqOK4WzYfp5ixUlkVAvPmzXP28/MjHBHyPiwMTm0C4OzsjOjozxAKVVu0iJBnMDPSQ/cePer1x9AE3t7e+Gv7dsyeORP7fl+FJet3gFFNqdQmzm6IjolDcnIyHBwctD7u27fvEBYWhqYt2oBGZyhVr6gNhEIhiotLIOBrL5PM55Xh1O4/8fb5Q6X1NAYT3YaMRZNazIXzyrh4cOEYRCIhDAwMcODwIVhYVN+7KygowMsXLxD67h0+R31GclIScnNzIRaLQaFQYGxiDHNzczi7uMLD0wOtWrWCT7Nmdf6gYDKZzXx9ff9JTU39PiYmZku3bt0u5OTk8CHlEglSHpFQYVgBNXPbRB+Hio0oppkpBrSrmmgHABKVSqWsXbt2LtG48Xdv34JlYA5A2rV1cnJGbGyM0hgMAEqKCvDmcSD+2f1Po4ldDujVEyt++hHrf/kVR7ZvwIzlv6g9NxKZjM4B/fHrr+uxZ89urY+57hdp8EtA/6+kKyR1o7MeFRUFsVgMhpbRZZmpSTjwx1pkVpoWMzKzQK+RU2BkptnwSjUkeHz5FEoK80Gn07Fn/z64ubur3JLL4eD6tWu4fOky3r55CzMrG5iYW8LIxAxNvFvBs1IIqlAoQGJGLh4+OoCczDQwmUx07uKPXr17o1///io147UFnU53bNq06d8pKSkzb9++vWTo0KGhqLDOij+kWmJr08dRbEQxOoas8F4x7UwWnUa9fv16bzMzM2LFigDs2bUbHQdVyM3o6enBzs4eKSnKOmHPb55H69at0COg/uK9tcHU6dMRHxePkydO4PKxPfhq8my12w4ZMwULJg1Br169MGrUSMLH2n/gAG7dugWPpr7o0VcaOsrhclFWVlbrjLWnz54DAGzsCWtlIPRFEE7u2gJeGVdpfRP3pug6ZAzoWo6fZXj35B5S4qJAJpOx7e/taO9XVZg/KysLhw8exJPnIXDzaQX/oZMwZv4ajUv0AFI/wJunD/Ds7jXcv3sPa1evwYCBAzFj1ky4e2iukVYTGAxG88GDB99KTk7+3cvL66/S0lJZaqciVBJb2/BOSTWfK5OZAkDUoUMHZkBAwGxNGlfExw8fkZyZh8GVEgvMzMxQVlaGnBypNlls2FukxEVhx19X6+zG1iXWrF2LpKREPLpxAU5uXmilRt/M0toWIybNwLTp08FmszBwoOaBKDt27MDy73+Ab5sOWPrzFnlutaW1LUJCXqNLF83FAFTh7LnzMDGzgJsnMafbrXNHcfvCcaWeFYlERquuvQgpgKpD4udwhJbX01q/cQP69O2r9D2Xw8HuXbvxLiIWXfoNw+wexB+WMtg4OGHQuGnoM3w8nty+iruXTuLihQu4eOECevfpg59Wr4I9wXK46kAikSj29vY/JCYm2jdp0mQ5hyOfJVYVWip/X9v0SUXLLFazSABIjh8//g2NRiMmUQFg4/r16PPVOJXf2drawsDAAGWcUry8dxVDhw1Ds+bNCR7hy4BCpWD7zp1wdnbGqb1bkVPNtNDw8dPRtGU7jB4zFrv37Km2XR6Ph9Onz8CvQwcsXf49RkycgdVb9kDfsCIUsnlrPxw8dLhW5//g4SO8f/8Bk2Yt0tiyCfg8HNr6CwLPH1MiNIPFRp+xU+uE0DnpKXh85RQkEgmWLFuKUZWSYIIeP8a48ZPBtPXCmJnfwbYJ8cwsVaAzmOg5ZDRWbT+CjgH9QSKRcPfOHfTv3QfHjx6tk2PIYGZmNvHTp08LIXWeybziMo94FdR1cHTlZBAaANrKlStdhg8fvplEIhE63pXLl/HqXRh6fzVe9cFIJBgYGOLa8b0oyE7HP3v3NFiAgSZgMBjo7N8ZZ06fRkJ0JNp376NyfE0mk+Hfsz8oFAp2/vUnLl++hNJSDjicUuTnFyAyMhKBgYH4a/t2fPvtfJw+cwYUOhs/btyBbn0GV2nT2q4J9mzfgqbe3ipjvGtCbm4uJk6cgtYdu2HAiPEa7cMpLcHuDT8i8r1yzL6ZtR36T5gJc+vaW7PC3GwEntwHPq8MU6dPx+KlS5W+375tG05duI4pi1bC1MKq1sdTBTqDiWZtO8LZoyliIz+iuLAAjx4+QmZmJrr36KE2go8oDA0NO7q7u9+7ePFiNqoWDoDi+7r0JqmSQ2ICYGZlZW23sLAYTKSxoqIi9O3VGzN/3AxLG/V/gJTEePy+fCamz5iBFT/9WIeXU3+4dOEili1ZguFfz0U3mTNLDcrKuHj74gk+vn2JuM+fkJmeAk5pCYQCARhMJty9fdFzwDD49xxQbcL/7StncenEfhw9cgg9umsuDJuSkooJEydDTGVi6dotoFJr9voW5uXgn/U/VKlk4u7bFp36f6X1dJUiSosLcf3wTpQWF2LkqFHY+NtmpYfZpg0bEJOaV63/oq7BKS3BiZ2bEVZeb23I0KH4/c8/CAsxqENxcXGQoaHheEinkPnli2yGSe7HqitSK1poWfeAAYC5d+/eVjNmzLhK9FirfvwJWSVCDJmgPmNJIpFg09IZKMzLRtDTpw0WbKINZs+YiSdPnuKHLfu0siISsZiwHtnpg//gztWzmD1rJpYsXlRtryY3NxeHDh/Fjp3/wMm9KRb+tF4jZ1ZOZhr+XrsUBQqF58gUCjr0GQqvVsSqSqoDp6QYN4/tQlF+Lvr264ftO3coEefg/v14FRaLweOm18nxiOL2heO4de4oJBJJnRN79+7dPefMmROBCmJX1kWrU1KrFC3My8s7ZGJi0p1IYy9fvMCcOfOwctvhaqdPQl8E4dDWX7Bg0UIsWLSoji7lyyAjPQO9AwLg3rw1pi/5+Ysd9+bFUzh3ZDf09PQwdMhgdPHvDCdnJzDoDGRmZSEiIgJBQU/w9NlziCUSDB41CUPHfq1RN1IVofUMjBAwYhIsbLWfd1dEGacUt07uRX5WBjr7d8b+Q4eU5oxDXoVg++5DGDtr8Re7p6rw+sl9nNy9BSKhsE6JHRMTs9Xd3f1PqJYlFgN1Q2q1VvrgwYNtp06deplIY1wuF4P690fHviPQMaD6NLnfv5+D3Kw0PHn+DMbGxnVwKV8Wf23dir//2o4FP/8JV+8v5+BLio/B7Stn8f51MIoLC5S+I5HIsHVwRMv2ndBzwFcw07AXUZiXg62rFipVobRxdEWPYePBrFSZRVvwuBzcPLEH+VkZaNGyJY6fOqlU1K60tBRTvv4GkxdpNk3FKSlGSNA9xH76gNKSYrD19WHv5AYXr2Zw9fat9Xg47M0LHNiyBmKxGH379cOixd/VetqrpKTknYGBwXBIozdl1loW8CUBIKkrUqu00jk5OfvMzMx6EWls+7ZtOHPuEn7Ysq/amxrx7hX2bPoJM2fPwvIffqiDy/jyKCkpQWe/DrBxdMX8NX80yDkU5OWiqDAfkEjAYLJgam5JOImCyynF1pULlIJKmvl1RbuA/qgjfUoIeGUIPHUA2WlJaNGiBQ4fP1Yl6GP9ul9g6OQLFw2m3F48uIVLR3ejrLxKB4XOgL6DG6hMNjiZKaAKuGjZsRu69h0Ky1r0Mp7euYpzB/4GAJBpdDi3aIcOTd3QrVtXdOrciXDsgEQiEbm4uDRLSEgogrI0sbyIQF3IEKkq10PduXOnl5mZGaE5i4z0DOzdvQdjZy2p8Sn56MYFUKlUfD1tWh1cQsNAX18fo8eOxaEDB5AcFw0HF/faN0oQxqZmMDY103p/iUSCgwpRYhQqFf4DR8HVp2WdnaNQwJcT2sPTAwePHqlC6KTERDx8Eozv+qqe/uSVcZEc9xkJ0ZGI+fQBKbn5sPQfCGO3ZjByawaDJu5KPoqixM9IuH4Mz5fPRvM2HdB/1CRY2zsRPnf/PkMQ8+kj3j1/BIAEx+mrkcXSw9ZHV7D85/Vo7eGE1WvXajy3TSKRKIsXL3ZdsGDBB6iJB69tJ19V15sGgLl///7vDQwMCEUp/LxmNXLyizFy+vxqwzxTE+Nw9cQ+DB46BMNHjKjlJTQsrKyscPL4cdAZjDqXGP4SuHbyAF4/kWqbsfUN0W/cN7AnUH2yJoiEAtw9dxiZyQlo264tjp44odLB9+cff8LE1hkuns0AALmZ6Qh/+xLP7l5D4NXzePLuHVJJLIg82sBq0NdwHjQJVm27w8ilKRjG5lX+bwxjM1i1D4Btl4GIfxeMO0d3gl/GlXbLCY6NPZq1wqvHt8HjlIKbmwH7bkMgEYlQmpWKj0H34OnpCZ9mzTRuj8PhvDxy5Eg0lMfS8uiy2lpqJbF/lFvp8ePHm1lZWRGawvrw/gMuX7yEKQt/rDFuW6YBNvnrr2t5+g0PTy9PODk7aS1/1JCI+vAGD66dBSAl9OCp30LPoO70v0RCAe6cPYT0hFj07tMHW7f/pba7GvT4Mexcm+LMvm2IjY8F2coRZk3bwnTgN2juQHxuXga2lT3afr8d6c9v4/HOVfgU+hrTl64hVBiRrW+A/qOn4Oy+v5Dx8j4eLPoKjI7DwOz5DZglXJSUEku4MTQ0tEA1uda1IbWi3KlS+dvVq1ePJZPJhHRyt/7xB0wtrNCyQ/VzqCVFhXj7/CE8PD3QogVxwfrGiI4dO+H6jZsNfRqEwONycKpcqYRGp6P3mKn1RujRY8fgl/Xrq3iPOaUcPHz4AHdv30Ex0wT5Nh6wbN0FbZ3rXvXUplNfsK0c8OLnadi6cgFmrdiAJgR6JB0DBuDxzYvITE0G2cEbep2HaX0ubDbbDMrFNpRIXVsvhmL3mwKAwmAwaE5OTmOJNBL67h2eBAWh+8ARNY6lXz66LZ0mGKb9TWls8G3hi+LCAgj4vNo39oVw8ejuck83CV2HjNW6kooqKBL62wXzsWHTJiVCFxQUYMG336Jdmzb46/ZrlPSdjc4bT8BtxEwY1gOhZTBybYr2K/eAy+Phn1+/rxJcUx3IZDK6D5AOFbkhtyEqyNJ438pgsVhGUE1oElA7Uqt0kB09erQ9g8EgFAP419ZtoDOY6NC9b43bvnwklY4dMnRojdv+WyBLESzMz23oU9EIiTGReFku4dvSPwCOHnWnBScjdGZSPH5etxaLFledb34dEoKb129AIBRBLBJCIqqb1FJNYOLZAq0WbwGXU4q9v62Se881QbtuvaFnYAiJSIDiQAU9egkRoS6gvBestgqItqSu3PWWSZ1SunTp8hWRhmKio/EkKAitO/eoVkAAAFISYpCZmgwXFxfY2v53ir2blJdiLS2uF/n0OsflY3sgkUjQ3K8LWndVrm7MYDBgbGwCS0tr2Nraly92sLS0hpmZOQz0DUAlkyEWCqvkw8sInZ2SiO07dmDi5Mkqjy/bj2fqjNgn9/B44RC8WD0Vac8CIakjOajqYNW2O9xHzUFuZjouHdml8X40Gh0tO0h18zghgRDmSNVwiouJCfBSKBQZqQEVsSa1HVMrOcl8fHzYlpaW/Yg0cu2qNFWyU8+adZ3DXgcDAPw61Eu1nwaDLLy1tKTxkzrszQvERYbB2as5/HoPgVgsBpvNhomJKQwNjQkVb5dIJBAIBMhKT0V6ahJCHt9GcU4mjhw/ptFvLDRtAoGVN8icfPAyPyF7589gHtiAJr1GoEmf0WCZEy/Powm42WkQ86Uyey8f3UbXfsNg5+Sq0b6tOnbDs7vXAbEIxTf31fZUVBJbW1JXroxJAUDdvHlzRwqFQkgG4taNmzC3stWovnNMxAcAgG/L/4aDTAaxSDobIRLWv5WpLe5fPQOWngF6jZoCFosNa2sb6GkZMUYikUCn02Hv6IzEz+HIT0/CqbNn4N1UMx0NklAqqyRmm4Dn3Ak8504oy09G6dMgxFw+AstWHeHYezQs2nSpdRCMWChA1utHSL5/CdnvnoJibgtW697gvr2LhzcuYOK85Rq149a0Bdj6BuCUFIMb+hBUC3sArQmdC5VK1UdVrTL5Z21IrcrrTQFAad68OSFhsPCwMMTFxaHXMM38ainxUlE+O7svK9Jf38jMygQAQgocDYGU+GjER0VgytK1cHBwhJGRcZ20e/viCYS/fIgz587CoYnmqiokUVWtNKGJA4QmDigTCcDNjkHarg3QJwvg0HM4HAK+AsuS2H+nIPojUh5dQdrTmxAJRWC26gmz+TtAd5aG9YoKshD6Igijv1mgUcILiUSCi1czaa9TIoYwi3jFEzKZrJLMMtTWUit1v62srAiR+u4dqaiojwbZO5ySYrmAHrWR//mJ4lN4BADA2NS8oU+lWoQ8uY9+oyajecs2GqVgaoJLR3YhJzka5y5ehKmpZhoa8gQOoUDtNhIKDQJrbwisvVFWVoTCkFB8vnEGFu5eaNJrJKz9eoKkJgW0JCUOaU9vIu3JTZRmpYDh2R76wxeD2bwLSFTl4YVB78nI3bME4W9eqFWzqQw3b1/5UBKQRhZqAbXBHLUhtWJBesr69etdGQwGIe/VvTt3wWCy4Ohec9e7oLweEoAqDpZ/Ox49fAgajQ5LG+1ijHlcDiQAmDU4GmuLlPhozP1pc530KCQSCU7u2gK6mIOTp0+Draf5ucuSOFRZalUQMw3Bc2wHnmM7cArTkXbyENj7N8GuQw/Y+g+AsbsvSlLjkRnyEOnBt1GcGA2agyfYHYbCunUvkA3UP2wYnu1AMTLHh5DnGpPaodL8tourZuNxTaFt97vK/HRAQEAbIo2kJCcjMjISrt7NNUqa53KI16X6NyA3Nxd379yBi1czUDWUnU1NjMPrJ/eQlhgHJlsPBsYmkIjF4JWVgc5gwMjEDG4+LeDqVXeZX7mZ6fDvM6ROCC3g83D4r/VwtrXAb3/s0FpulyQSEN5HZGQDkZENysQiFCfFInbrGlDzkwCJBBRTa7Ba94bl+DWgWjpqeBIkMDzaIfLDU0gkEo1UbC1sKoYA1jbW2shZV+sgIPoLVS5EL+9+Ozg4tCLS0P1798svULMpbYn4v2WdZdi+7S/w+Xx0rUEBRSQSIuTxXbx59gBW9o5o3bE7hkyY8cWkkLncUvl0TG1QxuVg32+r0b93NyxYtEir82eXS/hqaqlVgkyBwNIDAksPkLmF0H91FBbLDoPM1CPcFK2JFwpDbiEtKR52ji41bm9kYgYGkwVeGRfFRcTrSdJoNMWTrJMpLVkjSt1vU1NTQqR+/ToEADRW/aAo1JouKyNetacx4uWLFzh5/Dg8mrVCszaqp3AEAj6eBF5B2OtgtOkSgFk/bNDYotcl7Bxda/0AKS0uxIEta7Dg29kYOIhwPQc5qLL/grBuIvAkNO10zOXnYyEdNsVEvNeI1ID0f5+enIDS0lIUFxdrqx2u8gfRltSKhCZbW1vTmEymE5FGPn74CADQ09dMKFAxrjgzI1ObG9CokJiQiIXfzgeNzsCYGYuqfC8WifDk9lU8u3cNnXoOxLzVv9WJtpe2qC2hC3KzcWrnJmz5bSOa+9ZuWCC7D9p0v+sDZH1jAEB6UrzG+zBZFcY2MSGhTlVwte1+y96TAZDnzJnjSEQplMfjIS1VGk2jp6/ZE8rMwhokEgkSiQRpaTXXpWrMyEjPwNQpU5CTk4OxM7+DeSVN89SEWBzbsQmGJmaY+9NmGNeqckXDIzM1CfcvHMbBg3thaVV7VU8zc2n+d2MhNcofeBkpmk9PMRQUWzIzMgmRWiAQVBubWhtHmdxat23bVrM+RzkS4hPkNY7ZBppZagqVCis7R2SkJODD+w9anHbjQGJCIqZOmYKkxES07NAVHStF0oW+CMKJf35HtwFfYdDYf68AhPx6YyKREPoE+/fvUZIeqg1MTU1BoVAgEdZiTF0PKCrM03hbxZmKgkqSUjVBIpFUW0urNrHfcmLb2Gjo7SpHRka6/L2mlhoA3JpKn2bv3r5VWyCvMeP9+/cYNXw4khITYdvEBRPmKkchBd+/iaN/b8Tobxb8Jwj9OSwUKEjC5t821RmhAelQwNLSEmgkllrCk/p4OCWaO73EYu2TUEgkkkq9bxm0ITWp0kJms9mEtHkVx8R0AsXWfMqdScXFxXj88JHWN6UhcPHCBYwbNRp5eXnQNzTCjOXrQGdUpJy/enwHZ/Ztw6hp89Gua+0LxNc3aooVCH0RBFppBubOm1svHnoPT0+QRPxG0QUXFRD38SjePqLBJzwer1pVhdpMacleSQwGg1B2vKz+FQDQ6ZprKXj5toWRiRkK83OxZ/duBPTq2WiqW6qDQCDApg0bcKS87A2DxcbsFRuVvP7hb1/i1O4/MGjstCrd8caK2E8fIRaL4NGsFUqLCxH68gk+hb4Gp6QI+TlZyMvORLv27SGRiGFmbgZnZ2d4eHrCzEx7PTRF+Hfxx+NHj6D/8gj4Dq3At20OCYWYYGJdQZQrLaFEKPhHgdVUgg5QgUBQAjVdb4AYqVUSGlJSE6p1k59fIH9fU7qlIshkMnoMGonLx/bg7Zs3uHjhAkaM1L7YWX0jIz0D8+fNw7u3bwEAdAYDM5atVRIYTEuKw5HtG9CyQzeNY+AbA1y8mmH17LGwtndEXGQYRCpSHkNevULIq1dK68zMzNCufXt07uKPgIAAWFlba3X8cRMm4PGjx3j65AkYcc9BT3oDvn1L8O1aQkL9suQWpMdJr81S82tRDKbSN6iVpVasMAugjuSMaDQaofhEPk/7+UX/vkMQFHgZedmZWLtmDby8vAiJtn0pPHzwAN8vXYa8PKnzhMXWw6wV6+GsICjALS3BgS1roW9giHGzay8+LxDwEUYgXFEGTSOhFHH7wnEUF+ajuDAfBkbGaOLqBUtbezBZbDCYLJDJFZMhIpEQGSmJiPr4Frm52Qi8dQuBt25hNYkEvw4dMGrMaAwcNIhQTD+TycSBw4ew+59d2Pn33+DzeWAkvAQ9JRR822bg27eGhFa78riagp8QBgBo4uqp8T4lRYXy92w2sYAXHo8ns9SVx9YSoHax3/JXgUBAiKVcbkWNYolYTGRX0Gh0jJ21GLvW/wBOKQdfT56M/QcPokXLllpeSt2iID8fmzZsxPlz5+TrTC2sMPP7X2Hj4KS07Zl925CTmYZZKzQraaMOYrEYLx/dxq2zRzBg9BTC+3M5pXj77AH8+wzRaPvzB//Gk9tXQWcwMPzreejQo5/GD4W0pDi8enwXIUF3UVJUiBfBwXgRHIwtm3/DvPnzMWr0aKVAo+pAoVAwb/63GDpsKDau34A7t28DQh4YSW9AT/0Avq0v+PYtIaHXT0y8uKwU3Ne3IcrLAAB4+moeKV1aXEFqopa6oKBAlgihqqRtrTXKAIAkFou19lZwS4nHdHs2b42BY6cCAPLz8jF21GgcPnhIPk3WECgrK8OBffsQ0K27EqFdvZtj8fodVQgd9joY74Ifw7aJC5q2bK/1ccPfvsTVg1uRFRMKBouN9hpIQlU5d06pvKhbdZBIJDi2YxOe3L4KfUMjLFy7VV7GVVPYNnHBsEmzsG73aUyc971cSzs9PR0rf/wR/fv0wdMnTwidv72DA3bu3oU7D+5j4uTJYLHZIIkEYCS/gcHLI2DGPgGJT0yxUy3EIpRFBCP/yBpkrhqCwgtbAQAGRibwbK5ZXrRQIFCy1ESjyTIyMmSVL4E68n7XGop/Ai5Xu5vde9g4+RhUIBDg13Xr8NWQoXj+7NkXvZbs7Gz8/dd2dPfvgo3rN6CoSKpeQqZQ0Hf4BHy7egsMVOQd37tyBgDQwq+L1se+dGQXTCkc7Nu3C7Z29hgwarJWpWLKuKUoLsivcbt7l0/j9ZP70DMwxLert8DeWfviAxQKFe269sKKP/bhm2VrYdtEGuoQFxeHrydNxvx585CdnU2oTWdnZ/y8bi2eBj/H9ytWSCWvxELQU0Jh8OIImNEPQeZplxgkSI1G4eW/kfHzcOTtWw5+2GPYWFakyrbtornTNis9RT57QKPRYG5OLOU2KioqAxXd7crkltQFqSVcLrfmf4QCzC0qLqIwT3uxvcHjpmPU9PnyWOjwsDBMnjAR48eMxZOgoHqz3GVlZXhw7z7mzZ4D/44d8dfWrcjJqUgNtXN0weJf/8aAMaoLyxUXFiAhWppD3cRNO+H7y0d3Y0jfrvhm5gx8eP8BQU9foGVHzUvUKl0Pl1ujgJ5EIsHDGxdAplAwbfGaKj2P2qB5205Y/ttuTF7wo9zZdOvGTfTv3Qc3r98g3J6RkRFmzJqJh0FB2L5jB1q2agVIRKCnhUH/5VGwou6DzC2ssR1RUS5KHp5C9m9TkL1lGkofn4WnvRV+Wr0Kwa9eYehXFUk4fgR6SIrliTStzKGIwMDATKghNFA7R5m8kfz8fEJ6p4qigdnpKQC0L3Hq32cInD18cHrvViTFRgEAXr18iVcvX6KJoyPGjB2Lfv37w9FJw1Q6NYiPj0fIy1d4/OgRgoKCwOVUJYGRiRn6jZyEjj0HVPvUTkuKkz+pTcwsCZ/Ls3vX0bW9L4YMHQqhUIil332HgZMWo6hUBDqNDCadDCJ+r7zsDHBq0EdLS4xDaXEheg4ZDbemvmq3EwmFSIyJBJdTAhNzS9g4OGtkwUgkEtp07oEW7f3x6MYF3Ll8Si4F/PjRI/y8bi1YbGJjYwqVggGDBmLAoIF4HxqKg/sPIPDWLSAjArTMSAisPMFzaAMJvcJRJRHwUPbxCTght8D7/BoQi2FsYoIhX0/BiJEj5U5ZgUCAC+XDLEc3L0IPucSYSPn75r6+Gu8HADweLyc4OFjRUVZn3m+lp0R2djah2femPhUe4PTkBC1PoQJ2Tq5YvP5vvHp8B7fOHZVXXkxKTMTvmzfj982b4eLigjbt2qFZMx84OjnBwsISevp60NfTk5dREQlFKCwsRFZWJtJS0xAd/Rmfoz7j44cPSpa4MmybOKNL36Hw69FXo6SLPIXbxSAQfAMASbFRKE6LxqSfdgIAjh09isJSHowtncAtE4FbJkIxCdBjU6HHqtnhVFyYj7sXjoFTWgJeGVft+WRnSOPtu/StXpr54Y0LKE6PxYJFi/A65BUu3jgNpqkNug8YAT0NQoKpNBp6DRuLtl164uLhf/D+1VNcOH8e79+/x979+9DEUbuHc4uWLfHXjr+RkZ6Bo0cO48yp0yjM+ARaRiSEZk4AgMKzv6Ps0wtIykpBoVIQENADI0aOREDPnlVyvi9fuoSsLOn/rFsNabOVER8VrnReRFBSUhKPijI7qqy1VqRWbEQCQBIbG5tGpIGmPj5gMBjg8XiIDg/V4hSqgkQiwa97X7Tt0hPvgh/jye2rSPgcIf8+Li4OcXFxOHembo5lZeeIZm07oIVfF0KVGgDlcEIiutHc0hKc2vU7zp49DQAQCoXYv3cfAoZNVdpOLAGKS4Xg8cUwMaRVa7Vf3b2C23dvY/CAgcjNyoBtE2eV2/F5ZaBQqDAxr75n0WvoGLx+fBtMJhPTvvkG0775BokJiTh08CBKJAx07TdcI6EFYzMLTFuyBh9fP8fZfX8hJjoaw4cOw669e9CuvfaORWsbayz/4QfMX7AAFy9cwOGDhxAfL82u4r67D08vT4wYORJDhg1TO9blcjj4e9tfAABzK1u0IjDs4ZQUy3uUANCCoIhmfn5+HKpaaSVrTYTU6vrwksOHD8fOnz9fAg3rXTMYDHTv0QO3AwORm5WBxJhIjdRENQGFQkVb/55o698TORlp+Pj6OT6FhiAh+hN4ZVyt2jQwMoaNgxMc3b3h4tkMTu7eYBOIWa8MsYL4fFFBnloiVcbJ3VvQtUsnWNtIx53Xr15DZkYGnLxUe135AjEKigUwMVSdf52XnYn+vbtCT08PzZo3Q3pygtpzIZMpoGtYdtW3QzdMmTgJ+w8dgE+zZnB0csTP69YiKjIKf/y5Dd5+AfBopln6ffO2neDq1Rwndv2OsNfBmDp5Cv76+2/07E2oQnIVsNhsTJg0qTyI5RE+fviAXr17K/Ui1WHtmp+Rlia1Y4PHTydUMC/sTbDc18NiswnHWKSkpERDuSheFV5qa6kVF/Hbt285HA4nmc1maywFOXjIENwOlFZ5uHPxBGYs/0WLU6ke5ta26DFoJHoMGgmJRILM1CRkpiYhJzMNRfl54HJKUMbhQCyRgEKhgK1vIF30DGBobAILG3tY2TqAVUdF02VQnJNWLNJeHcLfvsSHV8+wduX38nUnT5yAibk1qHT1XXgeXwweXwwGvarDLjzkCSaskSaVNHFogtikeKCzamkdI1MzpYCSmq5PKAHGjxmLH1euxJhx0lkKTy9P7N69Ewf27cPFwzsxaNw3SvHv6sDWN8CMZetw7dQB3Lt8GvPmzMGuvXvQIyCg1r8FmUxGj4AAjdv6Z8cO+ZSlV4u2hNVgQoLuyt937NiBsJTTnTt33kGZzLWy1IqQE1r2mp2d/cHR0VFjUvfu0wf2Dg5ISU5G2JsXCAm6h3Zda/f0rQ4kEgnW9o6wtq+dw6wuoK8wxZWbla7RPsH3b8LY2BjNmkuf7J+jPuPtmzfoOrDm0FJOmUglqc31aXLvvJ2DPe49fq62DWt7J5QWF6IgN1uj/G62nj6oNDp+WrEC165exabff4O9vT3IZDJmzJqF9u/fY82a1Rg65VuNi7oPHjcdgHRqbf7ceTh19mytBRc0hUQiwY7tf+OvrdJ5aT0DQ0yYs4xQG1lpyYgOfy//3LtPH0L7CwSCvI0bN8ZBvaUGoN08dRVCAxBHR0e/JtIIhUrBnLlz5Z/PKHiv/+swNK5IastI1qzIWuynD2jVurXck3zxgrScr5NHzd5TvqDq1F5SbBTatKnoAtvb2yMhOkJtkT4DI2PYObni+ulDGp2vgbEppi35GT7tuuBFcDAG9O2LQwcOQCSUDj1atGiB7X/9iUNbVuNTaIjG927wuOlo2aErysrKMGfWTHlcQH2irKwMSxcvlhOaQqFiysKfYGiimaSxDA+un5fPerD12Bg0mFC1Z2RlZcmstAjK/AMUyE2U1JVjTWVPC9Fff/31tNL3NWLUmNHycrQCAR97Nv2EnAxCPrd/JSysK9Qk05JrlsDhcTnglJbArnxOUyKRyOdvjS1qTiKQSABxJeHGiLcvlRxO7u4eEAoEiIsMU9vOuFlL8P7lExz7exOEAvVBhLGRH2FkYgpbB0e06NQDAcMnQSwhYf0vv2JAv354+uQpAKCJoyPW/rIWe39bhTdPH2h8/8bNXgIzS2tkpGdg7Zo1dfrbVMbnqM8YPnQorly6DEDaXZ8wd5nG0WMyFBXk4XXQPfnnSeWRb0QQExPzChWErnNLrfiUEAEQXb9+PTc3NzeUSENkMhm/btwgH1eUFBXi73VLkZP53yU2j8vBzbOH5Z/zsjJqdOCVlX9vZCSdEoqPj5c7aphszRx2lZ+2ZYXZSnm81jbWsLSywvtXT9W24eDijkXrtiE5Phq/fT8LcQpTMzLEfw7H0e0b0cJPOta0tbOHk5cvhs9cBq/WHREfH4+vJ03CuNFjcPLECdDpDPj4NMXxnZsR/valRtfCZLExctp8AMCVS5fxOoRQJ1EjiIQi/LNjB4YOGoTPUZ8BSDMKZ3z/C9r4Ex/L3710CgKBVKnF2NgYM2fPJtqEZNu2bY+gTGqV89Sau+2kUFtyBwC1f//+ek5OTv5EGrSwsICpmSkePpA+qcu4HHx49Qw+rdrXaRHzxoDXT+9j/5afEfvpo9J6nzZ+1QahcEqK8fjmRbRu0xqd/f3xJChI7mTsOmiiRsVLDdhU+dQWj8tBQcpn9OqtLMYQGvoOL54GoVv/YWrn2w2NTdGp50BQKBRcPbkfEe9eQcDjITYyDLfPH8f10wfRqkNXBAweJd3eyBhpqSmgM5hwcPOGm29bACSEh77B/bt3cfniRWRlZkEikSDsTTCate2oMqy2Mixs7JAYE4mcjDR8/hyF0WPH1llu/YvgYMyaMQM3rl2Xe6rtnFwx96dNcHLXrM6XIlIT43Bm7zbIVIh++HEF2vsRC7jKy8t7P23atJMAeAD4AAQAhFDuigPQvvut2PWWW+vly5ffFIlEhOeNxk+YgFGjR8s/F+RmY+vKBfKCeP92RL5/jT9/mo9jf29CYV7VIJbkuOhq95dJPsk0ohPiFbrsGhCaTCYpzVUnRH+Cm7tble38/PzAKSnG6xq6whQqFf59hmDVX0cwZMIMiMViFBfkwc7ZFbN/3IixsyrSSEkkEniKucOGxvDrNRhj5q9E+56DYaww780r4+Lo9o0aFwrsN3ISAODD+w+4euVK7X4kAG/fvMHsGTMxcdx4RH+WWmcWWw9DJszA0o3/aOzQUwSvjItjf2+U55u3bdcW4ydOJH5ub9/eQDnPFBaV3e/aBp/ICQ1AGBISUhQXF3fD3d2dsHLBuvW/IjcvFw/KRf45pSXY+etyDB43Xf7U/7ch7M0L3L10EgnRn+TrPDw9MHnK17hx/TqCn0u9zUmxn6tth8Fig0qjyQvppaZUqKmSULMjo7LnOyUhFl4dqwY99OnXD+t+Xot7V06jfbfeGkXH2Tm61Kh1rSpfmM5goplfVzTz6woBrwwlhfm4e+4Q0pLi8PD6eY0EI5zcveHk0RQJnyOwZfNv6NuvH5gazqUD0iCS169fI+hxEB49eCAPQgGkkX5d+g1FwKBRGkXCqYJEIsHhbb/KoyZZLBY2bN5MOOlGJBKVLl++/A6ULbMqRxmAupnSUnxyCDdu3Hj8wIEDw0gkEqG2aTQadu7ahXlz5siJLRaJcOX4XkS8eyV3jjR2cEpLEPL4Lp7fv4GMlArPdoeOHTF77lx09u8MEokEGp0mJ3VqQmyN7ZqYWyIlORkAkJRU0a4mnkk2U/lPlJYYB6uvqk6nWFpaok3bNgh5FYIHV8+h91fj6uSemFlYIldB7aYyaAwmTCxt4NasDUKf3cO9q2fQuc9gsDQQD+jabxgSPkcgPT0dv2/ejJGjRknnviUS8Pl88Pl8lJSUorCgAJmZGcjMzERiQiKioqKQnJRURWvNwMgYnXsPgn+foRoNA9RBJBLi0NZfEfGuQvll42/ScGWiiImJuf7u3bsiSEldmdhAHVlqVd1vIQDhoUOHUn/44YerHh4ew4k2TKPR8M/u3Vi9ciXOnq6I54wOD8X676aia79hCBg8CobGxKYS6hslRYUIexOMD6+eIurjWyXPcECvnpg7b540U0gBjo5O8vcZqYkQCPig0dTL8FjZNUFkaAj4fD6io2Pk60mQQFJNIB+TQQaNqkzqnKx0sPVUE2bUmDEIeRWCW+ePwtO3NSE1D3UwMjGtltQy2Lt5IfTZPXBLS/DyYSC6DxxR4z7N23YEjc6AgM/DkUOH5VpwRMDW04d3q/Zo1bEbfFr5EYoQUwVuaQkOb/sVkR/eyNdN++YbwlNYACCRSISbN28+BWVCq+16A3WTpSWutAjnzZt38NatW33Ki2MTApVKxYZNm9C+vR9+Xr0aJSXS8ZhIKMTD6+cRFHgZvu390b5bb3i3aNcgwoNCgQBxUeH4/PEtoj68QUpCjFKaJ4VCwcBBgzBzzmx4eakOf1VMuROLREhPTqg2htza3hFhr4OxeOEiFORXZLpKxCJATXeOSiHBUL9qxFJJNTrTgwYPxoZf16MgPx/7t/yMBT//AXMrQsVMq0DTyiLmNg6gUGkQCQUIeXJfI1LTGUw0bdUe719qJqygb2gEM0sbWNjYoYmrJ5zcveHg4qFVHroqZKQkYN/va5SmZvv264fvV/ygVXuxsbE3Dx06lIyqjjG1U1q17X4rhYvKlnv37uUFBgbuGTRo0BJtb86w4V+hcxd/bNqwAVcvX5F3k0RCId49f4R3zx/B0NgUrTp1g287f7h6N683gudlZyIpNgoJ0Z8QHxWO5Pholc4cFpuNUaNHYfqMGbCzq764uaWVJShUijwYIz0pvlpSO5QLEgTeuqW0XiTkg0KvSlwalQRjQxrIKm5JaUkRhALVzig6nY7JU6Zg+7ZtKMzLwbZVi/DN0p/h5EHc6yuDpr8LmUyGmZUtslITkZoQg5KiQugb1jwD0rRlOzmpx89ZCnefllWOz2Trgc5g1Gvpouf3buDysT1KU5QBvXpi29/bQdHC+otEorKVK1fuQwWhv4illqEKyfX09Gqt3m5hYYE/tm7FrNlzsGvnTty8cQOiSskQj29ewuObl6BnYIRmbfzg6u0LZ4+mMLe2I/z0LczPRXZ6CjLTkpGVmoyUhFikJsbWKLlkaWWFCRMnYsLECTA20UwCnUwmw9LCEunp0jDRmlJQ1SW8CHhloCjkA5NIAJtJgb7CFJb8R5JIo8uYTDYKq7HW076ZjtMnTyIrKwvFhfnYsW4Zxs5ajLZdemr1O1YUlKgZ+samyEpNhEQiQVJsFJq2qjkjy82nwukX9iaYkGBBXaAwPxen9/ypNH4GgP4DB+DPbdu0LtUbGhp6/MyZM2mQklqAimGuWkIDta9PXXmBsbEx5c2bN8tcXFwIj6nVwcPTA1u3/4XvV6zAubNnceniRSQlKodXlhYX4uWjO3j56A4A6bSLpY09jM0sYGhsChZbDxQqFTQ6A2WcUvD5PPC4HBTm56IwPxcFuTlqQyRVgcVmo2vXrhgybCh69eqtsVieIqysreWkVlTDUAUTc0sYGpuiqEC5tEtJUT7YhmagUqXiCEwGGeRK5lkokqCEI0QZT0ouE0sbZGRkqD2Wvr4+Nv62GTOmTYdYLIZAwMexHZsQHR6KEVPnERZJLC3WvHKFona2pkFI5la2MDazQEFuNqI+vIVYLK6z7nR1kEgkeHb3Gm6cPgROpQf/7DlzsGT5Mq17j6WlpUnDhw8/ggpCyyy1YrcbqAdLrVSn2szMjB4WFrbB2tq6f33cRGsba8xfuADzFy5AVGQU7ty+jbt37iDy06cq0kUioRDpyQl1IsIAADY2Nmju64vWbdqgvZ8ffHx8tCJy5evBO+n73KyMGrd3a9oCb58/VFoX+fYRmrVQny7I40vTLxWdvLaObgj7GIaRo9RPFXbr3h0//LgCG35dL1/34mEg4qLCMX7OEiWp45pQWOlBVB0Ue2JEytg4unqiIDcbvDIu8rMzYWZlo/G+2iAh+hPO7d+OlIQYpfUGBgbYvOV39OmrfW9BIpFI9uzZsyEpKakUFYEmqsbUdWKpqxSbR3k0GZPJpEVERGywtLSsE0JzSjmIjPyEtLQ08Hg8mJmZwczMHLZ2tjAzM4Onlyc8vTwxf+ECFBcX493bt3j18hUiwsPx+XMUMtJrJonKG0KlwtnFBa5urmjatCmaNW+OZs2bw9S07j3uVgoVIPNzahaPcfPxrULq6sqnSiRAYSVCA4CDmw8+Pqk5WGPaN99AKBTh982b5T6NrLRk/LX6O/j3HYJBY6dpVJWiuKgQZLpmo7HSogKt7qVNEyd5iGteTv2ROj8nCzfOHMbrJ/eqTId179ED6zdu0LpAgQyhoaFHlyxZ8hZSQssWldFjqkC0QociqSnl+1MBUCMiIr6ztLQcVpuLKS4uxqULF3H92jWEvnunVjjQ2MQE3t7eaNe+Pfy7+KNlq1bo2q0bunarUKAoKipCQnwC0tJSkZ6Whry8fBQVFcm1xUgkEkxMTWBsYgJzc3PY2dnB3t4etrZ2tbbAmsLSsoLUfB4PnJLiasUX3JtWDRhJrWQpFMEXiCFW8fPbOnrizD8fkZeXV+PDaubsWbC2scaP3/+AsjJpITiJRIIngVcQGhyEQWOnwq8G3W8ejweWhqTOU0hFJZLHbm1XkVJLRE1GUxTkZuPe1TN4fu9GFSepvb09Vqz8CX379av1cbKzs9/37NlzH1SHg6qK+64CbbrfShYOUm7vAAAxWElEQVQaAP358+cDnJ2d52t7IVwOB//s/AdHDh8Cp7TmH6QgPx/Bz58j+PlzbN+2DZZWVhj21TCMGTtOLjBoaGgI3xa+8G1BTNjtS8LCUjkvuYzLqZbUlrYO0Dc0UtKM5nJKkZORVqXGNQCI1RSxY+gZgcFi48K585gxa2aN5zlk6FD4+Phg0fwF+PSpIjquuDAfp/b8iUc3L2Lg2Klo3raTyv1pTM2ykUqLC8FRELk3s9Tc2lrZa5zKTwhJsVF4fOsS3j1/XKW0kI2NDeZ8Ow+jRo/W2hmmCC6XmzVp0qSf8vPzOahqpRUdZNVCU1JX7nbLCE1btWqVQ/v27bdoeyG3AwPxy9q1St1lQ2NTuHo3h00TZ1ja2MPE3BI0OgM8LgfpKQmIjfiAiHevwOVINcOzMjOxd/ce7NuzF3369sWsOXMaNZllqCzizi8viVodXL2aV8mkio54r5LU6n5+iQQIGDoJhw8dwuSvp4ChgfqIq5sbLl+7hv379mHH9u1KVVbSkxOw//c1sHNyRc8hY9CyQxf51FFZWRmoNM1qW6XGVqhskkgkNHHVXPvNwKiix0FUzLEyuJxSvH3+EC8eBFbJ8SeRSOjQsSMmTJqI3r371FmvTigUlq5Zs2bZ7du3MyG10jJLXdlBVq2VBrQjtSwriwaAvmzZsi0UCoWwYBeXw8Ev69bJI8cMjIzRsecAtO7Uo1q5VRevZujcaxBEQiFCXz7B83s3EPvpAyQSCSQSCW4HBuJ2YCD69uuHxcuWwtXVtU5uen1Ar1JUl6KTSB0c3b2rkPrzx3foGFDVlUEmq+8S+7QPwI2Tu3Dk0GHMnD1Lo/OlUCmYNWc2vhoxHNv+/BMXzp+Xz7MD0nDXo9s34PJRU/i09oO5lS30DI0hotBgYGyKmiTsPr+vEEuwc3QlFDnIVuiqMwnWpgKk4b0fQ57jw6sniPzwpkq+uG8LXwwcNAgDBw2Wa8TVFUQiEf+ff/5Z8fvvv0cCKIP6rrfKVMvK0ITUqtItaQBor169+srAwIBQqiUgrQY5Y/p0fIqIAJVGQ9/hE9Fj8MhqwyQrg0Klok3nHmjTuQcyUhJx+8IJvAt+JHde3A4MxL27dzFpymQsWLQIhobaBeXXJ7gc5YQ2TaY/nNy9q6yLfB8CkVBYRaWTQlHfHoXGQqvOvbH7n38wfOQIQlUiLC0tsWHTJsz99lscO3IU586cUVIgKSrIQ/AD5SAZKo0GA2MzsPQNwGTplSep0EGl0UFnMlGYm42s1IppSqJz4nyF6UhzDbrtEokEqYmx+PzxHSI/vEFM+Hul7jWFSkGbNm3RvUcP9OvfT2tp4pogEon4e/bs+WHhwoWvoEzoyqSukcwyaDKJRi7fTj6GBsBo27at8bNnzx7S6XRCbsa4uDhMGj8BmRkZ0Dc0wuwVG5VKu9YGWWnJuHXumBK5AcDU1BTf/7gCw0eMaFT1rC+cP4/vl1boXP2y+0yNEjl8Hg/ffz2kihNxxrJ1aNa2Y5Xts/P4EIlV/xf4nEL8sWwCevbuhT379ml9HQKBAE+CnuDu7dt4/PgxsjKJF2FXBIPJwtp/ThJylBXm5WD1nHFg6+lj48FLVb4v43KQFPsZSbFRSIz5hNhPH1FaXPEgIpFI8PD0QJs2bdG5iz86+/sTLgZPFEKhsHTbtm0/LFu2LAQAF1JSyxZ1OdO1HlNXttLysfSxY8cmEyV0SnIyxo8eg5ycHFBpNMz8/tc6IzQgdSRNWfgjegweictHd8vFCPLy8vD90mW4cO48fln/K1zd3Gp5pLpBQnyC/D2FQoWBcc3RaHQGAzYOTkhNjFNaH/LknkpSG+hRUVCsWnrI2Ezqu7h/9x4OHzyEr6dNhTag0WgI6BmAgJ5SRZCkxESEhIQgIjwcEeERiI2JkZf01QR9hk8grOCaW14ggUqn4/HNS+CVcaURghmpyExNQkFuRV0uKpUKJ2dneHXvBk8vTzT18UHrNm0IF6qrDTgcTubq1au//+OPP2RdbtnCg3oya2SpNe1+KznIvLy82K6urtOJXASXy8WsGTPklS5GTV9QZ1rfldHExQMLfv4T754/wuXje+U/6KuXLzGwX39Mn/ENvp0/n7BGVF3j7ZuKLB5bR83K0wCAnZNbFVJ/CHmG/JysKmL7TAYZJiQaynhiSCQSkMkk0GgkMGjSyLOvJs/BHz/Ow8b16+Hi6qI0Laj1/Xd0RBNHR4wYWZFWz+VwkJSUjOTkJGSkpyMrKxvZ2dm4evkyeAr1yi1t7NFjUM2JHJWRVn4/WrdsAU97Y4hEhhDYm4LdoQXodDpMTUxhbmEBO3s7WFtbf5GIM3XIysoKHTdu3OoHDx5kQpnM6gJNCGn/aWKpq8xLHzp0aCCNRrOqqXFFbNqwEVGRUk9iu6690KFH7ef0akKrTt3h06YjAs8fxcMbFyAWiSAUCrFn125cuXwZK1etRr8B9RL8ViOysrLwOqTCMeSmYg5aHVROX4lEeHTzIr6aXFX7ikEnq5QIBqS6Yx17DsDzezcwb/Yc7Dt4AB06dkRdg8VmywOGZLhy6bJcFRUAaHQGpi5epVXSRVzkR1CoFGzZ+ieMjY3r/PzrAhKJRBISEnK8Z8+eB0pKSjiQElmxu63Y5a5Wh6w6VPe4Iilso6RF1rRp0zFELiY8LAwnjx8HABiZmmPE1G+/2I2kMxgYMmEGlmzYodTVz0jPwLdz52LMyFFKFvNLYd/uPUrebiKi8FZqZHWe37uh1M3UFMMmzoSVnQO4XC5mTJsu1z+rTxw+eAhLFy+We89lKp2ykrZEIBaJ8On9a/Tu06fRErqkpCR5w4YNC/z8/PaUlJSUQjqGlo2jK3u7tSY0ULNGmcxJJiM2dfHixbaGhoaEihlt+e13ueNqwpylGila1DXsndyweP0ODJ04U6kqxJvXrzF6xEjMnjETEeHhtTiC5gh59QpHjxyRf3b28FHp1VYHS1vV5U/5vDJcOU7c4cVgsfHNsnXQNzQCl8vFt3PmYtuff2o0xUYUnFIOlnz3HX5dt07+nyBTKJg473tCNakU8el9CDglxZg8ZUqdn29tIRKJeE+fPj3o5uY2beXKla8BcMoXRVIrWmmNosaqgyaWWml+etKkSb2hYc0sAIiKjMKToCAA0u6wp2+bBrvBZDIZAYNH4Yct+6ucx727dzFk4CDMnjETYR8/anmEmvHm9WvMmDZdThgymYwRU+cRasPC2k7t+Pvt84f4HBZK+Lwsbezx7eotMDAyllejGD1iJD5FRBBuSx1u3biJ3j17yjW0AWl8wryVm7WS3ZXh2d3raNGyJWGFzvqERCIRRkREXBs2bNjELl26HMzMzCxEVTKrs9BaExpQT07ZWFoW200HwATAzsnJ2WdmZqbxL7Dh1/U4uH8/KFQqVv11pMaqiTLERn7EvcunkRQbBRKJBEtbB7j7tETLDl3rrOB5SNBdXDm+D8WF+VW+8+vQAdO/+QbdA3rUmVPlxPHjWL/uF/D5fPm6YZNmoccgwjqNWDlzFIrLc6Jl5yeb5jI2s8APW/Zp1SMqyM3GgT/WyiOpyGQyBg8Zgtlz58Ddg1h1T0A63RV46xb27tqtFGIKAM3adsS4WUs0EkJQh7SkOPy2fDYOHD5UJ06+2kIoFHLCw8NvrVu37tzFixfToBzuqbhUdohp5elWhepILbPO9PKFBYAtEAhCqFSqRr+CRCJB106dkZ6ejg4B/TFOQTq2OgQ/uIUze7fC3Nwc3QMC4ObmCiNjYwgFQoSHhSEyJhFtuvVRG2tMBGVcDu5dPo3Hty6pDNO0tbXF6LFjMWToEK0DEBITEvHL2rV49FA5w6rv8AkYMOZrrdrcuOQbubChnZ0dvl24ACuWVxTPa+MfgMnzV2jVtkgoxO0Lx3Hv6hml5IU2bduib7++6OTvD09PT7W9hazMTLx9+xYP7t3H3Tt3UFwpn5rF1sOwSbPQIaD2Tsp9v68GkyTA6fKidQ0BiUQiysrK+hgcHHx/6dKl92JjY0shJSxf4VXxvRCqRQRrTWigelLL56QBMACwVq9e7bV27do7mjYeGxuLvj2lRe8WrP0Trl41FzNLiP6Ev1Yvwuy5czF/4QKVgfJCoRAPHzxA4J2HcG7RgVBurzoUFeTh8a1LeHb3ulqlE59mzdCzV0+0bdcOjk5OMDAwAIlEUprfLCsrQ0F+AVJTUxAZGYknj4Pw8OEDpXBKOoOBUdMXoH03YgXSFPH32qWIiZAWWzM3N8eL1yH4bdMm7N29R77NuFmLa0WczNQk3DhzGB9ePa2SZkin0+HQpAnMzc1Bo9EgEAhQWFCAjIwMFBQUqGyPRCKhbZeeGDJhRp2IR0a+f429m1fi8vVr8PbW3CdRFxCJRPy0tLS3r1+/fvL7778/Dw4OzkcFUQUKi4zEqsisyjrXitCAelIrhoPSISU1+86dOwN79+69Q9PGL1+8hKWLpdZ5y/EbGoWBbv95Mdwc7bBz9y6NjvHp0ydcufUATs3aw8BIMymh6sDnleHt80d4+TAQ8Z8jqvyZawMSiYRmbTth+JQ5MLUgNCNYBYe3/Yp3wY8BSBND3n2Uxr+vWbkKJ0+cAADQaHQs+vUv2DvVLtgmMzUJQYGX8fb5I0LCBTKQyWQ0b9sJfUdMhJ1T3cTi83ll2LR0BsaNHYVFizXrAdYSkvz8/Pi4uLg3T58+fbNly5YPKSkpXCgTtTKpFT/LiCwbO8tCP6tVMdEG1U0IVs6fJllaWhIqURAZKR1Dsdh6GhE6JzMNsZ8+YtY3mnsxvb294e3tjeiYODx6HQFb59oFtNAZTHTo0Q8devRDQW423gU/Rvjbl4iLCtO4ckRlMJgstPDrgq79htVZBJ1iSSLZGJ1EImHtr7+ArcfG/r37IBDwsf/3NViyYWetNKyt7Jpg1PQFGD5lLj69f43ID68RE/4eGSmJah96ZDIZDi4eaNmhK9p26Vnnss7nDvwNNxcnzF+wsE7bVQSHw8lKSkoKfffu3Ztdu3a9efLkicway3XuFV7VLSJUnw9dJ9ZZEZqSmgSAbGBgoJmXqxzZ2dI5U01D/uLLC64Za/EHdHdzgbubC06cvwEje486ifE2NrOQF63n83iI/fQBiTFRSE2MQVpSPIry86qMw0kkEoxMzWFl6wB7Z3e4+7SAm08LQskqmoCqkLwhVHjYkEgk/PDjj3B0csLa1WuQn5OF/VvW4NtVv4FGrznFsjpQqFQ0a9MBzdp0ACCVG0pPTkB+ThY4pVILrm9oBFMLa9g2cSasZaYpnt65htSYcFy5fq1OBS0kEokkOzs7Iiws7Pnx48eDDx06lIRKxSpqeK9qnWLpWVWe7TolNKB5mCgJAIlOpxMKjs3Pk3qVNfXCcso1vj98eI+AXtopV04YORDnL9+ExMCmWsEBRfAFYojEEpBAApVKAlVFdhOd8b/2rjyqqav77gyEhBmRQVQUBJnFERW1UhGt86yFSvtpHX6tFq3Yaq3Wz2U/lVartlVbLVatVXHCsRTFqSqgoBUVReZRBgEhDJnzfn9g4PF4CUkI2kL2Wm/lGcnLvUn2O+fce84+hnDvOwjufQc1eV4qkaC2hg8DjiFYTCYM1ZD30QXINcNGNOmuQcHBcHZ2wdKPPkJO2hMc/H4zPgxbr9OCFiMTU/Ryfz1N3xVIe/w3Yk4cxJHjx9RWbm0BRFFRUfLdu3ev7dixI+769esVUE5edQ9lRG7WS7otQLdX06AMCoqlZjKZGt3qFfI3UPOH1M2xPvY7Hnm8ST6wppg5dTy4wmI8z8tS+XcCoQwvKsSoqJKgqlqKymoJyl6KUVohBr9WCqms5c+dbWAAc0srGBmbvDZCA02ts7k5/WbEIN9BiDp/Dl7e3niUeBuHfwzX6RrB60ZuRip+/zEce/b+pLRJgrqQSCQ1iYmJkTNnznzf3t4+bOrUqWeuX7/+HEAt6aih/Ftx0CWQqCqb1Nl2lTpoyf1uck4QhEa3eUXKnkigXiPMXu7ecPbwQcaTZGzftg2r16zRemKTJozD1StXER9/A31pMpWqa6WoFdBnTMnlBOoEMtQJZOBxWTAxYoHF/OeUbAKATNpYeaWqaN/e3h7HT51E+ObNDS1p5i5dpbHFlstkyHj6CCn34pH68B5KCvPANuDAx3c43ho3tc2KcxQoyE7H/q3/xQ+7vsfgIUO0vo5EIqlLSEg4MX/+/FMZGRnVaLqQRY2D5Wi6sCUHvRUmW2LyI9XFfi13VE1EEiCRSDRSdFN0qagoK4FMJlUrUT9k6Sp8s+oj/LJ3H7y8vbXqP6TAqIBR4PHicPD3fRj/7ryG95dICaWEpkIglEEoksHMhA2e4esRJFQHVS/LG85bKiXlcDhYt349hg0fgc9XrkTE1v/ig2VrWoyxJRIxnv6diIeJt5FyPwGCulpYuvVHl3feg9eQQPBz05Bx8mckffkJeji7YeT46U2kjHSFZw/v4VTETuz5eQ8G+Q7S+jqZmZnX33///R/j4uLK0TwBhLrVpMyVpraaIneoAZpb49fuGtH9SpUphhosXrx4gLW1tdp5nnw+H39GR4MgCPT26odO1i3LwHCNjOHs0Qf3428g5o8/4OjkhN5aZDIp0L17d/TsZodtmzagl3sfcI2MIRTJIZao3zUCqNfPlsoIGHJY6kYTbYqzh/c2aLTNfT8Enp4t79U7OjliytQpuHP7L0SfOQnPfr7NJH7FIiEe3r2F6BOHELn3O9yLuwGRaWc4TJiLPks2oue4IFi4eIPNM4axnQO6j5oGKy9fFKcmI+FCJOKvRkMsFMG2qwMMNWgrqwxXz59A4pVz2BuxD17eXlpdQyaTiY4ePRru7+9/ID8/vwqNrrLikXyQk0SoWV/URwWpqdtTbzTGUYfUCj0yg6CgICcHBwe1c/FsbGwQEfELCDkBQx5PrRYqAGDRqTN6e/XD/fgbuHDuHDiGHAwYOFDrRR4bW1sM8R2E/61ZCa6JGTrZdteY1EB9pwupjHjjFjs3IxVXzzdmUK35cq3a1UkmJiaYNGUKunezx6+7toNrag4uzxiPEm/jYuSvOL5vJ/6+cwuyzt3gOGU+fD7eCIcxs2DeyxMsQ3pBPyMbe3R7eyps+g9HVWEOkq+cx43oKLwofg7LzjYwt7TSeI5F+Tk4sGMjHO0s8cOuH2Bjq92+vlgs5q9du3ZlWFhYApqWOlJJTY6D6balVLncwBsmMhkMJc+RU0QN8Srv+9ChQ/4hISF7NXmDRQsW4GrslXqJmj1HNcpHLinMx8/hX6K8pAgBgaPxzdatSheF1EFZWRkWzJsPO+e+8A2cA23XjEyM2DAxenPE3vftV3icFA+gfp/+fPQfWl3nauwVLFqwAADAYLHRuc8QdPEbCzvfABiYaK/pVpX5BBknf0Zx4lWAINDTxR0j3pmCfkNHtuialxU/x6Wo3wFRNVaErcCAgQO1HodEIqlevXp12HfffZeKRhLTSe9SiylU7SWTfzX/GCKToSqjjJwiygVgNGnSpK7nzp27rskbxMfFIST4PQCA/4QZtEX8qiCorcHhXeF4fC8BPXr2wK8HD7ZKBE4gEGDZ0qXILizD7I/WgcnWXE6WwQCsLTkq1TrbCin3E7A3fF3Dvzd8vRHvzZ2r0TWqq6vx0+7dOHDgEMzc+uuEyHTgZ6ci80wEim7HgCDkMDW3hN/oCRgWOLGJ9ZbLZHjyIBH3bl5GL4cueDc4CD4+6otGKMPevXu/XLx48U001/5SRyT/jS10tRYtkZqNRlLzAJjU1dVd5PF43dS8PgBgblAwEuLjwWSxsHLTLo1TBQmCwIlfvsft2AuwsbXFqTNR6NJF+7YqMll9K5n9EfsxY34Yevd7C3INvy5TIzaMX7O1rix/ga1ffNxQnWVjY4Orf90AV4PY9dbNW/h85UoYuA6C54drdE5kOtQUZCHj1F48vx0NQiYDk8WCj+9weA/0Q2bqIxRmPkVw8LuYNWeOznTCUlJSznl5eX2H5qWOCg0wau3yG12x1iWU/SoVcXWD2smrw2DBggWeFhYWrmpeHwDg3ccbx44efbUtkozB/mObydmqAoPBgHvfQXicFIfiwgJkZWZiytSpWk+ayWRi+IgRcOjhgN3b/of0x3fg3tcXLAPNrDaP+/pILaitwe6vVzVppLcpfAs8PNTvGy2VSjFx3Djwa+oABgPdA6aBqeNMNzpwzCxhN2Q0uo6YCKmgFtV5GSjKy0Ly3VvIz0rDlKlTsHzFCrWaCqg5z9rp06d/VVBQUI3m8XNLe8jAv5DIZLRE6mYqoqNGjTJ0dXUN1ORNrKysYMBmI+52HGqr+agoLYbP4BEaDZTBZIJnbILkOzeRm5OD6TNmwKwV8TUAuLm5YaT/SERfOIc/Tx4ACxL06O0FokVBmPpv3Zj3ekjNf1mBXRs/x3NSM7wpU6diaWioRtfJzMjAwV8PwPLTnyDMT0feyT3g2XaFSVfNJYS0gYGJOex8R6Hb21MhlwhRnZsGQi5H8oMHSEpMgpuHO6ytrVv9PlVVVXlr1649LRKJBKBf2VYmu/uvJrMCqn6VZL3vBoudmppavnDhwmAmk6nRZmT/AQOQkpKC7KxsFOXngMFgaCS2B9S3Vrl6/jgAYOTb/uihA4F1G1tbzJg5E/n5eYi9eAYJsVGwsraCbTdHqMq1IYj6BbO2RlF+DnZt/AylRQUNz/Xt1w8/7tmtcf+mjPR0nD55CiZj54HnNxkMO0fkR36PsruxMHf0gKGF5qvU2sDAyAQ2A0bCYfQMEHI5qnOeIS8nG8eOHEFeXi48vbxa1XyBx+N1mjBhAnPPnj1xqCcy2eXWWnr33wJNLDULALu4uBgLFixwNjc316iej8FgYFRAAK5fvYqysjJkPn0IU3NLjfolMRgMXIo6AgAICn4P9l3t1X6tKhgaGmLc+PGwtbVD3O1beHj3Ju5cPQtrG2t0tuuu1HK3Nalvx17A/m0bmojO+/j44MBvh5q17FEHGenpOHf2LLhDJ4FpYgGWlT14flMgEgqQFbEBguJcmDt5gM17PRpybJ4xrPsNR/fRM8BgscHPTsWTR49w+NAhvCh9AU8vL63mCQA2NjZeJiYmNy5fvqxQH+kQhAZUk1rx2KwXtbOzc82gQYM0TvXicDgIGD0asZdjUVVZiSd/3wWLxVa7KODxvYSGGuLFH38ES90k9DfAy9sL06ZPR05uDjLS0vDkfhxux5wAmwlY23cH26BxQYrFZLSZ+11W8hwHd/4PN6KjIJc3Zr6NDgzE3l/2wVjLzhGVlZU4HhkJru87YJm/cnMZDBg4uIE3dDKq0pKR+csGSGqqYO7kAVYbVVlRweYaoXOfIXAYMwtMtgGqslPx4F4SDh/6DS9fVsDN3V1jcjMYDIanp6fjli1bTkF5w/Z2R2hAtYBgg4IoKJJGAIxfvnz5m4WFhfqrNCQUFxXjg5AQZGbU91b2GTwCcxYua1IjTEVtdRW2ffkJykuK0KlTJyQkJbapIPuf0dH4Zks48nIb+zvZdXfCWxOC4dC7D4yMeLCy1O2Pvraaj6vnj+PGH1GQSBp1zNhsNlZ+/jk+XLigVVVWBQUF8B8+AhZLdoLj0p/2b2QvClBzdhfk2clwmvwfOE56X2nSSVtBWleD7Iu/IeePIxDzX8LQ0BBB7wVj0f/9H2xsNKr+xdGjR4ODg4Nvo34FnNxJUkHudgdGC/+nsM7k/WoeAOPIyMh3Zs+eHa7tG/P5fHy0aDHuJCQAqC/jGzVpFvwCxjchN0EQePL3HZz6dVfDyu/HS5dixcqwNv9wpFIpjh05gl0//NhQG64Ak8WCk6sX3PoMgJObFxx69da6Xrmy/AXirvyBv6KjGlI/FXB2ccG27d/B00u7FEkyZFIZPNxcYfLB1zD0Vt3XUJyWhJqoH8ASVMF5xiL0GDsHDB3ndLc4XpEAOX8cQfqJPZCJhDA0NMTsd+dg2fLlapddlpSUnLWzs1uOpqRWbGe1S2vdEqmbNcYDyVpXVFTst7S01LqgViaV4bttW/HL3n0NkrkMBgP2Do4ws7SCRCxGcUFOkybr7u7uiDx5EkbGr6/MUSgU4mzUGeyPiGjwLqhgsdno1tMZdt16wK5bD9jYd4dFJysYmZjB2NQMbLYBxGIRJCIR6mr5eFH8HPlZ6Uh79Ddy0pvLJllYWGD5ik8RFPyeToUAAvz98XLYXHAHqdEhRS6HIP4caqMjYGhkjN5zlqDbyElql9K2FpXpj5D6+w6UP7rz6hkGAAKz5szB5vAtal1DLpfXOjs7D8jOziZvb5H3qDsUqYGmLjg1EcV406ZN/VevXh3BaGXl/dOnT/H99h2IvXxZZb1vQOBohH/77RvrwkAQBG7fuo0zUacR82cMBHUaFa2pBWtra7z/nw/wXkhIm7TfXbRgARIt+oA3fLr68xbWovbPXyG4eRrGXRzQ+90l6DJUe9HEllBTkIVnR3ai+G59minAgNS6F8TdfWB0/xT8hg3Dod8Pq3298+fPvz958uRraN6Arl264C2RkbpPTbbWPADGT548+czd3X22Lgbz/PlzXLkci/v37iE3NwcSsQRm5ubw8PTExEkT4dO3r0bXKy8vz+vUqVM3BoOh8+BbIBDgxrXruH7tGm7evImS4mKtr8Vms/HWyLcwYdIkjJ8wQeOtKk2wNfwbHC4gYBTwnsavVcTbose3YObojt6zP4Ktr/Yi/FQIyoqQdmwXCq+fA0HIAQYTEhtniLv3hdzIEgxxHUwSfsNbI0di/8EDal/32bNnO9zc3HageVytsNbtCuqQWkFssrU2RL0LbuTo6GiRnJx8wNTU1PFNT4aKTZs2bTYyMjIIDQ39lMlktmmmSE52DpKTH+Dxw0dIS3uGvLx8PC8spG1dY2Zmhh49e2DAwIEYOHAQhvgNfW3ex7mzZ7H2/D2YTFyk9TUU8ba0KAtmju5wDfoENgPU7wXW7Hr8l8g4+TNyYyIhl0pekdkFYof+kPMavRVmXSWMkyIxZuxY7P75J7WvX1pa+qetre0S1KuVKPK/yYUc7QotrXyQM20UrooU9ZZbDICdnZ1dvX79+rXffvvtPhaL9WZ7w5JQU1NTsmHDhntisVguEAiqV65cudrAQMM8UA3Q07Enejr2bJK+ShAEKl9W4mXlS7CYLLDYLJiamraq0qy1cHV1g+zXs626Bqf3QHT67FcI4s+hJjoCiZs+hkVvH/Se8zGs+w5T+zrSuhpknTuA7POHIBXW1ZPZ1rUZmRVgyOp3BDRtBm9kZNQVTbdmqXJd7SquVnc5U0Fq2asPRSEBIwLA3L59e1q/fv02zp07d1Nr42tdITo6+phYLBYAkK9ZsyYxNzd3xdatW78yMTHRvhJEQzAYDFh2soRlJ93up7cGvZx7gVGQCsjlQGu2BJlM8IZNBXdAIGr//BVVN0/j7sbFsOjtA7f3lsHKS3ntvFwiQk70UWRGRUDMf9kimRs+T2m9bp2RhnvWBgYGndCU0GQdvnYHdSfWpPMlmor8K+JrXkxMzMwxY8Z89qYnVVFRkWZvb/+JSCSSoP5mxADA8PX1NT916tTn3bp1030D5n8Rln8SimuSzjB+Z77OrkmOtwHAynMQXOYsgZVnYz00IZcj/8pppJ/YA2F5iVI3WxnYLzLBexqLhYsXYdUX6rcUkkgkFRwOZxjqRQMVcTU5IaVdWWpNSE1HbEV8zcOrmuvLly/PCQgIWPamLLZMJhMtW7Zs8a5duzLRNGZSbM8ZxMTETA8ICFjEYrFeT8rUPwz5eXmYNH4CZN5vw2TqUjAMdRc1keNtoJ7crsGhEFaU4tmR71FblKsxmRUwKHoKbvpfCF2+DKHLl6v9OpFIVMTlckehUQGUuljWrkitrv9FFldTuOEKF1yRMC8CIAwMDIw8ceLEBrlcLlbz2joDQRDEiRMn/rdr16401H95CilXsqxr3dixY4/Pnz//w+Li4r9f9xh1DalUKjp9+vSBmpqaMnVf093BATt++B6SxGhUbHkf4meJOhuPIt42nRUGpokFylMSEfdlCO5vC0NtcT4ktq6oHTgHQld/jQgNNMbUphpu9cnlcinasbtNhSZBFTkBXkFsReWLgtQCAMI5c+bErFu3bkltbW3R65oIQRDEtWvXdgQFBV1GY2G8gthkgtcBqDt06FBmly5dlh8+fHhDbW2t9vtRbxDZ2dnx06ZN+2TGjBnnb968eVGT1/q//TZ27dkDRnU5Kn8KQ3XkNyBEOtp3fxVvW609BqORswAAcp651mRWQBFT87iarXeKxeJyjV7wL4c2KyVUi62w1oqNfQEAwaZNmx76+/t/mJGREdPWk5DJZMLIyMj1AQEBkWhUuRDQnJOJXgegLiQk5FKvXr1CYmNjdwsEgoq2HqsuUFZWlrp58+ZVTk5OGy9cuFAAQBgaGnpRLBZr1L0uIHA0Dh89CuvOnSGIP19vtZ8m6GycDK4xjMd9CAAgDI21JnPD9aT1lloTpRcAqKmpeY525mKrgqakprPWZDdcoQMlACBISkp64eLi8vXOnTtX8Pn8vLaYQGVlZfqqVav+LygoKAbNuyWQFS+ajA0kcpeUlPADAwOPODo6zrl48eL2ysrKLG3G0tYoKSl5sHv37i+sra2XrFmz5i5InSIyMjJeXr9+/Yim1xw4aCDOXryAEW+9BdnLElT+/Bn4v38NeR1f00u1PV6R2thEs9Xv0tJSxffZbsstydDWUrcUX5PJU7d8+fJ4W1vbD44fP76Jz+fnavGezSCRSPjXrl3b5ejouHDbtm1P0FRcjtoCRXGQid4s5i4pKeFPnDjxlKWl5YcbNmz4JD09/ZJMJhNqPDgdQiKR1KSkpJxbsWLFAjs7u+VLliy5SRpzkxYwISEhp2pqago0fQ8bGxvsP3gA69avB4fDgTAxBhWbQyBKvv4mp94MCvdb0zLMBw8eJKN5y9h2S+7WLB5QV8SbaISjsVyTerA3bdrUd/r06eMdHR2HcjgcjXyy8vLy1KSkpJiwsLDolJQUPhrJS5asIVfiKL5MOt01A9Ij3cHu0aOH8bp16wYNHz58mKOj42AOh9PmmSN1dXVlubm5ifHx8fFffPFFQmlpqRDN+xwrUtXIRTeGW7duHRgWFrZT2+82PS0Nn4WtxONHjwAAht4jYDprJZhm2rWiJYS1eLH6Hcgs7FHXR/tuKwZFT2GYlQCGTIyzF86rXbUml8vF7u7uI9LS0irQNKNMjHZa1NHaFUEqscnppGSyKAjdhDBcLpf96aefugUGBvrY29v3tLKy6sblcs2ZTCaHzWZzhEJhtVAorCovL89NS0t7GhUV9eDgwYP5qP9hkzspUMmsIDS1vI6q5MJSMl4y4RUHi8vlGoSGhvby9/f3dnFx8bCzs3N7lcyi9edIEIS8urq64MWLFxk5OTnpFy5cSNqxY0cmlPc9Jt+sFHNSaLRzAHAfP3680tPTc4a2Y5JJZfj5pz34Yef3kEgkYPBMYDotFFzfcZrPr5WkZtaWg5t+Eyx+CYyMjfBpWBjmzVd/f724uPhmly5dlqK+2R1ZVbTdponqYpmfTvpIGbmp52RyUVP4FCBLuJJdfTKxyQedODt1rNSbEB3BqQf5bxrmaWNjw5k+fXrXAQMGdO3Zs6e9mZmZGY/HMzY0NDThcrlGDAaDIRaLRTKZTEoQhKy6urrixYsXZUVFRWUZGRmlR44cyc3NzRWQ5qdIxVVGarICJtC08QIHAM/Ozs4sNTV1r7m5ufb9igCkPUvD5ysbrTbHzRemsz8Dq1PL7ZMU0JbUDJkEnNwkcAofA4Qc74wfh7XrvlLZDJAO0dHRa8ePH38GjYkn5NzvDlnQocl1lOmaKSMLC03JQpfCR12UI/cMJpOb6pZSexspGys1dKAjOd05C01vYEzS9aitgBWgi+eoNyy6earq4QQoEbKYN2+e008//fRLa8OFZlbbkAfj8Qth9NZMteqqtSE1uywb3Mw4MEQ1cHJywlcbNmD4iOFqvZYMiUTCd3FxeSc3N1fhelOzydpl6WVbVC7RiaFTF9boyEk9yC61SMkjnbtN12lB2TgV/0fXcoWumTjdzUTZQQ4PqOfUuYhUPEdt1iahjIl642IAYDx48KDWwsIidciQIWMYDIbW3zOTycQgX1+MGTsWycnJKH1eCHHqHYif3YVBTy8wTSxUX0AqQV3sYRBcU0hsVcvFM4XV4KZehWHeffAMmAhdvgxbt2+Ho5N2BYCPHz8+Eh4efgvNFU8UhG5XsbQCbS1crY5VUhY30pGDzs1W1dhbFaHpxqhsrHTEpo5X1biVHSIlz9N1XSRbF1WdJRo8kUuXLr1wcXHJ8/b2fru1abtWna0wa/Zs8Hg8JCUmQlJeDGHCBYAgwHHyBpSVrKtDakIOTv4D8J7Ggln3EoFjxmDf/ggEjB4NFku7n6hUKq35z3/+82VWVlYVmqaFtlu3W4G2Sp2jlraRXVMmmpfBqaqeIRONSjhlzcwA9e/CdGNVNl6GinPq+Ok+WzoXnDwnut7HquaoeB/yzkOzfPwzZ85MnDx58hpd5ePnZOfgi1WrkHj3LgCA3cUJpkGrYeDg3nzCLbjfrMrn4GbcArPuJbo7OOCr/67H26NaL7wQHx//o5+fXwQat/w6hOoJ0PaWGlAeSypzyVXFlNS4kup+tnbvsaW4V1nsS7Xiyiw62ZrTWXqq50GVtVX35tXkRnXs2LEsDw+PQg8Pj+G6UIGxsLTAjJkzYWNrg7sJdyCqKIXwzkUQgloY9PJpKlCoxFIzJEJwM26CmxUPLpPA0tBQbP9+J5xdXFo7PPD5/PTBgwdvFAgE5OINxRZWu9zGIuN1dnjThjB05y01NNPlOKnjpVsfUDZedW5U5HO6+akzT2XtiJucnzx5Mqd79+5ZPj4+w5hMZqv1khgMBry9vTF9xnTk5OQgOzMLkpwUiO7Hgm3fCyyrV2XrNKQ2KHoKXkoMWNWlGDU6AL/sj0DgmDFga9BfTRnkcrnk66+/Drt06VIhmq5NUHdF2i1ed5NlOovakgtKfk5bF1sX41U8ksehzk1JDuU3p5ZIrNN5njt3rlAul9/38/MbxmZr0cOXBiYmJpg0eTKcevVC4t27qC0vhTApBvLKUnCc+wFAA6llxp3BS4kBp+gJHLp1xbbt3yF02bJW90Qj48qVK98tXLjwBpq3rqXG0npL3UagI7eyg/r3/4Sxks9V3ZDoPAwqeXURRrQYM//1118Vjx49uj527Ng+PB6v9d3oXqG3qytmvzsHfH4VUh4/hqQgDcK70WCZW0P06CYYEiE4RU9gxJDWu9o7d+jE1SYjPT39vK+v789omvtPZ6XbLaH1aBsw1Dja6n3JHVV4AEwBdAJgB6AHAFcAfQD42traBqSkpJwl2gD3kpKIcWPGEL169GxyfLRoMVFQUNAWb0kUFhbeMjU1HQagL4DeABwA2AAwR71IJgeNeQXtGh2mcLyDgC6phiw/xUH9irgiScXwyJEjgbNmzQpjs9k67YonlUoRdeoUrl65CmMTY8yYORND/fzaZNLPnz+PHzBgwBfFxcXVaFzpJq92U+sA9JZaj38VVFlsWwDdATgD8AQwAIDftGnTZhUVFd1rExPaxsjLy7tlZ2fnD6A/AA8AjgDsX83XFPU3LwPU3+A6hBHrEJPsgFCW404tsFHsaXPZbLbh+fPnpwcGBv5rtNtSUlJODx06dEd1dbUiBZS6OEZX2NPurfSbXijTo+1B0Jw3y7yTy+XE77//npqTk3Nj2LBhLsbGxrZveuDKIJPJxGfOnAn39/c/+EoGmq6GvkP0otaj44Guc6kRADMAVqhfQHNAozveH8AQNpvtf/r06W9EIlHVm3avqaiqqspZvXr1fABD0ehyOwHoCqAzGhfGDNFYUdehPNIONdkOCrr0V3KVHJ2ghSEAjp+fX+f9+/d/5OrqOvZNT4IgCPn9+/cjp0yZElFYWFiDplJV5IINanHP68pp+MdA7353LNDtgyvNOc/Pzxf++OOPcRwOJ9nb29uFy+VqJ3/SSpSXlz/dsmXL+rlz5158FT8rk6wip9jShR0dAnpL3XFALVyhbnspDoVCTYPFBsDhcrmGp06dmjp69Oh5HA7H9HUMWCAQvLh48eK+oKCgS1KpVJVsFbWeXp1KvXYLPak7HlQJWiiToWo4Bg8ebBURETHfw8NjYlu0CAbqyXzjxo2jixYtupifn18D5aWr5EIYctYe0EEJDehJ3VFBttrkMlKywgtZT64ZuT/++GOnNWvWfNy1a9dBuhoUn8/Pu3XrVtS8efMulpaWCqC6zpxc1UYNHYAOSmhAT+qODjqrTbeQpnDLya45B4BBeHh4/5CQkLldunQZoM0ACIKQ5efn342KiopauXJlklQqpQpE0LnZZDLrt60o0JNaD1WxNlVOmWy5yY8GGzZs8A4ODp7i6Og4oqXkFYIgiPLy8icPHz68uXnz5suxsbHlaK4eo1j4IhdkaKt006GgJ7UeCpCLTajqNFTRSCq5G+SU7e3teWvXru3fv39/T2tr627GxsadCIKQCwSC6tLS0pzU1NTMvXv3JsfFxVVCtYgk1TJTS1fpKtv0gJ7UejSFMhkqFpRbbmpTBFWSz1RlWLJIBNW1pqrDKhOV1JOZAj2p9aCDsoU0upVyOtlnxd+Rbw7K5J6VyVa1RGZAT2ha6EmthypQXXK6hg0sJQdVA12VUiuV6NQFMF3q0LV76EmtR0tQ5pKTD7rmBspIrUoGqiVtNj2Z1YCe1HqoC21kn8mvA5QTm4BymSdAT2aNoCe1HppCmU46nX67Mg13OnVWoLkooJ7MWkBPaj20BYPmUdk5oLorCqAnss6gJ7UeuoCyriR0lpru33oi6xB6UuvRlmiJ1Hq0Af4fJZUXPgVEAV8AAAAldEVYdGRhdGU6Y3JlYXRlADIwMTUtMDMtMDJUMjE6NDg6MjYrMDA6MDCrBRfcAAAAJXRFWHRkYXRlOm1vZGlmeQAyMDE1LTAzLTAyVDIxOjQ4OjI2KzAwOjAw2livYAAAAABJRU5ErkJggg==;" parent="QaU9Emd1L0k_uGMCEZLj-141" vertex="1">
          <mxGeometry width="89.83" height="110" as="geometry" />
        </mxCell>
        <mxCell id="QaU9Emd1L0k_uGMCEZLj-153" style="rounded=0;orthogonalLoop=1;jettySize=auto;html=1;startArrow=none;startFill=0;endArrow=classic;endFill=1;fontFamily=Courier New;fontSize=16;fontColor=#FFFFFF;entryX=-0.01;entryY=0.609;entryDx=0;entryDy=0;entryPerimeter=0;" parent="QaU9Emd1L0k_uGMCEZLj-158" source="QaU9Emd1L0k_uGMCEZLj-67" target="QaU9Emd1L0k_uGMCEZLj-65" edge="1">
          <mxGeometry relative="1" as="geometry" />
        </mxCell>
        <mxCell id="QaU9Emd1L0k_uGMCEZLj-235" value="" style="group" parent="QaU9Emd1L0k_uGMCEZLj-158" vertex="1" connectable="0">
          <mxGeometry x="700" y="592" width="190" height="45.93" as="geometry" />
        </mxCell>
        <mxCell id="QaU9Emd1L0k_uGMCEZLj-236" value="PostgreSQL works as the main RDBMS to store all data" style="rounded=1;whiteSpace=wrap;html=1;strokeWidth=2;fillColor=#FFFFFF;fontSize=12;align=center;" parent="QaU9Emd1L0k_uGMCEZLj-235" vertex="1">
          <mxGeometry x="10.178571428571425" y="4.014622222222224" width="179.82142857142858" height="41.915377777777756" as="geometry" />
        </mxCell>
        <mxCell id="QaU9Emd1L0k_uGMCEZLj-237" value="12" style="ellipse;whiteSpace=wrap;html=1;aspect=fixed;rounded=0;strokeWidth=2;fontSize=16;align=center;fontColor=#FFFFFF;fillColor=#000000;fontFamily=Courier New;" parent="QaU9Emd1L0k_uGMCEZLj-235" vertex="1">
          <mxGeometry x="1" y="-5.07" width="20" height="20" as="geometry" />
        </mxCell>
        <mxCell id="QaU9Emd1L0k_uGMCEZLj-77" value="" style="group" parent="QaU9Emd1L0k_uGMCEZLj-158" vertex="1" connectable="0">
          <mxGeometry x="590" y="122" width="100.8" height="100.8" as="geometry" />
        </mxCell>
        <mxCell id="QaU9Emd1L0k_uGMCEZLj-65" value="" style="rounded=0;whiteSpace=wrap;html=1;strokeWidth=4;fontSize=40;align=center;fillColor=#dae8fc;strokeColor=#6c8ebf;" parent="QaU9Emd1L0k_uGMCEZLj-77" vertex="1">
          <mxGeometry x="7.903905882352897" y="17.764517647058828" width="92.89609411764704" height="83.03548235294116" as="geometry" />
        </mxCell>
        <mxCell id="QaU9Emd1L0k_uGMCEZLj-41" value="" style="shape=image;html=1;verticalAlign=top;verticalLabelPosition=bottom;labelBackgroundColor=#ffffff;imageAspect=0;aspect=fixed;image=https://cdn3.iconfinder.com/data/icons/social-media-2169/24/social_media_social_media_logo_docker-128.png;rounded=0;strokeWidth=4;fontSize=40;align=center;" parent="QaU9Emd1L0k_uGMCEZLj-77" vertex="1">
          <mxGeometry width="36.76235294117647" height="36.76235294117647" as="geometry" />
        </mxCell>
        <mxCell id="QaU9Emd1L0k_uGMCEZLj-45" value="" style="outlineConnect=0;dashed=0;verticalLabelPosition=bottom;verticalAlign=top;align=center;html=1;shape=mxgraph.aws3.android;fillColor=#8CC64F;gradientColor=none;rounded=0;strokeWidth=4;fontSize=40;" parent="QaU9Emd1L0k_uGMCEZLj-77" vertex="1">
          <mxGeometry x="32.558399999999914" y="34.37872941176471" width="43.58117647058823" height="49.80705882352941" as="geometry" />
        </mxCell>
        <mxCell id="QaU9Emd1L0k_uGMCEZLj-226" value="" style="group" parent="QaU9Emd1L0k_uGMCEZLj-158" vertex="1" connectable="0">
          <mxGeometry x="390" y="132" width="190" height="45.93" as="geometry" />
        </mxCell>
        <mxCell id="QaU9Emd1L0k_uGMCEZLj-227" value="A simple NodeJS REST API&amp;nbsp;" style="rounded=1;whiteSpace=wrap;html=1;strokeWidth=2;fillColor=#FFFFFF;fontSize=12;align=center;" parent="QaU9Emd1L0k_uGMCEZLj-226" vertex="1">
          <mxGeometry x="10.178571428571425" y="4.014622222222224" width="179.82142857142858" height="41.915377777777756" as="geometry" />
        </mxCell>
        <mxCell id="QaU9Emd1L0k_uGMCEZLj-228" value="9" style="ellipse;whiteSpace=wrap;html=1;aspect=fixed;rounded=0;strokeWidth=2;fontSize=16;align=center;fontColor=#FFFFFF;fillColor=#000000;fontFamily=Courier New;" parent="QaU9Emd1L0k_uGMCEZLj-226" vertex="1">
          <mxGeometry x="1" y="-5.07" width="20" height="20" as="geometry" />
        </mxCell>
        <mxCell id="QaU9Emd1L0k_uGMCEZLj-229" value="" style="group" parent="QaU9Emd1L0k_uGMCEZLj-158" vertex="1" connectable="0">
          <mxGeometry x="690.8" y="252" width="190" height="45.93" as="geometry" />
        </mxCell>
        <mxCell id="QaU9Emd1L0k_uGMCEZLj-230" value="The persistence layer" style="rounded=1;whiteSpace=wrap;html=1;strokeWidth=2;fillColor=#FFFFFF;fontSize=12;align=center;" parent="QaU9Emd1L0k_uGMCEZLj-229" vertex="1">
          <mxGeometry x="10.178571428571425" y="4.014622222222224" width="179.82142857142858" height="41.915377777777756" as="geometry" />
        </mxCell>
        <mxCell id="QaU9Emd1L0k_uGMCEZLj-231" value="10" style="ellipse;whiteSpace=wrap;html=1;aspect=fixed;rounded=0;strokeWidth=2;fontSize=16;align=center;fontColor=#FFFFFF;fillColor=#000000;fontFamily=Courier New;" parent="QaU9Emd1L0k_uGMCEZLj-229" vertex="1">
          <mxGeometry x="1" y="-5.07" width="20" height="20" as="geometry" />
        </mxCell>
        <mxCell id="QaU9Emd1L0k_uGMCEZLj-238" style="edgeStyle=orthogonalEdgeStyle;rounded=0;orthogonalLoop=1;jettySize=auto;html=1;entryX=0.5;entryY=1;entryDx=0;entryDy=0;startArrow=none;startFill=0;endArrow=classic;endFill=1;fontFamily=Courier New;fontSize=16;fontColor=#FFFFFF;curved=1;" parent="QaU9Emd1L0k_uGMCEZLj-158" source="QaU9Emd1L0k_uGMCEZLj-65" target="QaU9Emd1L0k_uGMCEZLj-69" edge="1">
          <mxGeometry relative="1" as="geometry">
            <Array as="points">
              <mxPoint x="1030" y="181" />
              <mxPoint x="1030" y="712" />
              <mxPoint x="459" y="712" />
              <mxPoint x="459" y="623" />
            </Array>
          </mxGeometry>
        </mxCell>
        <mxCell id="QaU9Emd1L0k_uGMCEZLj-239" style="edgeStyle=orthogonalEdgeStyle;rounded=0;orthogonalLoop=1;jettySize=auto;html=1;startArrow=none;startFill=0;endArrow=classic;endFill=1;fontFamily=Courier New;fontSize=16;fontColor=#FFFFFF;curved=1;" parent="QaU9Emd1L0k_uGMCEZLj-158" target="QaU9Emd1L0k_uGMCEZLj-78" edge="1">
          <mxGeometry relative="1" as="geometry">
            <mxPoint x="691" y="181" as="sourcePoint" />
            <Array as="points">
              <mxPoint x="950" y="181" />
              <mxPoint x="950" y="566" />
            </Array>
          </mxGeometry>
        </mxCell>
        <mxCell id="QaU9Emd1L0k_uGMCEZLj-240" value="" style="group" parent="QaU9Emd1L0k_uGMCEZLj-158" vertex="1" connectable="0">
          <mxGeometry x="240" y="616.87" width="190" height="45.93" as="geometry" />
        </mxCell>
        <mxCell id="QaU9Emd1L0k_uGMCEZLj-241" value="The ELK stack provides full text search capabilities" style="rounded=1;whiteSpace=wrap;html=1;strokeWidth=2;fillColor=#FFFFFF;fontSize=12;align=center;" parent="QaU9Emd1L0k_uGMCEZLj-240" vertex="1">
          <mxGeometry x="10.178571428571425" y="4.014622222222224" width="179.82142857142858" height="41.915377777777756" as="geometry" />
        </mxCell>
        <mxCell id="QaU9Emd1L0k_uGMCEZLj-242" value="13" style="ellipse;whiteSpace=wrap;html=1;aspect=fixed;rounded=0;strokeWidth=2;fontSize=16;align=center;fontColor=#FFFFFF;fillColor=#000000;fontFamily=Courier New;" parent="QaU9Emd1L0k_uGMCEZLj-240" vertex="1">
          <mxGeometry x="1" y="-5.07" width="20" height="20" as="geometry" />
        </mxCell>
        <mxCell id="QaU9Emd1L0k_uGMCEZLj-221" value="" style="group" parent="QaU9Emd1L0k_uGMCEZLj-158" vertex="1" connectable="0">
          <mxGeometry x="125" y="282" width="180" height="71.0526315789474" as="geometry" />
        </mxCell>
        <mxCell id="QaU9Emd1L0k_uGMCEZLj-219" value="NGINX forms the web server" style="rounded=1;whiteSpace=wrap;html=1;strokeWidth=2;fillColor=#FFFFFF;fontSize=12;align=center;" parent="QaU9Emd1L0k_uGMCEZLj-221" vertex="1">
          <mxGeometry x="9.64" y="6.21" width="170.36" height="33.79" as="geometry" />
        </mxCell>
        <mxCell id="QaU9Emd1L0k_uGMCEZLj-220" value="8" style="ellipse;whiteSpace=wrap;html=1;aspect=fixed;rounded=0;strokeWidth=2;fontSize=16;align=center;fontColor=#FFFFFF;fillColor=#000000;fontFamily=Courier New;" parent="QaU9Emd1L0k_uGMCEZLj-221" vertex="1">
          <mxGeometry width="19.28571428571429" height="19.28571428571429" as="geometry" />
        </mxCell>
        <mxCell id="QaU9Emd1L0k_uGMCEZLj-160" value="" style="points=[[0,0,0],[0.25,0,0],[0.5,0,0],[0.75,0,0],[1,0,0],[0,1,0],[0.25,1,0],[0.5,1,0],[0.75,1,0],[1,1,0],[0,0.25,0],[0,0.5,0],[0,0.75,0],[1,0.25,0],[1,0.5,0],[1,0.75,0]];points=[[0,0,0],[0.25,0,0],[0.5,0,0],[0.75,0,0],[1,0,0],[0,1,0],[0.25,1,0],[0.5,1,0],[0.75,1,0],[1,1,0],[0,0.25,0],[0,0.5,0],[0,0.75,0],[1,0.25,0],[1,0.5,0],[1,0.75,0]];outlineConnect=0;fontColor=#232F3E;gradientColor=#F34482;gradientDirection=north;fillColor=#BC1356;strokeColor=#ffffff;dashed=0;verticalLabelPosition=bottom;verticalAlign=top;align=center;html=1;fontSize=12;fontStyle=0;aspect=fixed;shape=mxgraph.aws4.resourceIcon;resIcon=mxgraph.aws4.autoscaling;rounded=0;" parent="QaU9Emd1L0k_uGMCEZLj-201" vertex="1">
          <mxGeometry width="78" height="78" as="geometry" />
        </mxCell>
        <mxCell id="QaU9Emd1L0k_uGMCEZLj-196" value="" style="group" parent="QaU9Emd1L0k_uGMCEZLj-201" vertex="1" connectable="0">
          <mxGeometry x="110" y="948" width="850" height="150" as="geometry" />
        </mxCell>
        <mxCell id="QaU9Emd1L0k_uGMCEZLj-162" value="&lt;font style=&quot;font-size: 80px&quot;&gt;...&lt;/font&gt;" style="rounded=0;whiteSpace=wrap;html=1;strokeWidth=4;fontSize=40;align=center;fillColor=#ffe6cc;strokeColor=#d79b00;" parent="QaU9Emd1L0k_uGMCEZLj-196" vertex="1">
          <mxGeometry x="22.36842105263158" y="20" width="827.6315789473684" height="130" as="geometry" />
        </mxCell>
        <mxCell id="QaU9Emd1L0k_uGMCEZLj-195" value="" style="points=[[0,0,0],[0.25,0,0],[0.5,0,0],[0.75,0,0],[1,0,0],[0,1,0],[0.25,1,0],[0.5,1,0],[0.75,1,0],[1,1,0],[0,0.25,0],[0,0.5,0],[0,0.75,0],[1,0.25,0],[1,0.5,0],[1,0.75,0]];outlineConnect=0;fontColor=#232F3E;gradientColor=#F78E04;gradientDirection=north;fillColor=#D05C17;strokeColor=#ffffff;dashed=0;verticalLabelPosition=bottom;verticalAlign=top;align=center;html=1;fontSize=12;fontStyle=0;aspect=fixed;shape=mxgraph.aws4.resourceIcon;resIcon=mxgraph.aws4.ec2;rounded=0;" parent="QaU9Emd1L0k_uGMCEZLj-196" vertex="1">
          <mxGeometry width="54.6532346491228" height="54.6532346491228" as="geometry" />
        </mxCell>
        <mxCell id="QaU9Emd1L0k_uGMCEZLj-197" value="" style="group" parent="QaU9Emd1L0k_uGMCEZLj-201" vertex="1" connectable="0">
          <mxGeometry x="110" y="1148" width="850" height="150" as="geometry" />
        </mxCell>
        <mxCell id="QaU9Emd1L0k_uGMCEZLj-198" value="&lt;font style=&quot;font-size: 80px&quot;&gt;...&lt;/font&gt;" style="rounded=0;whiteSpace=wrap;html=1;strokeWidth=4;fontSize=40;align=center;fillColor=#ffe6cc;strokeColor=#d79b00;" parent="QaU9Emd1L0k_uGMCEZLj-197" vertex="1">
          <mxGeometry x="22.36842105263158" y="20" width="827.6315789473683" height="130" as="geometry" />
        </mxCell>
        <mxCell id="QaU9Emd1L0k_uGMCEZLj-199" value="" style="points=[[0,0,0],[0.25,0,0],[0.5,0,0],[0.75,0,0],[1,0,0],[0,1,0],[0.25,1,0],[0.5,1,0],[0.75,1,0],[1,1,0],[0,0.25,0],[0,0.5,0],[0,0.75,0],[1,0.25,0],[1,0.5,0],[1,0.75,0]];outlineConnect=0;fontColor=#232F3E;gradientColor=#F78E04;gradientDirection=north;fillColor=#D05C17;strokeColor=#ffffff;dashed=0;verticalLabelPosition=bottom;verticalAlign=top;align=center;html=1;fontSize=12;fontStyle=0;aspect=fixed;shape=mxgraph.aws4.resourceIcon;resIcon=mxgraph.aws4.ec2;rounded=0;" parent="QaU9Emd1L0k_uGMCEZLj-197" vertex="1">
          <mxGeometry width="54.01025541795665" height="54.01025541795665" as="geometry" />
        </mxCell>
        <mxCell id="QaU9Emd1L0k_uGMCEZLj-223" value="" style="group" parent="QaU9Emd1L0k_uGMCEZLj-201" vertex="1" connectable="0">
          <mxGeometry x="200" y="50" width="180" height="71.0526315789474" as="geometry" />
        </mxCell>
        <mxCell id="QaU9Emd1L0k_uGMCEZLj-224" value="Docker compose acts as a simple container orchestration service" style="rounded=1;whiteSpace=wrap;html=1;strokeWidth=2;fillColor=#FFFFFF;fontSize=12;align=center;" parent="QaU9Emd1L0k_uGMCEZLj-223" vertex="1">
          <mxGeometry x="9.642857142857139" y="6.21052631578948" width="170.35714285714286" height="64.84210526315789" as="geometry" />
        </mxCell>
        <mxCell id="QaU9Emd1L0k_uGMCEZLj-225" value="7" style="ellipse;whiteSpace=wrap;html=1;aspect=fixed;rounded=0;strokeWidth=2;fontSize=16;align=center;fontColor=#FFFFFF;fillColor=#000000;fontFamily=Courier New;" parent="QaU9Emd1L0k_uGMCEZLj-223" vertex="1">
          <mxGeometry width="19.28571428571429" height="19.28571428571429" as="geometry" />
        </mxCell>
        <mxCell id="QaU9Emd1L0k_uGMCEZLj-205" style="edgeStyle=none;rounded=0;orthogonalLoop=1;jettySize=auto;html=1;entryX=-0.001;entryY=0.442;entryDx=0;entryDy=0;entryPerimeter=0;startArrow=none;startFill=0;endArrow=classic;endFill=1;fontFamily=Courier New;fontSize=16;fontColor=#FFFFFF;" parent="1" source="QaU9Emd1L0k_uGMCEZLj-204" target="QaU9Emd1L0k_uGMCEZLj-64" edge="1">
          <mxGeometry relative="1" as="geometry" />
        </mxCell>
        <mxCell id="QaU9Emd1L0k_uGMCEZLj-206" style="edgeStyle=none;rounded=0;orthogonalLoop=1;jettySize=auto;html=1;entryX=0;entryY=0.5;entryDx=0;entryDy=0;startArrow=none;startFill=0;endArrow=classic;endFill=1;fontFamily=Courier New;fontSize=16;fontColor=#FFFFFF;" parent="1" source="QaU9Emd1L0k_uGMCEZLj-204" target="QaU9Emd1L0k_uGMCEZLj-162" edge="1">
          <mxGeometry relative="1" as="geometry" />
        </mxCell>
        <mxCell id="QaU9Emd1L0k_uGMCEZLj-207" style="edgeStyle=none;rounded=0;orthogonalLoop=1;jettySize=auto;html=1;entryX=0;entryY=0.5;entryDx=0;entryDy=0;startArrow=none;startFill=0;endArrow=classic;endFill=1;fontFamily=Courier New;fontSize=16;fontColor=#FFFFFF;" parent="1" source="QaU9Emd1L0k_uGMCEZLj-204" target="QaU9Emd1L0k_uGMCEZLj-198" edge="1">
          <mxGeometry relative="1" as="geometry" />
        </mxCell>
        <mxCell id="QaU9Emd1L0k_uGMCEZLj-204" value="" style="outlineConnect=0;dashed=0;verticalLabelPosition=bottom;verticalAlign=top;align=center;html=1;shape=mxgraph.aws3.application_load_balancer;fillColor=#F58536;gradientColor=none;rounded=0;strokeColor=#999999;strokeWidth=4;fontFamily=Courier New;fontSize=16;fontColor=#FFFFFF;" parent="1" vertex="1">
          <mxGeometry x="9130" y="310" width="73.58" height="76.78" as="geometry" />
        </mxCell>
        <mxCell id="QaU9Emd1L0k_uGMCEZLj-212" value="" style="group" parent="1" vertex="1" connectable="0">
          <mxGeometry x="8530" y="290" width="310" height="76" as="geometry" />
        </mxCell>
        <mxCell id="QaU9Emd1L0k_uGMCEZLj-213" value="Route 53 forwards backend requests to an ALB" style="rounded=1;whiteSpace=wrap;html=1;strokeWidth=2;fillColor=#FFFFFF;fontSize=12;align=center;" parent="QaU9Emd1L0k_uGMCEZLj-212" vertex="1">
          <mxGeometry x="15" y="14" width="295" height="26" as="geometry" />
        </mxCell>
        <mxCell id="QaU9Emd1L0k_uGMCEZLj-214" value="5" style="ellipse;whiteSpace=wrap;html=1;aspect=fixed;rounded=0;strokeWidth=2;fontSize=16;align=center;fontColor=#FFFFFF;fillColor=#000000;fontFamily=Courier New;" parent="QaU9Emd1L0k_uGMCEZLj-212" vertex="1">
          <mxGeometry width="30" height="30" as="geometry" />
        </mxCell>
        <mxCell id="QaU9Emd1L0k_uGMCEZLj-215" value="" style="group" parent="1" vertex="1" connectable="0">
          <mxGeometry x="9030" y="150" width="280" height="76" as="geometry" />
        </mxCell>
        <mxCell id="QaU9Emd1L0k_uGMCEZLj-216" value="This ALB then sends the request to an auto scaling group of EC2 Instances" style="rounded=1;whiteSpace=wrap;html=1;strokeWidth=2;fillColor=#FFFFFF;fontSize=12;align=center;" parent="QaU9Emd1L0k_uGMCEZLj-215" vertex="1">
          <mxGeometry x="15" y="14" width="265" height="56" as="geometry" />
        </mxCell>
        <mxCell id="QaU9Emd1L0k_uGMCEZLj-217" value="6" style="ellipse;whiteSpace=wrap;html=1;aspect=fixed;rounded=0;strokeWidth=2;fontSize=16;align=center;fontColor=#FFFFFF;fillColor=#000000;fontFamily=Courier New;" parent="QaU9Emd1L0k_uGMCEZLj-215" vertex="1">
          <mxGeometry width="30" height="30" as="geometry" />
        </mxCell>
        <mxCell id="QaU9Emd1L0k_uGMCEZLj-243" value="" style="rounded=0;whiteSpace=wrap;html=1;strokeWidth=4;fontSize=40;align=center;" parent="1" vertex="1">
          <mxGeometry x="11520" y="-1010" width="3850" height="2360" as="geometry" />
        </mxCell>
        <mxCell id="QaU9Emd1L0k_uGMCEZLj-244" value="&lt;h1&gt;&lt;font style=&quot;font-size: 120px&quot;&gt;Development System Design - v2&lt;/font&gt;&lt;/h1&gt;" style="text;html=1;strokeColor=none;fillColor=none;align=center;verticalAlign=middle;whiteSpace=wrap;rounded=0;fontSize=40;" parent="1" vertex="1">
          <mxGeometry x="11800" y="-780" width="1560" height="310" as="geometry" />
        </mxCell>
        <mxCell id="QaU9Emd1L0k_uGMCEZLj-245" value="" style="points=[[0,0,0],[0.25,0,0],[0.5,0,0],[0.75,0,0],[1,0,0],[0,1,0],[0.25,1,0],[0.5,1,0],[0.75,1,0],[1,1,0],[0,0.25,0],[0,0.5,0],[0,0.75,0],[1,0.25,0],[1,0.5,0],[1,0.75,0]];outlineConnect=0;fontColor=#232F3E;gradientColor=#F78E04;gradientDirection=north;fillColor=#D05C17;strokeColor=#ffffff;dashed=0;verticalLabelPosition=bottom;verticalAlign=top;align=center;html=1;fontSize=12;fontStyle=0;aspect=fixed;shape=mxgraph.aws4.resourceIcon;resIcon=mxgraph.aws4.ecs;rounded=0;" parent="1" vertex="1">
          <mxGeometry x="11800" y="-220" width="310" height="310" as="geometry" />
        </mxCell>
        <mxCell id="QaU9Emd1L0k_uGMCEZLj-246" value="" style="aspect=fixed;html=1;points=[];align=center;image;fontSize=12;image=img/lib/mscae/Cache_Redis_Product.svg;rounded=0;strokeColor=#999999;strokeWidth=4;fillColor=none;" parent="1" vertex="1">
          <mxGeometry x="12190" y="-230" width="392.86" height="330" as="geometry" />
        </mxCell>
        <mxCell id="QaU9Emd1L0k_uGMCEZLj-248" value="&lt;h1&gt;&lt;font style=&quot;font-size: 120px&quot;&gt;Production System Design - v1&lt;/font&gt;&lt;/h1&gt;" style="text;html=1;strokeColor=none;fillColor=none;align=center;verticalAlign=middle;whiteSpace=wrap;rounded=0;fontSize=40;" parent="1" vertex="1">
          <mxGeometry x="16310" y="-810" width="1560" height="310" as="geometry" />
        </mxCell>
        <mxCell id="QaU9Emd1L0k_uGMCEZLj-249" value="" style="points=[[0,0,0],[0.25,0,0],[0.5,0,0],[0.75,0,0],[1,0,0],[0,1,0],[0.25,1,0],[0.5,1,0],[0.75,1,0],[1,1,0],[0,0.25,0],[0,0.5,0],[0,0.75,0],[1,0.25,0],[1,0.5,0],[1,0.75,0]];outlineConnect=0;fontColor=#232F3E;gradientColor=#F78E04;gradientDirection=north;fillColor=#D05C17;strokeColor=#ffffff;dashed=0;verticalLabelPosition=bottom;verticalAlign=top;align=center;html=1;fontSize=12;fontStyle=0;aspect=fixed;shape=mxgraph.aws4.resourceIcon;resIcon=mxgraph.aws4.ecs;rounded=0;" parent="1" vertex="1">
          <mxGeometry x="16330" y="-278" width="310" height="310" as="geometry" />
        </mxCell>
        <mxCell id="QaU9Emd1L0k_uGMCEZLj-250" value="" style="aspect=fixed;html=1;points=[];align=center;image;fontSize=12;image=img/lib/mscae/Cache_Redis_Product.svg;rounded=0;strokeColor=#999999;strokeWidth=4;fillColor=none;" parent="1" vertex="1">
          <mxGeometry x="17288.57" y="678" width="392.86" height="330" as="geometry" />
        </mxCell>
        <mxCell id="QaU9Emd1L0k_uGMCEZLj-251" value="" style="shape=image;verticalLabelPosition=bottom;labelBackgroundColor=#ffffff;verticalAlign=top;aspect=fixed;imageAspect=0;image=https://upload.wikimedia.org/wikipedia/commons/2/29/Postgresql_elephant.svg;" parent="1" vertex="1">
          <mxGeometry x="16650" y="120.57" width="271.37" height="280" as="geometry" />
        </mxCell>
        <mxCell id="QaU9Emd1L0k_uGMCEZLj-253" value="" style="points=[[0,0,0],[0.25,0,0],[0.5,0,0],[0.75,0,0],[1,0,0],[0,1,0],[0.25,1,0],[0.5,1,0],[0.75,1,0],[1,1,0],[0,0.25,0],[0,0.5,0],[0,0.75,0],[1,0.25,0],[1,0.5,0],[1,0.75,0]];outlineConnect=0;fontColor=#232F3E;gradientColor=#4D72F3;gradientDirection=north;fillColor=#3334B9;strokeColor=#ffffff;dashed=0;verticalLabelPosition=bottom;verticalAlign=top;align=center;html=1;fontSize=12;fontStyle=0;aspect=fixed;shape=mxgraph.aws4.resourceIcon;resIcon=mxgraph.aws4.codecommit;rounded=0;" parent="1" vertex="1">
          <mxGeometry x="18650" y="335" width="450" height="450" as="geometry" />
        </mxCell>
        <mxCell id="QaU9Emd1L0k_uGMCEZLj-254" value="" style="points=[[0,0,0],[0.25,0,0],[0.5,0,0],[0.75,0,0],[1,0,0],[0,1,0],[0.25,1,0],[0.5,1,0],[0.75,1,0],[1,1,0],[0,0.25,0],[0,0.5,0],[0,0.75,0],[1,0.25,0],[1,0.5,0],[1,0.75,0]];outlineConnect=0;fontColor=#232F3E;gradientColor=#4D72F3;gradientDirection=north;fillColor=#3334B9;strokeColor=#ffffff;dashed=0;verticalLabelPosition=bottom;verticalAlign=top;align=center;html=1;fontSize=12;fontStyle=0;aspect=fixed;shape=mxgraph.aws4.resourceIcon;resIcon=mxgraph.aws4.codebuild;rounded=0;" parent="1" vertex="1">
          <mxGeometry x="19125" y="330" width="450" height="450" as="geometry" />
        </mxCell>
        <mxCell id="QaU9Emd1L0k_uGMCEZLj-255" value="" style="points=[[0,0,0],[0.25,0,0],[0.5,0,0],[0.75,0,0],[1,0,0],[0,1,0],[0.25,1,0],[0.5,1,0],[0.75,1,0],[1,1,0],[0,0.25,0],[0,0.5,0],[0,0.75,0],[1,0.25,0],[1,0.5,0],[1,0.75,0]];outlineConnect=0;fontColor=#232F3E;gradientColor=#4D72F3;gradientDirection=north;fillColor=#3334B9;strokeColor=#ffffff;dashed=0;verticalLabelPosition=bottom;verticalAlign=top;align=center;html=1;fontSize=12;fontStyle=0;aspect=fixed;shape=mxgraph.aws4.resourceIcon;resIcon=mxgraph.aws4.codedeploy;rounded=0;" parent="1" vertex="1">
          <mxGeometry x="18880" y="830" width="430" height="430" as="geometry" />
        </mxCell>
        <mxCell id="QaU9Emd1L0k_uGMCEZLj-256" value="" style="points=[[0,0,0],[0.25,0,0],[0.5,0,0],[0.75,0,0],[1,0,0],[0,1,0],[0.25,1,0],[0.5,1,0],[0.75,1,0],[1,1,0],[0,0.25,0],[0,0.5,0],[0,0.75,0],[1,0.25,0],[1,0.5,0],[1,0.75,0]];outlineConnect=0;fontColor=#232F3E;gradientColor=#4D72F3;gradientDirection=north;fillColor=#3334B9;strokeColor=#ffffff;dashed=0;verticalLabelPosition=bottom;verticalAlign=top;align=center;html=1;fontSize=12;fontStyle=0;aspect=fixed;shape=mxgraph.aws4.resourceIcon;resIcon=mxgraph.aws4.codepipeline;rounded=0;" parent="1" vertex="1">
          <mxGeometry x="18840" y="-240" width="540" height="540" as="geometry" />
        </mxCell>
        <mxCell id="59CNkppmv3cyWRf1LLxU-6" value="" style="points=[[0,0,0],[0.25,0,0],[0.5,0,0],[0.75,0,0],[1,0,0],[0,1,0],[0.25,1,0],[0.5,1,0],[0.75,1,0],[1,1,0],[0,0.25,0],[0,0.5,0],[0,0.75,0],[1,0.25,0],[1,0.5,0],[1,0.75,0]];outlineConnect=0;fontColor=#232F3E;gradientColor=#4D72F3;gradientDirection=north;fillColor=#3334B9;strokeColor=#ffffff;dashed=0;verticalLabelPosition=bottom;verticalAlign=top;align=center;html=1;fontSize=12;fontStyle=0;aspect=fixed;shape=mxgraph.aws4.resourceIcon;resIcon=mxgraph.aws4.simple_email_service;" vertex="1" parent="1">
          <mxGeometry x="8660" y="-139.72" width="78" height="78" as="geometry" />
        </mxCell>
        <mxCell id="59CNkppmv3cyWRf1LLxU-1" value="" style="group" vertex="1" connectable="0" parent="1">
          <mxGeometry x="8627.12" y="-195.93" width="190" height="45.93" as="geometry" />
        </mxCell>
        <mxCell id="59CNkppmv3cyWRf1LLxU-2" value="SES is used as a simple way to deliver emails" style="rounded=1;whiteSpace=wrap;html=1;strokeWidth=2;fillColor=#FFFFFF;fontSize=12;align=center;" vertex="1" parent="59CNkppmv3cyWRf1LLxU-1">
          <mxGeometry x="10.178571428571425" y="4.014622222222224" width="179.82142857142858" height="41.915377777777756" as="geometry" />
        </mxCell>
        <mxCell id="59CNkppmv3cyWRf1LLxU-3" value="14" style="ellipse;whiteSpace=wrap;html=1;aspect=fixed;rounded=0;strokeWidth=2;fontSize=16;align=center;fontColor=#FFFFFF;fillColor=#000000;fontFamily=Courier New;" vertex="1" parent="59CNkppmv3cyWRf1LLxU-1">
          <mxGeometry x="1" y="-5.07" width="20" height="20" as="geometry" />
        </mxCell>
        <mxCell id="59CNkppmv3cyWRf1LLxU-5" style="edgeStyle=orthogonalEdgeStyle;rounded=0;orthogonalLoop=1;jettySize=auto;html=1;" edge="1" parent="1" source="QaU9Emd1L0k_uGMCEZLj-65" target="59CNkppmv3cyWRf1LLxU-6">
          <mxGeometry relative="1" as="geometry">
            <mxPoint x="9729.5" y="-100.71774117647078" as="targetPoint" />
          </mxGeometry>
        </mxCell>
      </root>
    </mxGraphModel>
  </diagram>
</mxfile>
